<svg width="558" height="363" viewBox="0 0 558 363" fill="none" xmlns="http://www.w3.org/2000/svg">
<g style="mix-blend-mode:multiply">
<path d="M288.901 157.744L275.355 312.557H444.595L514.659 267.474L322.722 148.988H275.759L288.901 157.744Z" fill="#E5F8FF"/>
</g>
<path d="M413.203 229.528L162.578 84.9625L26 164.017L276.416 308.47L413.203 229.528Z" fill="#006199"/>
<path d="M276.415 308.345V312.557L413.203 233.628V229.416L276.415 308.345Z" fill="#1C66C8"/>
<path d="M26 163.891V168.117L276.416 312.557V308.345L26 163.891Z" fill="#5C5C5C"/>
<path d="M156.24 163.766L110.76 137.335V191.103L110.886 191.186L156.24 164.951V163.766Z" fill="#B4DBFF"/>
<path d="M156.241 164.951L110.887 191.186L156.241 217.673V164.951Z" fill="#2B5B7F"/>
<path d="M102.553 141.687L40.9368 106.469V160.53L73.2107 178.968L75.9886 177.392L92.8375 187.058L92.8514 190.182L102.553 195.719V141.687Z" fill="#EFF0F9"/>
<path d="M110.76 191.103L102.552 195.719V141.687L110.76 138.005V191.103Z" fill="#D9DAE2"/>
<path d="M78.7383 175.844L73.2244 178.94V136.708L78.7383 139.79V175.844Z" fill="#D9DAE2"/>
<path d="M69.4269 134.601L45.9893 121.044V153.43L69.4269 166.973V134.601Z" fill="white"/>
<path d="M48.126 123.681L47.0791 123.081V152.663L68.2972 164.784V163.598L48.126 152.078V123.681Z" fill="#2B5B7F"/>
<path d="M48.125 123.681V152.078L68.2962 163.598V135.215L48.125 123.681Z" fill="#006199"/>
<path d="M54.2403 157.503L52.9561 156.624V125.452L54.2403 126.331V157.503Z" fill="white"/>
<path d="M53.7236 135.131V136.484L68.7438 145.188L69.4279 144.239L53.7236 135.131Z" fill="white"/>
<path d="M213.027 196.556L167.533 170.14V223.907L167.673 223.977L213.027 197.756V196.556Z" fill="#B4DBFF"/>
<path d="M213.027 197.755L167.673 223.977L213.027 250.463V197.755Z" fill="#2B5B7F"/>
<path d="M243.5 184.464L170.939 225.999L177.319 229.639L249.893 188.09L243.5 184.464Z" fill="#8EB780"/>
<path d="M242.857 184.129L170.311 225.664L171.455 226.32L244.002 184.798L242.857 184.129Z" fill="white"/>
<path d="M187.425 151.882L114.879 193.418L121.244 197.058L193.833 155.523L187.425 151.882Z" fill="#8EB780"/>
<path d="M186.783 151.562L114.236 193.083L115.381 193.739L187.928 152.217L186.783 151.562Z" fill="white"/>
<path d="M268.864 228.83L223.371 202.414V256.474L268.864 282.737V228.83Z" fill="#8EB780"/>
<path d="M268.864 277.829L223.371 251.411V252.834L268.864 279.112V277.829Z" fill="#527A45"/>
<path d="M268.864 273.38L223.371 246.962V248.385L268.864 274.663V273.38Z" fill="#527A45"/>
<path d="M268.864 269.098L223.371 242.68V244.117L268.864 270.381V269.098Z" fill="#527A45"/>
<path d="M268.864 264.648L223.371 238.231V239.654L268.864 265.932V264.648Z" fill="#527A45"/>
<path d="M268.864 260.116L223.371 233.698V235.121L268.864 261.399V260.116Z" fill="#527A45"/>
<path d="M268.864 255.666L223.371 229.249V230.672L268.864 256.95V255.666Z" fill="#527A45"/>
<path d="M268.864 251.384L223.371 224.967V226.39L268.864 252.668V251.384Z" fill="#527A45"/>
<path d="M268.864 246.935L223.371 220.518V221.94L268.864 248.218V246.935Z" fill="#527A45"/>
<path d="M268.864 242.207L223.371 215.79V217.212L268.864 243.49V242.207Z" fill="#527A45"/>
<path d="M401.003 149.748L276.095 221.703L40.9229 86.162L165.873 14.0258L401.003 149.748Z" fill="#5C5C5C"/>
<path d="M388.132 152.091L392.166 149.748L165.23 18.7957L49.5908 85.8411L53.6251 88.1703L165.23 23.4542L388.132 152.091Z" fill="#FAFAFA"/>
<path d="M388.133 152.092L165.23 23.4542L53.6257 88.1704L276.374 216.71L388.133 152.092Z" fill="#CCCCCC"/>
<path d="M159.325 174.491L149.638 168.87V222.931L159.325 228.524V174.491Z" fill="#EFF0F9"/>
<path d="M167.533 223.907L159.325 228.524V174.491L167.533 170.809V223.907Z" fill="#D9DAE2"/>
<path d="M215.177 206.947L205.489 201.312V255.386L215.177 260.979V206.947Z" fill="#EFF0F9"/>
<path d="M223.371 256.349L215.177 260.979V206.947L223.371 203.265V256.349Z" fill="#D9DAE2"/>
<path d="M276.096 242.094L266.408 236.474V290.534L276.096 296.127V242.094Z" fill="#EFF0F9"/>
<path d="M401.004 170.14L276.096 242.094V296.127L401.004 224.367V170.14Z" fill="#D9DAE2"/>
<path d="M146.469 52.2142L166.235 63.791L179.525 56.3289L159.591 44.6683L146.469 52.2142Z" fill="#FAFAFA"/>
<path d="M165.774 57.0397H165.021V60.0245L165.774 60.4709V57.0397Z" fill="#D9DAE2"/>
<path d="M165.773 57.0398L174.344 52.8973V55.8821L165.773 60.471V57.0398Z" fill="#2B5B7F"/>
<path d="M152.499 49.4523H151.759V52.4371L152.499 52.8835V49.4523Z" fill="#D9DAE2"/>
<path d="M152.499 49.4524L161.07 45.3099V48.2947L152.499 52.8836V49.4524Z" fill="#2B5B7F"/>
<path d="M151.089 36.1743V49.6341L166.514 58.5748V45.0871L151.089 36.1743Z" fill="#D9DAE2"/>
<path d="M166.514 45.087V58.5747L174.903 53.7905V40.3586L166.514 45.087Z" fill="#EFF0F9"/>
<path d="M151.089 36.1745L166.514 45.0873L174.903 40.3589L159.353 31.3764L151.089 36.1745Z" fill="white"/>
<path d="M157.371 47.6114C157.39 48.9198 157.755 50.1999 158.429 51.3218C159.104 52.4437 160.063 53.3675 161.209 53.9995C163.247 54.8225 164.853 53.3021 164.783 50.5962C164.767 49.2872 164.402 48.0059 163.728 46.8835C163.054 45.7611 162.093 44.8378 160.944 44.208C158.906 43.3851 157.301 44.9752 157.371 47.6114Z" fill="#2B5B7F"/>
<path d="M158.656 48.1274C158.669 48.9824 158.906 49.819 159.345 50.5534C159.784 51.2877 160.407 51.8941 161.154 52.3118C162.55 52.8418 163.541 51.8376 163.499 50.0801C163.486 49.2251 163.248 48.3885 162.81 47.6542C162.371 46.9198 161.747 46.3134 161.001 45.8957C159.661 45.3657 158.614 46.37 158.656 48.1274Z" fill="#D9DAE2"/>
<path d="M120.533 66.9566L140.314 78.5334L153.603 71.0713L133.669 59.3968L120.533 66.9566Z" fill="#FAFAFA"/>
<path d="M139.837 71.7822H139.098V74.767L139.837 75.2134V71.7822Z" fill="#D9DAE2"/>
<path d="M139.839 71.7823L148.424 67.6398V70.6246L139.839 75.2135V71.7823Z" fill="#2B5B7F"/>
<path d="M126.577 64.1948H125.837V67.1797L126.577 67.626V64.1948Z" fill="#D9DAE2"/>
<path d="M126.576 64.1949L135.147 60.0523V63.0372L126.576 67.6261V64.1949Z" fill="#2B5B7F"/>
<path d="M125.166 50.9167V64.3766L140.577 73.3033V59.8156L125.166 50.9167Z" fill="#D9DAE2"/>
<path d="M140.577 59.8154V73.3031L148.981 68.5329V55.101L140.577 59.8154Z" fill="#EFF0F9"/>
<path d="M125.166 50.9169L140.577 59.8157L148.981 55.1013L133.416 46.1049L125.166 50.9169Z" fill="white"/>
<path d="M131.448 62.3539C131.478 63.6511 131.846 64.9181 132.517 66.029C133.188 67.14 134.138 68.0561 135.273 68.6862C137.325 69.5092 138.931 67.9749 138.861 65.269C138.834 63.9677 138.466 62.6963 137.792 61.5823C137.118 60.4684 136.163 59.5511 135.022 58.9226C132.984 58.1137 131.379 59.6479 131.448 62.3539Z" fill="#2B5B7F"/>
<path d="M132.732 62.8699C132.741 63.7258 132.977 64.5641 133.416 65.2992C133.855 66.0343 134.482 66.6399 135.231 67.0543C136.627 67.5982 137.618 66.594 137.576 64.8226C137.562 63.9662 137.322 63.1287 136.881 62.3942C136.44 61.6597 135.813 61.0541 135.064 60.6382C133.737 60.0942 132.691 61.0985 132.732 62.8699Z" fill="#D9DAE2"/>
<path d="M276.095 221.703L40.9229 86.162L40.9368 106.469L276.095 242.15V221.703Z" fill="#CCCCCC"/>
<path d="M116.067 130.206V148.499L193.563 192.839V175.359L116.067 130.206Z" fill="#D9DAE2"/>
<path d="M122.386 138.835L119.692 145.844L118.591 145.208L121.693 137.602L122.402 138.012L122.386 138.835ZM124.644 148.703L121.944 138.58L121.927 137.738L122.637 138.148L125.751 149.342L124.644 148.703ZM124.504 145.144L124.504 146.164L119.932 143.524L119.932 142.504L124.504 145.144Z" fill="#090909"/>
<path d="M129.741 147.251L127.679 146.06L127.668 145.054L129.54 146.135C129.849 146.313 130.119 146.409 130.35 146.422C130.581 146.435 130.76 146.366 130.887 146.215C131.017 146.063 131.083 145.829 131.083 145.515C131.083 145.171 131.025 144.858 130.909 144.576C130.798 144.292 130.624 144.033 130.389 143.798C130.158 143.562 129.864 143.34 129.506 143.134L127.919 142.217L127.919 150.594L126.841 149.972L126.84 140.574L129.506 142.114C129.924 142.355 130.296 142.619 130.624 142.908C130.952 143.192 131.23 143.503 131.457 143.84C131.688 144.176 131.863 144.535 131.982 144.918C132.102 145.301 132.161 145.712 132.161 146.151C132.161 146.538 132.076 146.839 131.904 147.054C131.733 147.265 131.494 147.381 131.189 147.403C130.887 147.427 130.533 147.349 130.127 147.171L129.741 147.251ZM129.691 151.617L127.254 150.21L127.863 149.549L129.691 150.604C130.034 150.802 130.324 150.901 130.563 150.901C130.805 150.903 130.99 150.816 131.116 150.64C131.243 150.459 131.306 150.196 131.306 149.852C131.306 149.504 131.252 149.171 131.144 148.855C131.036 148.539 130.867 148.245 130.636 147.974C130.405 147.703 130.106 147.462 129.741 147.251L128.204 146.364L128.215 145.37L130.317 146.583L130.546 147.077C130.937 147.342 131.269 147.662 131.541 148.039C131.813 148.411 132.02 148.806 132.161 149.223C132.307 149.643 132.379 150.055 132.379 150.459C132.379 151.044 132.268 151.474 132.044 151.75C131.824 152.023 131.513 152.149 131.111 152.127C130.708 152.101 130.235 151.932 129.691 151.617Z" fill="#090909"/>
<path d="M136.823 146.338L136.823 155.735L135.761 155.122L135.761 145.725L136.823 146.338ZM139.438 147.849L139.438 148.868L133.151 145.238L133.151 144.218L139.438 147.849Z" fill="#090909"/>
<path d="M146.755 156.475L146.755 157.068C146.755 157.774 146.679 158.362 146.526 158.834C146.373 159.305 146.153 159.653 145.866 159.879C145.579 160.105 145.235 160.205 144.832 160.179C144.434 160.155 143.987 160.001 143.491 159.714C143.01 159.437 142.569 159.079 142.166 158.64C141.768 158.203 141.421 157.704 141.127 157.142C140.836 156.583 140.611 155.977 140.45 155.326C140.29 154.674 140.21 153.995 140.21 153.289L140.21 152.696C140.21 151.99 140.288 151.405 140.445 150.94C140.605 150.473 140.83 150.128 141.121 149.904C141.411 149.676 141.756 149.574 142.155 149.598C142.557 149.624 142.999 149.775 143.479 150.053C143.975 150.339 144.422 150.7 144.821 151.137C145.223 151.576 145.568 152.076 145.855 152.638C146.146 153.197 146.367 153.8 146.52 154.448C146.677 155.093 146.755 155.769 146.755 156.475ZM145.687 156.452L145.687 155.845C145.687 155.286 145.637 154.762 145.536 154.274C145.44 153.788 145.296 153.343 145.106 152.941C144.916 152.539 144.683 152.183 144.407 151.873C144.135 151.565 143.826 151.311 143.48 151.111C143.144 150.918 142.84 150.818 142.568 150.811C142.3 150.807 142.069 150.895 141.875 151.076C141.685 151.259 141.538 151.535 141.434 151.905C141.33 152.275 141.277 152.74 141.277 153.299L141.277 153.906C141.277 154.469 141.33 154.999 141.434 155.493C141.538 155.984 141.687 156.434 141.881 156.842C142.079 157.249 142.312 157.605 142.58 157.91C142.852 158.218 143.156 158.469 143.491 158.662C143.841 158.865 144.152 158.969 144.424 158.975C144.696 158.982 144.925 158.893 145.112 158.708C145.302 158.52 145.445 158.24 145.542 157.865C145.639 157.487 145.687 157.016 145.687 156.452Z" fill="#090909"/>
<path d="M153.283 162.251L154.356 162.871C154.301 163.432 154.153 163.879 153.915 164.21C153.676 164.541 153.339 164.719 152.903 164.742C152.467 164.762 151.923 164.583 151.271 164.207C150.794 163.931 150.36 163.577 149.969 163.145C149.581 162.715 149.248 162.23 148.968 161.69C148.689 161.145 148.473 160.562 148.32 159.94C148.171 159.317 148.096 158.675 148.096 158.017L148.096 157.081C148.096 156.423 148.171 155.87 148.32 155.423C148.473 154.973 148.691 154.638 148.974 154.419C149.261 154.202 149.605 154.106 150.008 154.132C150.41 154.158 150.863 154.316 151.366 154.606C151.981 154.961 152.501 155.395 152.925 155.907C153.35 156.419 153.68 156.979 153.915 157.588C154.153 158.195 154.3 158.824 154.356 159.476L153.283 158.856C153.231 158.387 153.134 157.955 152.992 157.559C152.851 157.159 152.65 156.797 152.389 156.475C152.128 156.152 151.787 155.869 151.366 155.626C151.005 155.417 150.686 155.313 150.41 155.313C150.138 155.315 149.909 155.409 149.723 155.594C149.54 155.781 149.402 156.052 149.309 156.407C149.216 156.762 149.169 157.189 149.169 157.688L149.17 158.637C149.17 159.097 149.211 159.553 149.293 160.005C149.378 160.459 149.507 160.888 149.678 161.293C149.85 161.697 150.068 162.064 150.332 162.393C150.597 162.718 150.91 162.985 151.271 163.193C151.729 163.458 152.095 163.585 152.367 163.574C152.639 163.563 152.844 163.441 152.981 163.206C153.123 162.974 153.224 162.656 153.283 162.251Z" fill="#090909"/>
<path d="M160.996 168.68L160.997 169.693L156.687 167.205L156.687 166.191L160.996 168.68ZM156.905 157.934L156.905 167.331L155.826 166.708L155.826 157.311L156.905 157.934ZM160.426 164.007L160.426 165.02L156.687 162.861L156.687 161.848L160.426 164.007ZM160.94 160.264L160.94 161.283L156.687 158.827L156.687 157.808L160.94 160.264Z" fill="#090909"/>
<path d="M165.334 168.512L163.159 167.257L163.159 166.243L165.334 167.499C165.755 167.742 166.096 167.861 166.356 167.857C166.617 167.853 166.807 167.747 166.927 167.541C167.049 167.336 167.111 167.058 167.111 166.705C167.111 166.382 167.049 166.043 166.926 165.688C166.807 165.336 166.617 164.998 166.356 164.675C166.096 164.348 165.755 164.063 165.334 163.82L163.411 162.71L163.411 171.087L162.332 170.464L162.332 161.067L165.333 162.8C165.948 163.155 166.468 163.578 166.893 164.068C167.318 164.559 167.64 165.085 167.86 165.646C168.08 166.204 168.19 166.76 168.19 167.315C168.19 167.917 168.08 168.368 167.86 168.667C167.64 168.966 167.318 169.105 166.893 169.083C166.468 169.057 165.948 168.867 165.334 168.512Z" fill="#090909"/>
<path d="M172.454 171.913L170.392 170.723L170.381 169.716L172.253 170.797C172.562 170.975 172.833 171.071 173.064 171.084C173.295 171.097 173.473 171.028 173.6 170.878C173.731 170.725 173.796 170.491 173.796 170.177C173.796 169.833 173.738 169.52 173.622 169.238C173.511 168.954 173.337 168.695 173.103 168.461C172.872 168.224 172.577 168.002 172.219 167.796L170.632 166.879L170.632 175.257L169.554 174.634L169.553 165.237L172.219 166.776C172.637 167.017 173.009 167.282 173.337 167.57C173.665 167.854 173.943 168.165 174.17 168.503C174.401 168.838 174.576 169.197 174.696 169.58C174.815 169.963 174.874 170.374 174.874 170.813C174.874 171.2 174.789 171.502 174.617 171.717C174.446 171.928 174.207 172.044 173.902 172.065C173.6 172.089 173.246 172.011 172.84 171.833L172.454 171.913ZM172.404 176.28L169.967 174.873L170.576 174.211L172.404 175.266C172.747 175.464 173.038 175.563 173.276 175.563C173.518 175.565 173.703 175.478 173.829 175.302C173.956 175.121 174.019 174.859 174.019 174.515C174.019 174.166 173.965 173.834 173.857 173.517C173.749 173.201 173.58 172.907 173.349 172.636C173.118 172.365 172.82 172.124 172.454 171.913L170.917 171.026L170.928 170.032L173.03 171.246L173.259 171.739C173.65 172.004 173.982 172.324 174.254 172.701C174.526 173.073 174.733 173.468 174.875 173.885C175.02 174.305 175.093 174.717 175.093 175.121C175.093 175.706 174.981 176.137 174.757 176.412C174.537 176.685 174.226 176.811 173.824 176.79C173.421 176.764 172.948 176.594 172.404 176.28Z" fill="#090909"/>
<path d="M177.809 177.245L181.816 172.317L182.895 172.94L182.895 182.337L181.817 181.714L181.816 174.466L177.809 179.4L176.736 178.781L176.736 169.384L177.809 170.003L177.809 177.245Z" fill="#090909"/>
<path d="M189.77 183.318L190.843 183.938C190.787 184.499 190.64 184.946 190.402 185.277C190.163 185.608 189.826 185.786 189.39 185.81C188.954 185.829 188.41 185.65 187.758 185.274C187.281 184.998 186.847 184.645 186.456 184.212C186.068 183.782 185.735 183.297 185.455 182.757C185.176 182.212 184.959 181.629 184.807 181.008C184.658 180.384 184.583 179.743 184.583 179.084L184.583 178.148C184.583 177.49 184.658 176.937 184.807 176.49C184.959 176.04 185.177 175.706 185.46 175.486C185.747 175.269 186.092 175.173 186.494 175.199C186.897 175.225 187.35 175.383 187.853 175.673C188.467 176.028 188.987 176.462 189.412 176.974C189.837 177.486 190.167 178.046 190.401 178.655C190.64 179.262 190.787 179.891 190.843 180.543L189.77 179.923C189.718 179.454 189.621 179.022 189.479 178.626C189.338 178.226 189.136 177.865 188.875 177.542C188.615 177.219 188.274 176.936 187.853 176.693C187.491 176.484 187.173 176.38 186.897 176.38C186.625 176.382 186.396 176.476 186.209 176.661C186.027 176.848 185.889 177.119 185.796 177.474C185.703 177.829 185.656 178.256 185.656 178.755L185.656 179.704C185.656 180.164 185.697 180.62 185.779 181.072C185.865 181.526 185.993 181.955 186.165 182.36C186.336 182.764 186.554 183.131 186.819 183.46C187.083 183.785 187.396 184.052 187.758 184.261C188.216 184.525 188.581 184.652 188.853 184.641C189.125 184.631 189.33 184.508 189.468 184.273C189.61 184.041 189.71 183.723 189.77 183.318Z" fill="#090909"/>
<path d="M401.003 149.748L342.276 183.571C336.729 192.997 331.692 202.714 327.186 212.679L401.003 170.14V149.748Z" fill="#8EB780"/>
<path d="M276.096 221.703V242.15L321.771 215.803C324.632 208.83 328.89 198.857 334.166 188.243L276.096 221.703Z" fill="#FAFAFA"/>
<path d="M342.276 183.571L334.165 188.243C328.889 198.857 324.631 208.76 321.77 215.803L327.186 212.679C331.692 202.714 336.729 192.997 342.276 183.571Z" fill="white"/>
<path d="M100.779 131.589C100.884 130.397 100.714 129.198 100.28 128.083C99.8471 126.968 99.1629 125.968 98.2807 125.159C96.0611 122.914 94.0929 123.639 93.1576 124.364C92.8369 124.687 92.4062 124.878 91.951 124.899C91.4958 124.92 91.0495 124.769 90.7008 124.476C89.8772 124.015 65.7415 110.152 65.574 109.984C64.7142 109.231 64.0608 108.271 63.6756 107.195C62.955 105.602 61.9737 104.141 60.772 102.871C57.0309 99.4121 55.3558 101.476 55.3558 101.476C55.3558 101.476 58.4548 104.419 59.2086 105.312C59.9624 106.204 59.9624 107.181 59.5576 108.813C59.1527 110.445 58.4408 111.016 57.8266 110.486C56.7657 109.58 55.0347 107.836 54.2251 107.111L53.7226 106.595C53.4992 108.673 55.5931 111.756 56.7797 113.262C57.9662 114.768 59.6832 116.4 61.0931 116.149C61.8344 116.067 62.5344 115.766 63.1032 115.284C63.3093 114.969 63.6143 114.73 63.9705 114.607C64.3268 114.483 64.714 114.481 65.0715 114.601C65.3646 114.74 90.5333 129.05 90.6589 129.134C91.416 129.781 91.9931 130.612 92.334 131.547C93.1125 133.373 94.3835 134.947 96.0053 136.094C97.1081 136.847 98.8949 137.586 99.4812 136.233C99.3766 136.097 99.2648 135.967 99.1461 135.843L96.438 133.165C96.1448 132.682 95.9637 132.139 95.9081 131.576C95.8526 131.014 95.9239 130.446 96.117 129.915C96.5358 128.52 97.0104 128.297 97.5129 128.674C98.518 129.413 100.779 131.589 100.779 131.589Z" fill="#FAFAFA"/>
<path d="M97.4025 122.732C95.2528 120.57 93.9964 121.017 93.103 121.728C92.7936 122.037 92.3794 122.218 91.9425 122.236C91.5056 122.254 91.0779 122.108 90.7439 121.826C89.9482 121.379 66.6641 108.018 66.4547 107.878C65.6193 107.12 64.9942 106.159 64.64 105.089C63.9492 103.548 63.0056 102.134 61.8482 100.904C60.9776 99.9792 59.8577 99.3253 58.6235 99.0215L57.3812 99.7329L57.0741 99.956C57.8977 100.723 59.6147 102.383 60.3405 103.234C61.0664 104.084 61.0804 105.047 60.6895 106.623C60.2987 108.199 59.6007 108.743 59.0144 108.227C57.9954 107.362 56.2225 105.674 55.5525 104.977C55.3571 104.796 55.0639 104.489 55.0639 104.489C54.8406 106.483 56.8647 109.454 57.9954 110.905C59.1261 112.355 60.7872 113.945 62.1832 113.694H62.4205V113.108L63.8164 112.537L64.2352 112.788C64.4328 112.519 64.7128 112.322 65.0327 112.226C65.3526 112.13 65.695 112.141 66.008 112.258C66.2872 112.369 90.5764 126.205 90.702 126.205C91.4218 126.842 91.9732 127.647 92.3074 128.548C92.7011 129.343 93.1684 130.1 93.7033 130.808C93.3264 129.622 92.5726 127.084 92.9355 126.526C93.2985 125.968 95.7274 125.34 95.7274 125.34L96.4812 125.898C96.5219 125.826 96.5787 125.764 96.6472 125.717C96.7156 125.67 96.794 125.639 96.8761 125.627C96.9583 125.615 97.0422 125.622 97.1214 125.647C97.2005 125.672 97.2728 125.715 97.3327 125.773C97.6398 125.996 97.9748 126.289 98.3238 126.596L99.7197 125.801C99.121 124.658 98.3381 123.621 97.4025 122.732Z" fill="#D9DAE2"/>
<path d="M58.5953 99.0774H58.3719C57.8885 99.0114 57.3969 99.1097 56.976 99.3565L55.8174 100.013L56.6549 100.362L57.0598 100.055L57.3669 99.8312L58.5953 99.0774Z" fill="#CCCCCC"/>
<path d="M63.7885 112.551L62.3926 113.122V113.708V113.987L63.621 113.318C63.7919 113.221 63.9472 113.098 64.0817 112.955L64.2073 112.843L63.7885 112.551Z" fill="#2B5B7F"/>
<path d="M55.0354 104.545L53.7791 105.27C53.7791 105.27 56.3476 108.98 57.4085 109.454C58.4694 109.929 59.0836 108.408 59.0836 108.408L55.0354 104.545Z" fill="#CCCCCC"/>
<path d="M93.6052 121.393L92.3489 122.119L93.2423 122.049L93.6052 121.393Z" fill="#D9DAE2"/>
<path d="M96.2433 130.166L94.0657 131.421C94.5828 132.041 95.1842 132.586 95.8525 133.039C96.4492 133.475 97.1362 133.77 97.8626 133.904H97.9603L99.2167 133.193C99.121 133.058 99.0136 132.932 98.8956 132.816C98.2954 132.203 96.9413 130.877 96.2433 130.166Z" fill="#B4DBFF"/>
<path d="M95.9223 127.028C96.0207 126.648 96.1862 126.289 96.4109 125.968L95.6571 125.41C95.6571 125.41 93.3399 125.856 92.8653 126.596C92.3906 127.335 93.2561 129.692 93.633 130.878C93.7726 131.045 93.8982 131.212 94.0378 131.366L96.2155 130.111C95.9499 129.647 95.7864 129.133 95.7358 128.601C95.6853 128.069 95.7489 127.533 95.9223 127.028Z" fill="#CCCCCC"/>
<path d="M99.6496 125.87L98.2536 126.665L97.9465 126.847L99.2029 129.413L100.459 128.688C100.374 127.705 100.099 126.748 99.6496 125.87Z" fill="#CCCCCC"/>
<path d="M97.9189 133.849L97.4023 134.421L98.6028 133.737C98.8477 133.605 99.0399 133.394 99.1473 133.137L97.9189 133.849Z" fill="#2B5B7F"/>
<path d="M94.7364 122.858C95.815 123.582 96.7401 124.511 97.4587 125.593C98.1772 126.675 98.6753 127.888 98.9242 129.162L99.2174 129.413C98.942 127.127 97.8577 125.015 96.1603 123.458C94.0106 121.296 92.7542 121.742 91.8608 122.453C91.5514 122.762 91.1372 122.943 90.7003 122.961C90.2634 122.979 89.8357 122.833 89.5017 122.551C88.706 122.105 65.4219 108.729 65.2125 108.603C64.3907 107.862 63.7669 106.927 63.3978 105.884C62.707 104.343 61.7634 102.929 60.606 101.7C57.0045 98.3661 55.3852 100.305 55.3852 100.305L55.8319 100.723L56.0134 100.626C57.9677 99.97 59.8522 101.128 61.9321 104.238C63.0834 106.176 63.4902 108.466 63.0768 110.682C62.7278 113.081 61.4575 113.987 59.6707 113.318C58.2748 112.774 56.4321 110.598 55.106 108.255C54.6244 107.502 54.3499 106.636 54.3103 105.744L53.8217 105.256C53.5984 107.251 55.6225 110.221 56.7532 111.672C57.8839 113.122 59.5451 114.712 60.941 114.461C61.6572 114.383 62.3333 114.092 62.8813 113.625C63.0788 113.323 63.3708 113.094 63.7117 112.976C64.0527 112.857 64.4234 112.855 64.7658 112.969C65.059 113.095 89.3482 126.916 89.4598 126.986C90.1934 127.614 90.7513 128.422 91.0791 129.329C91.8295 131.083 93.052 132.594 94.6108 133.695C95.6857 134.434 97.4027 135.09 97.975 133.848C97.8773 133.711 97.77 133.58 97.654 133.458C97.4864 133.793 96.9979 134.406 95.7834 133.751C94.1152 132.871 92.7706 131.484 91.9446 129.79C90.9116 127.628 90.5487 125.452 91.456 123.946C92.0004 122.941 93.173 121.77 94.7364 122.858Z" fill="#EFF0F9"/>
<path d="M94.7351 122.858C93.1716 121.77 91.9432 122.941 91.3988 123.96C90.5194 125.466 90.8544 127.642 91.8874 129.804C92.7134 131.498 94.058 132.886 95.7262 133.765C96.9407 134.421 97.4292 133.765 97.5967 133.472C97.0384 132.928 95.6843 131.603 94.9864 130.892C94.7007 130.426 94.5235 129.902 94.4679 129.359C94.4124 128.816 94.4798 128.267 94.6653 127.753C95.0701 126.359 95.5308 126.205 96.0612 126.568C97.0384 127.307 98.5041 128.716 98.9648 129.162C98.7108 127.885 98.2062 126.67 97.4803 125.588C96.7544 124.506 95.8214 123.578 94.7351 122.858Z" fill="white"/>
<path d="M55.0633 108.269C56.3894 110.612 58.1622 112.788 59.6279 113.332C61.4147 114.002 62.685 113.095 63.034 110.696C63.4475 108.48 63.0406 106.19 61.8894 104.252C59.8094 101.141 57.9249 99.9838 55.9706 100.639L55.7891 100.737C56.5988 101.504 58.3297 103.15 59.0556 104.015C59.7815 104.88 59.7955 105.828 59.4046 107.404C59.0137 108.98 58.3158 109.524 57.7295 109.008C56.7105 108.143 54.9376 106.456 54.2676 105.758C54.3072 106.65 54.5816 107.517 55.0633 108.269Z" fill="white"/>
<path d="M87.0298 121.952L67.403 110.64C66.8167 110.291 66.3281 110.64 66.3281 111.435C66.3356 111.836 66.4382 112.23 66.6274 112.584C66.8167 112.938 67.0873 113.242 67.4169 113.471L87.0298 124.797C87.63 125.146 88.1186 124.797 88.1046 124.002C88.0976 123.6 87.9968 123.206 87.8102 122.85C87.6236 122.494 87.3564 122.186 87.0298 121.952Z" fill="white"/>
<path d="M252.587 218.83C252.696 217.64 252.528 216.44 252.097 215.325C251.666 214.21 250.984 213.209 250.102 212.4C247.869 210.169 245.914 210.88 244.965 211.619C244.641 211.938 244.21 212.124 243.756 212.142C243.301 212.16 242.857 212.009 242.508 211.717C241.699 211.257 217.563 197.407 217.382 197.239C216.54 196.473 215.893 195.517 215.497 194.45C214.777 192.85 213.79 191.383 212.58 190.112C208.839 186.667 207.163 188.718 207.163 188.718C207.163 188.718 210.262 191.66 211.016 192.553C211.77 193.446 211.784 194.422 211.379 196.068C210.974 197.714 210.248 198.258 209.634 197.728C208.587 196.835 206.842 195.078 206.047 194.366L205.544 193.85C205.321 195.928 207.415 198.997 208.587 200.503C209.76 202.009 211.505 203.655 212.915 203.39C213.655 203.306 214.355 203.005 214.925 202.526C215.129 202.212 215.432 201.975 215.786 201.854C216.141 201.733 216.525 201.733 216.879 201.856C217.186 201.982 242.355 216.292 242.48 216.375C243.234 217.031 243.81 217.866 244.156 218.802C244.934 220.621 246.199 222.189 247.813 223.335C248.93 224.088 250.702 224.828 251.303 223.489C251.2 223.347 251.088 223.212 250.968 223.084C250.381 222.526 248.985 221.145 248.26 220.406C247.964 219.924 247.781 219.382 247.723 218.819C247.665 218.257 247.734 217.689 247.925 217.156C248.357 215.762 248.818 215.552 249.32 215.929C250.284 216.654 252.587 218.83 252.587 218.83Z" fill="#FAFAFA"/>
<path d="M249.279 209.974C247.129 207.826 245.873 208.258 244.993 208.969C244.681 209.279 244.265 209.461 243.826 209.479C243.386 209.497 242.956 209.35 242.62 209.067C241.838 208.621 218.554 195.259 218.345 195.119C217.521 194.383 216.892 193.453 216.516 192.414C215.826 190.873 214.882 189.459 213.724 188.229C212.854 187.304 211.734 186.65 210.5 186.347L209.257 187.058L208.95 187.281C209.774 188.062 211.491 189.708 212.217 190.573C212.943 191.437 212.957 192.372 212.552 193.948C212.147 195.524 211.477 196.068 210.891 195.566C209.872 194.687 208.099 192.999 207.415 192.316L206.926 191.814C206.717 193.822 208.741 196.779 209.872 198.244C211.002 199.708 212.663 201.27 214.059 201.033H214.283V200.447L215.679 199.876L216.083 200.127C216.287 199.865 216.567 199.673 216.885 199.578C217.203 199.483 217.542 199.489 217.856 199.597C218.149 199.722 242.425 213.544 242.55 213.544C243.282 214.168 243.84 214.97 244.17 215.873C244.563 216.668 245.031 217.425 245.566 218.133C245.189 216.947 244.435 214.409 244.798 213.851C245.161 213.293 247.59 212.665 247.59 212.665L248.329 213.223C248.372 213.151 248.43 213.089 248.5 213.041C248.569 212.994 248.649 212.964 248.732 212.952C248.815 212.94 248.9 212.947 248.98 212.972C249.06 212.997 249.134 213.04 249.195 213.098L250.186 213.935L251.582 213.126C251.006 211.948 250.226 210.881 249.279 209.974Z" fill="#D9DAE2"/>
<path d="M210.416 186.319H210.192C209.709 186.267 209.222 186.364 208.796 186.598L207.624 187.268L208.461 187.603L208.88 187.296L209.187 187.072L210.416 186.319Z" fill="#CCCCCC"/>
<path d="M215.61 199.792L214.214 200.364V200.949V201.228L215.372 200.559C215.541 200.458 215.696 200.336 215.833 200.196C215.833 200.196 215.917 200.196 215.945 200.085L215.61 199.792Z" fill="#2B5B7F"/>
<path d="M206.843 191.786L205.587 192.511C205.587 192.511 208.169 196.221 209.216 196.696C210.263 197.17 210.905 195.65 210.905 195.65L206.843 191.786Z" fill="#CCCCCC"/>
<path d="M245.412 208.635L244.17 209.36L245.063 209.291L245.412 208.635Z" fill="#D9DAE2"/>
<path d="M248.064 217.407L245.887 218.677C246.405 219.296 247.006 219.84 247.674 220.295C248.272 220.727 248.958 221.022 249.684 221.159H249.781L251.038 220.434C250.937 220.303 250.83 220.177 250.717 220.058C250.102 219.444 248.762 218.119 248.064 217.407Z" fill="#B4DBFF"/>
<path d="M247.744 214.269C247.842 213.892 248.002 213.534 248.219 213.209L247.479 212.651C247.479 212.651 245.148 213.112 244.687 213.837C244.226 214.562 245.078 216.933 245.455 218.119L245.86 218.621L248.037 217.352C247.768 216.89 247.603 216.375 247.552 215.843C247.501 215.311 247.567 214.774 247.744 214.269Z" fill="#CCCCCC"/>
<path d="M251.457 213.112L250.061 213.921L249.754 214.102L251.01 216.654L252.267 215.929C252.176 214.948 251.901 213.992 251.457 213.112Z" fill="#CCCCCC"/>
<path d="M249.74 221.104L249.223 221.69L250.424 220.992C250.672 220.864 250.865 220.651 250.968 220.392L249.74 221.104Z" fill="#2B5B7F"/>
<path d="M246.558 210.113C247.636 210.835 248.56 211.762 249.279 212.841C249.998 213.921 250.496 215.131 250.746 216.403C250.837 216.495 250.935 216.579 251.039 216.654C250.751 214.369 249.663 212.26 247.968 210.699C245.818 208.551 244.562 208.983 243.683 209.695C243.371 210.004 242.954 210.186 242.515 210.204C242.076 210.222 241.646 210.075 241.31 209.792C240.528 209.346 217.244 195.984 217.034 195.845C216.193 195.089 215.563 194.128 215.206 193.055C214.52 191.512 213.576 190.097 212.414 188.871C208.798 185.538 207.193 187.476 207.193 187.476L207.626 187.895C207.688 187.861 207.754 187.833 207.821 187.811C209.776 187.142 211.66 188.299 213.726 191.409C214.888 193.343 215.3 195.636 214.885 197.853C214.522 200.266 213.251 201.159 211.479 200.503C209.999 199.945 208.24 197.714 206.9 195.426C206.428 194.67 206.154 193.806 206.104 192.916C205.909 192.734 205.616 192.428 205.616 192.428C205.406 194.436 207.43 197.393 208.561 198.857C209.692 200.322 211.353 201.884 212.749 201.647C213.461 201.57 214.133 201.278 214.675 200.81C215.303 200.127 215.946 199.889 216.574 200.168C216.867 200.294 241.142 214.116 241.268 214.116C241.996 214.748 242.553 215.554 242.887 216.459C243.642 218.214 244.863 219.728 246.419 220.839C247.494 221.564 249.211 222.233 249.783 220.978C249.683 220.847 249.575 220.721 249.462 220.601C249.294 220.922 248.792 221.536 247.591 220.88C245.924 220.006 244.579 218.623 243.752 216.933C242.719 214.757 242.357 212.582 243.264 211.075C243.808 210.183 244.981 209.011 246.558 210.113Z" fill="#EFF0F9"/>
<path d="M246.557 210.113C244.979 209.011 243.765 210.113 243.22 211.201C242.341 212.707 242.676 214.883 243.709 217.059C244.536 218.749 245.88 220.132 247.548 221.006C248.748 221.662 249.251 221.006 249.418 220.727L246.794 218.133C246.511 217.666 246.336 217.142 246.283 216.599C246.23 216.056 246.299 215.507 246.487 214.995C246.892 213.6 247.338 213.447 247.883 213.809C248.86 214.562 250.312 215.957 250.786 216.403C250.531 215.128 250.026 213.916 249.3 212.836C248.574 211.756 247.642 210.831 246.557 210.113Z" fill="white"/>
<path d="M206.871 195.51C208.267 197.854 209.97 200.029 211.45 200.587C213.222 201.243 214.493 200.35 214.856 197.937C215.271 195.72 214.859 193.427 213.697 191.493C211.631 188.383 209.746 187.225 207.792 187.895C207.725 187.917 207.659 187.945 207.597 187.978C208.42 188.745 210.151 190.405 210.877 191.27C211.603 192.135 211.603 193.069 211.212 194.645C210.821 196.222 210.137 196.766 209.537 196.263C208.532 195.385 206.745 193.697 206.075 193C206.125 193.89 206.398 194.754 206.871 195.51Z" fill="white"/>
<path d="M238.851 209.207L219.224 197.881C218.624 197.532 218.149 197.881 218.149 198.676C218.158 199.078 218.259 199.472 218.445 199.828C218.632 200.183 218.899 200.491 219.224 200.726L238.851 212.052C239.451 212.387 239.926 212.052 239.926 211.243C239.918 210.844 239.816 210.451 239.63 210.098C239.443 209.744 239.177 209.439 238.851 209.207Z" fill="white"/>
<path d="M92.8372 187.058L75.9883 177.392V138.242L92.8372 147.921V187.058Z" fill="#2B5B7F"/>
<path d="M91.887 186.542L76.6853 177.769V139.595L91.887 148.368V186.542Z" fill="#8EB780"/>
<path d="M83.582 145.787L78.459 142.761V154.17L83.582 157.197V145.787Z" fill="#527A45"/>
<path d="M85.0762 146.582V157.992L90.1015 160.893V149.497L85.0762 146.582Z" fill="#527A45"/>
<path d="M83.582 158.856L78.459 155.829V176.877L83.582 179.904V158.856Z" fill="#527A45"/>
<path d="M85.0762 159.651V180.699L90.1015 183.614V162.552L85.0762 159.651Z" fill="#527A45"/>
<path d="M100.096 175.329L95.2803 172.553V158.633L100.096 161.409V175.329Z" fill="#2B5B7F"/>
<path d="M66.9009 152.733C66.9009 154.658 64.5139 154.84 61.5685 153.138C58.6231 151.436 56.25 148.507 56.25 146.596C56.25 144.685 58.637 144.49 61.5685 146.192C64.4999 147.893 66.9009 150.809 66.9009 152.733Z" fill="#CCCCCC"/>
<path d="M57.898 147.447C57.898 146.568 58.2749 146.275 58.8054 146.596C59.1092 146.807 59.3536 147.092 59.515 147.424C59.6764 147.756 59.7493 148.125 59.7267 148.493C59.7267 149.372 59.3498 149.693 58.8054 149.372C58.5038 149.154 58.2625 148.863 58.1038 148.526C57.9452 148.19 57.8744 147.818 57.898 147.447ZM59.2939 148.228C59.3175 148.02 59.2891 147.809 59.2111 147.614C59.1332 147.419 59.0082 147.247 58.8472 147.112C58.582 146.959 58.4005 147.182 58.4005 147.712C58.3828 147.924 58.4138 148.137 58.4912 148.336C58.5686 148.534 58.6904 148.712 58.8472 148.856C59.0846 149.009 59.2521 148.772 59.2521 148.186L59.2939 148.228Z" fill="white"/>
<path d="M60.1025 147.391L60.8284 147.81C61.0887 147.932 61.3048 148.132 61.4472 148.381C61.5897 148.631 61.6514 148.918 61.6241 149.205C61.6241 149.832 61.2612 149.902 60.8284 149.651L60.5632 149.497V150.404L60.1025 150.139V147.391ZM60.8005 149.079C61.0518 149.232 61.1774 149.149 61.1774 148.87C61.1804 148.744 61.1463 148.62 61.0793 148.513C61.0122 148.407 60.9153 148.322 60.8005 148.27L60.5632 148.131V148.94L60.8005 149.079Z" fill="white"/>
<path d="M61.9727 148.465L63.229 149.191V149.707L62.4194 149.232V149.776L63.1034 150.167V150.683L62.4194 150.278V150.976L63.2569 151.45V151.966L61.9727 151.213V148.465Z" fill="white"/>
<path d="M63.6208 149.442L64.0955 149.707L64.612 151.338L64.8214 152.05C64.8214 151.757 64.8214 151.352 64.8214 151.046V150.097L65.2541 150.348V153.026L64.7934 152.761L64.263 151.115L64.0675 150.418C64.0675 150.725 64.0675 151.101 64.0675 151.422V152.371L63.6208 152.12V149.442Z" fill="white"/>
<path d="M349.366 154.63L351.712 153.235L278.272 110.793L253.033 125.717L255.392 127.084L278.272 113.541L349.366 154.63Z" fill="#FAFAFA"/>
<path d="M345.584 156.862L349.367 154.63L278.272 113.541L255.393 127.084L263.224 131.603L282.264 120.263L345.584 156.862Z" fill="#2B5B7F"/>
<path d="M345.585 156.862L282.265 120.264L263.225 131.603L326.474 168.159L345.585 156.862Z" fill="#006199"/>
<path d="M306.554 119.162L263.225 144.169V147.182L306.554 122.188V119.162Z" fill="#CCCCCC"/>
<path d="M332.504 134.309L288.002 159.972V162.998L332.504 137.335V134.309Z" fill="#CCCCCC"/>
<path d="M302.268 127.391L279.095 140.781L276.694 139.386L302.268 124.629V127.391Z" fill="#FAFAFA"/>
<path d="M328.33 142.496L305.185 155.858L302.784 154.463L328.33 139.72V142.496Z" fill="#FAFAFA"/>
<path d="M309.164 177.853L311.509 176.472L238.069 134.03L212.845 148.953L215.19 150.306L238.069 136.777L309.164 177.853Z" fill="#FAFAFA"/>
<path d="M305.382 180.098L309.165 177.852L238.07 136.777L215.191 150.306L223.022 154.839L242.062 143.5L305.382 180.098Z" fill="#2B5B7F"/>
<path d="M305.38 180.098L242.061 143.5L223.021 154.839L286.27 191.395L305.38 180.098Z" fill="#006199"/>
<path d="M266.35 142.398L223.021 167.406V170.418L266.35 145.425V142.398Z" fill="#CCCCCC"/>
<path d="M292.301 157.545L247.799 183.208V186.235L292.301 160.558V157.545Z" fill="#CCCCCC"/>
<path d="M262.065 150.627L238.893 164.017L236.492 162.622L262.065 147.865V150.627Z" fill="#FAFAFA"/>
<path d="M288.129 165.732L264.984 179.094L262.583 177.7L288.129 162.957V165.732Z" fill="#FAFAFA"/>
<path opacity="0.6" d="M159.884 312.579C156.436 308.255 150.671 307.892 145.743 308.143C140.16 308.436 138.205 308.952 136.265 307.85C134.325 306.749 84.2248 277.822 79.8276 275.283C77.5523 273.972 76.0726 273.093 75.919 272.968C75.1652 272.368 74.3695 271.308 75.0814 268.784C75.3888 267.686 75.4289 266.531 75.1982 265.415C74.9675 264.299 74.4727 263.254 73.7553 262.368C68.1716 256.37 59.0282 257.528 59.0282 257.528L59.7123 258.267C61.3861 260.052 62.9126 261.969 64.2769 264C65.0726 265.506 63.2439 266.468 58.9026 267.961C54.1146 269.607 51.2669 269.607 50.2618 268.672C48.5588 267.054 46.074 264.083 44.9992 262.856C44.72 262.521 44.3291 262.005 44.3291 262.005C39.7784 264.083 40.7974 268.658 41.7746 270.987C42.7517 273.317 45.2783 276.148 50.2758 276.734C52.9384 277.111 55.6327 277.213 58.3163 277.041C60.8272 276.598 63.4079 276.765 65.8404 277.529C66.2312 277.71 68.9114 279.188 72.6525 281.281C77.3708 283.931 126.173 311.965 126.41 312.132C128.127 313.206 127.736 314.922 127.415 316.317C126.48 320.264 128.811 322.76 131.254 324.476C133.053 325.731 135.085 326.612 137.231 327.067C139.378 327.522 141.593 327.542 143.747 327.126C143.659 326.864 143.527 326.618 143.356 326.401C142.421 325.299 140.23 322.621 139.169 321.198C138.303 320.096 141.053 318.158 144.878 317.014C149.373 315.619 151.564 315.619 152.584 316.484C154.517 318.141 156.31 319.956 157.944 321.909C158.128 322.098 158.324 322.275 158.53 322.439C158.53 322.439 164.658 318.548 159.884 312.579Z" fill="#527A45"/>
<path opacity="0.6" d="M173.453 296.958C171.694 295.939 166.85 294.001 165.245 293.359L164.058 292.704C150.518 285.102 125.307 270.555 105.429 259.007C105.638 257.793 104.843 256.468 103.112 255.464L65.7288 233.776C64.2725 232.961 62.6456 232.497 60.9781 232.422C59.3106 232.347 57.6486 232.662 56.1248 233.343C53.668 234.738 53.989 237.262 56.8228 238.922L94.122 260.597C95.5441 261.387 97.1269 261.845 98.7515 261.937C100.376 262.029 102 261.752 103.503 261.127L161.406 294.531L161.839 294.782C163.542 295.967 166.655 298.827 168.413 299.845C170.535 301.072 176.245 305.005 176.245 305.005L181.256 302.118C181.256 302.118 175.575 298.185 173.453 296.958Z" fill="#527A45"/>
<path d="M56.8515 235.464C56.478 234.715 56.2958 233.886 56.3211 233.051C56.3405 231.471 56.7293 229.919 57.4564 228.516C58.1836 227.114 59.2289 225.901 60.5089 224.975C61.1529 224.545 61.9396 224.385 62.7005 224.528C61.435 223.92 59.9866 223.81 58.6439 224.221C57.3012 224.632 56.1628 225.534 55.4556 226.746L54.6041 228.225C54.2365 228.86 53.998 229.562 53.9022 230.289C53.8064 231.017 53.8552 231.756 54.0458 232.465C54.2364 233.174 54.5651 233.838 55.013 234.419C55.461 235.001 56.0193 235.489 56.6561 235.854L57.4238 236.314C57.1783 236.072 56.9837 235.783 56.8515 235.464Z" fill="#CCCCCC"/>
<path d="M63.6909 225.017C64.0815 225.438 64.3809 225.936 64.5706 226.478C64.7604 227.02 64.8363 227.596 64.7937 228.169C64.7743 229.748 64.3855 231.301 63.6583 232.703C62.9312 234.105 61.8859 235.318 60.6059 236.245C60.2735 236.468 59.8987 236.62 59.5048 236.692C59.1109 236.764 58.7065 236.754 58.3166 236.663C58.2189 236.663 57.8838 236.51 57.7861 236.482L58.7772 237.026L85.635 252.522C87.5893 248.7 89.2923 244.697 91.093 240.792L63.6909 225.017Z" fill="#FAFAFA"/>
<path d="M63.6915 225.017C63.4198 224.779 63.0938 224.611 62.7422 224.528C62.8759 224.576 63.0065 224.632 63.133 224.696L63.6915 225.017Z" fill="#CCCCCC"/>
<path d="M60.6209 224.975C59.3409 225.901 58.2956 227.114 57.5685 228.516C56.8413 229.919 56.4525 231.471 56.4331 233.051C56.3549 233.688 56.4423 234.334 56.6868 234.928C56.9312 235.522 57.3246 236.042 57.829 236.44C58.2808 236.672 58.7873 236.776 59.294 236.742C59.8007 236.707 60.2884 236.536 60.7046 236.245C61.9846 235.318 63.0299 234.105 63.757 232.703C64.4842 231.301 64.873 229.748 64.8924 228.169C64.935 227.596 64.8591 227.02 64.6693 226.478C64.4796 225.936 64.1802 225.438 63.7896 225.017L63.2312 224.696C63.1047 224.632 62.9741 224.576 62.8404 224.528C62.0706 224.377 61.2723 224.538 60.6209 224.975Z" fill="#FAFAFA"/>
<path d="M92.7271 244.292C92.711 245.874 92.3237 247.43 91.5964 248.835C90.869 250.24 89.822 251.455 88.5394 252.382C86.2082 253.777 84.3516 252.298 84.3516 249.174C84.3721 247.595 84.7613 246.043 85.4884 244.64C86.2155 243.238 87.2602 242.025 88.5394 241.098C90.8008 239.745 92.7271 241.182 92.7271 244.292Z" fill="#CCCCCC"/>
<path d="M91.0371 240.791C94.0942 242.479 93.9685 243.734 98.4216 245.059C100.488 245.673 96.9279 252.033 93.0193 256.678C88.9013 252.772 88.2871 254.042 85.9001 252.703C83.9737 251.615 88.2453 239.257 91.0371 240.791Z" fill="#CCCCCC"/>
<path d="M100.321 248.574C100.301 250.153 99.9124 251.706 99.1853 253.108C98.4581 254.51 97.4128 255.723 96.1329 256.65C93.8017 258.045 91.9451 256.566 91.9451 253.456C91.9645 251.877 92.3533 250.324 93.0805 248.922C93.8076 247.519 94.8529 246.306 96.1329 245.38C98.4222 244.083 100.321 245.478 100.321 248.574Z" fill="#FAFAFA"/>
<path d="M94.2628 257.445L93.1182 256.748L98.66 245.059L99.8047 245.743L94.2628 257.445Z" fill="#FAFAFA"/>
<path d="M101.326 249.202C101.308 250.781 100.919 252.334 100.192 253.737C99.4649 255.139 98.419 256.352 97.1382 257.278C94.807 258.672 92.9504 257.194 92.9504 254.084C92.9699 252.502 93.3586 250.948 94.0857 249.543C94.8127 248.139 95.858 246.923 97.1382 245.994C99.4415 244.655 101.326 246.077 101.326 249.202Z" fill="#CCCCCC"/>
<path d="M175.923 295.842C174.527 295.033 170.661 293.485 169.376 292.983L168.441 292.466L96.3831 252.019V253.595L166.347 293.959C166.462 294.018 166.574 294.083 166.682 294.154C168.078 295.103 170.535 297.376 171.931 298.185C173.62 299.161 178.171 301.351 178.171 301.351L182.149 299.05C182.149 299.05 177.612 296.818 175.923 295.842Z" fill="#B4DBFF"/>
<path d="M175.924 294.294C174.528 293.485 170.661 291.936 169.377 291.42C169.377 291.42 168.665 291.044 168.442 290.904C148.899 279.914 98.645 250.652 98.645 250.652L96.4395 252.047L166.403 292.397L166.738 292.606C168.134 293.554 170.591 295.828 171.987 296.637C173.676 297.613 178.227 300.737 178.227 300.737L182.205 298.436C182.205 298.436 177.613 295.242 175.924 294.294Z" fill="#EFF0F9"/>
<path d="M178.171 300.668V301.309L182.149 299.008V298.366L178.171 300.668Z" fill="#2B5B7F"/>
<path d="M82.3963 240.652C81.5727 242.047 76.8125 240.917 71.8849 238.044C66.9573 235.171 63.5093 231.684 64.3608 230.247C65.2123 228.81 69.9445 229.996 74.8722 232.869C79.7998 235.742 83.2199 239.229 82.3963 240.652Z" fill="#8EB780"/>
<path d="M74.8862 265.004V261.977L73.0156 262.396L73.3786 265.785L74.8862 265.004Z" fill="#2B5B7F"/>
<path d="M157.777 309.636C154.636 305.703 149.402 305.368 144.907 305.605C139.867 305.87 138.039 306.33 136.266 305.326C133.181 303.583 89.1394 278.24 79.0328 272.382C76.9668 271.183 75.6128 270.388 75.4732 270.262C74.7753 269.718 74.0773 268.756 74.7054 266.468C74.9846 265.469 75.0213 264.418 74.8125 263.401C74.6037 262.385 74.1555 261.433 73.505 260.624C71.2265 258.34 68.2584 256.87 65.0595 256.44L66.8324 264.586L64.9898 262.912C64.8223 263.874 63.1471 264.669 59.9784 265.701C55.6231 267.208 52.9987 267.208 52.1053 266.343C50.5698 264.878 48.2526 262.159 47.3173 261.057L46.7031 260.276C42.5153 262.173 43.4924 266.329 44.3718 268.463C45.0677 269.954 46.1561 271.229 47.5207 272.15C48.8853 273.071 50.4748 273.605 52.1193 273.693C54.5416 274.036 56.9926 274.129 59.4339 273.972C61.721 273.563 64.0735 273.716 66.288 274.418C66.6509 274.586 69.0798 275.925 72.4859 277.836C84.8678 284.809 126.927 308.994 127.318 309.231C128.881 310.208 128.519 311.798 128.239 313.011C127.388 316.596 129.468 318.869 131.729 320.431C133.367 321.574 135.218 322.376 137.173 322.791C139.127 323.205 141.145 323.223 143.106 322.844C143.027 322.608 142.909 322.386 142.757 322.188C141.906 321.17 139.895 318.73 138.876 317.446C138.081 316.442 140.593 314.657 144.069 313.611C148.159 312.342 150.155 312.383 151.049 313.123C152.807 314.64 154.441 316.296 155.935 318.074C156.075 318.228 156.229 318.368 156.395 318.492V316.233L159.034 311.826C158.735 311.033 158.31 310.294 157.777 309.636Z" fill="#B4DBFF"/>
<path d="M66.7913 264.502L65.0185 256.357L64.8091 255.241L60.0908 253.72V256.217C61.7942 258.086 63.3883 260.051 64.8649 262.103C64.9987 262.335 65.0433 262.608 64.9906 262.87L66.7913 264.502Z" fill="#2B5B7F"/>
<path d="M159.048 311.798L156.409 316.205V318.465C157.813 317.513 158.809 316.07 159.201 314.42V313.025V311.17L159.048 311.798Z" fill="#2B5B7F"/>
<path d="M128.016 311.867V315.145L130.165 315.578L130.738 312.495L128.016 311.867Z" fill="#B4DBFF"/>
<path d="M43.5889 262.8V263.372L43.575 265.199L49.8566 271.811L51.3642 268.365L43.5889 262.8Z" fill="#B4DBFF"/>
<path d="M143.079 320.32V322.816L139.128 321.979L138.626 319.246L143.079 320.32Z" fill="#B4DBFF"/>
<path d="M157.777 307.097C154.636 303.164 149.402 302.843 144.907 303.08C139.867 303.332 138.039 303.806 136.266 302.802C133.181 301.058 89.1394 275.702 79.0328 269.844C76.9668 268.644 75.6128 267.849 75.4732 267.738C74.7753 267.18 74.0773 266.217 74.7054 263.944C74.9857 262.945 75.023 261.893 74.8142 260.877C74.6054 259.86 74.1565 258.908 73.505 258.1C68.4098 252.633 60.09 253.679 60.09 253.679L60.7042 254.362H61.4301C68.4935 254.836 72.1788 257.152 73.0164 261.433C73.6027 264.516 68.8286 267.11 65.2131 268.602C60.5268 270.76 55.183 271.005 50.3185 269.286C48.7824 268.671 47.4773 267.591 46.5861 266.198C45.695 264.805 45.2624 263.168 45.349 261.517C45.3814 260.89 45.5809 260.282 45.9269 259.757C46.273 259.233 46.7529 258.81 47.3173 258.532C47.066 258.225 46.7031 257.737 46.7031 257.737C42.5153 259.634 43.4924 263.804 44.3718 265.924C45.0645 267.419 46.1517 268.698 47.5167 269.621C48.8817 270.545 50.4729 271.08 52.1193 271.169C54.5422 271.505 56.993 271.594 59.4339 271.434C61.702 271.079 64.022 271.265 66.2042 271.978C66.5532 272.131 68.9961 273.484 72.3882 275.395C84.7701 282.369 126.829 306.553 127.22 306.79C128.784 307.781 128.421 309.357 128.142 310.57C127.29 314.169 129.37 316.442 131.631 318.004C133.271 319.144 135.122 319.944 137.076 320.356C139.031 320.769 141.048 320.784 143.008 320.403C142.931 320.171 142.812 319.953 142.659 319.762C140.274 320.281 137.782 319.956 135.61 318.841C131.869 316.819 129.565 314.364 130.194 311.7C130.961 308.492 134.172 305.758 140.244 304.601C144.348 303.82 150.77 303.206 154.022 305.563C158.419 308.701 159.438 312.007 155.879 315.633C156.041 315.806 156.214 315.969 156.395 316.121C156.395 316.121 162.119 312.537 157.777 307.097Z" fill="#EFF0F9"/>
<path d="M154.148 305.452C150.896 303.136 144.475 303.708 140.371 304.489C134.298 305.647 131.088 308.381 130.32 311.589C129.692 314.253 131.995 316.708 135.736 318.73C137.908 319.845 140.4 320.17 142.786 319.651C141.934 318.632 139.924 316.192 138.905 314.908C138.109 313.904 140.622 312.119 144.098 311.059C148.188 309.789 150.184 309.845 151.077 310.584C152.832 312.101 154.465 313.752 155.963 315.522C159.509 311.923 158.49 308.618 154.148 305.452Z" fill="#D9DAE2"/>
<path d="M45.2658 261.531C45.1791 263.182 45.6117 264.819 46.5029 266.213C47.394 267.606 48.6991 268.685 50.2353 269.3C55.0997 271.02 60.4436 270.774 65.1299 268.617C68.6895 267.124 73.5054 264.53 72.9331 261.448C72.0956 257.11 68.4103 254.85 61.3469 254.376H60.621C62.1617 255.994 63.5627 257.739 64.8088 259.593C65.5486 260.987 63.8735 261.838 59.923 263.191C55.5677 264.698 52.9434 264.711 52.05 263.847C50.5144 262.382 48.1972 259.662 47.2619 258.56C46.6943 258.833 46.21 259.252 45.859 259.774C45.508 260.297 45.3032 260.903 45.2658 261.531Z" fill="#D9DAE2"/>
<path d="M129.803 300.291L79.0189 271.001C78.1741 270.613 77.2497 270.43 76.3206 270.466C75.3915 270.502 74.4842 270.758 73.6725 271.211C72.109 272.117 71.9554 273.498 73.3374 274.293L124.121 303.583C124.964 303.971 125.886 304.154 126.813 304.118C127.74 304.081 128.645 303.826 129.454 303.373C131.017 302.467 131.171 301.086 129.803 300.291Z" fill="#D9DAE2"/>
<path d="M66.2607 271.908V274.391L127.291 309.203V306.707L66.2607 271.908Z" fill="#2B5B7F"/>
<path opacity="0.6" d="M336.024 326.563C339.569 322.127 345.488 321.751 350.555 322.016C356.237 322.309 358.303 322.839 360.327 321.709C361.457 321.067 394.82 301.931 413.372 291.22C411.515 288.904 411.976 286.268 414.908 284.581C418.816 282.321 425.642 282.6 430.165 285.208C434.688 287.817 435.163 291.764 431.254 294.009C428.973 295.181 426.413 295.702 423.855 295.516L370.405 326.13C368.646 327.232 369.009 329.017 369.372 330.398C370.335 334.443 367.976 337.009 365.422 338.767C363.577 340.059 361.489 340.966 359.285 341.433C357.081 341.9 354.805 341.918 352.593 341.486C352.681 341.224 352.814 340.979 352.984 340.761C353.947 339.617 356.209 336.856 357.353 335.405C358.261 334.275 355.427 332.281 351.504 331.068C346.884 329.673 344.622 329.673 343.576 330.524C341.594 332.236 339.75 334.101 338.062 336.103C337.873 336.296 337.673 336.478 337.461 336.647C337.461 336.647 331.124 332.699 336.024 326.563ZM426.759 291.568C427.508 291.332 428.319 291.397 429.02 291.75C429.378 291.442 429.652 291.048 429.816 290.606C428.811 290.453 428.057 290.104 428.015 289.713C427.973 289.323 428.713 289.002 429.76 288.96C429.5 288.342 429.087 287.799 428.56 287.384C428.194 287.543 427.8 287.625 427.401 287.625C427.002 287.625 426.608 287.543 426.243 287.384C425.726 287.077 425.81 286.533 426.368 286.087C425.43 285.723 424.45 285.479 423.451 285.362C423.393 285.65 423.229 285.906 422.991 286.079C422.753 286.253 422.459 286.33 422.166 286.296C421.86 286.283 421.561 286.191 421.3 286.03C421.038 285.869 420.822 285.644 420.673 285.376C420.039 285.453 419.416 285.603 418.816 285.822C419.389 286.282 419.556 286.77 419.151 287.022C418.804 287.142 418.437 287.193 418.071 287.171C417.704 287.15 417.346 287.056 417.015 286.896C416.72 287.168 416.486 287.501 416.331 287.872C416.91 287.908 417.454 288.162 417.853 288.584L418.286 288.333L423.869 292.112C424.181 292.14 424.481 292.247 424.739 292.423C424.998 292.599 425.208 292.837 425.349 293.117C425.953 293.055 426.548 292.924 427.122 292.726C426.578 292.335 426.396 291.805 426.801 291.568H426.759Z" fill="#527A45"/>
<path d="M337.448 326.563C337.703 326.038 338.007 325.538 338.356 325.07C341.385 321.095 346.661 320.746 351.198 320.97C356.279 321.207 357.899 320.467 359.644 319.449C363.664 317.12 408.18 291.345 413.233 288.249L422.67 293.688C414.574 298.277 369.555 324.233 369.052 324.568C367.517 325.558 367.922 327.148 368.257 328.376C369.234 331.988 367.21 334.289 364.976 335.865C363.347 337.032 361.496 337.854 359.537 338.281C357.578 338.708 355.553 338.731 353.585 338.348C353.663 338.114 353.776 337.893 353.92 337.693C354.744 336.66 356.712 334.192 357.675 332.895C358.443 331.876 355.861 330.105 352.329 329.045C348.141 327.776 346.145 327.832 345.238 328.585C343.51 330.114 341.917 331.789 340.478 333.592C340.315 333.764 340.142 333.927 339.961 334.08V331.444L337.448 326.563Z" fill="#B4DBFF"/>
<path d="M337.448 326.563L339.96 331.444V334.081C339.96 334.081 335.214 331.193 337.448 326.563Z" fill="#2B5B7F"/>
<path d="M336.861 326.507H340.197V329.059H336.861V326.507Z" fill="#2B5B7F"/>
<path d="M428.113 284.692C427.447 283.787 426.588 283.041 425.598 282.508C424.609 281.975 423.513 281.668 422.39 281.61C419.983 281.656 417.627 282.318 415.55 283.535L426.717 285.501L428.113 284.692Z" fill="#B4DBFF"/>
<path d="M414.615 284.469C416.138 283.662 417.832 283.227 419.556 283.2V285.208C419.183 285.253 418.814 285.328 418.453 285.432V283.66L416.457 283.855V286.492C416.21 286.727 416.015 287.012 415.885 287.328C416.639 287.468 417.211 287.761 417.281 288.068C417.351 288.375 416.736 288.64 415.885 288.695C416.105 289.248 416.472 289.73 416.946 290.09C417.252 289.959 417.582 289.891 417.916 289.891C418.25 289.891 418.58 289.959 418.886 290.09C419.319 290.355 419.249 290.802 418.788 291.178C419.537 291.473 420.321 291.67 421.12 291.764C421.158 291.507 421.294 291.275 421.499 291.117C421.705 290.958 421.964 290.885 422.222 290.913C422.501 290.924 422.771 291.012 423.003 291.167C423.234 291.322 423.419 291.538 423.535 291.792C424.052 291.739 424.562 291.632 425.056 291.471C424.554 291.067 424.4 290.634 424.749 290.425C425.386 290.219 426.079 290.274 426.675 290.578C426.972 290.31 427.202 289.975 427.345 289.602C426.494 289.476 425.852 289.17 425.81 288.835C425.768 288.5 426.41 288.235 427.304 288.207C427.094 287.66 426.742 287.179 426.285 286.812V284.302C426.762 284.493 427.228 284.712 427.68 284.957C431.519 287.175 431.868 290.537 428.616 292.433C425.363 294.33 419.486 294.121 415.648 291.903C411.809 289.686 411.222 286.38 414.615 284.469Z" fill="#B4DBFF"/>
<path d="M423.981 285.655C423.309 285.415 422.611 285.251 421.901 285.166V283.284C423.179 283.405 424.435 283.686 425.643 284.12L424.861 285.125L423.981 285.655Z" fill="#B4DBFF"/>
<path d="M426.243 284.218V284.344L425.643 284.12L426.243 284.218Z" fill="#2B5B7F"/>
<path d="M424.275 286.882C424.186 286.839 424.111 286.772 424.059 286.688C424.007 286.604 423.98 286.507 423.982 286.408V283.883L425.643 284.12L426.243 284.344V286.854C425.934 286.99 425.6 287.063 425.262 287.068C424.924 287.072 424.588 287.009 424.275 286.882Z" fill="#2B5B7F"/>
<path d="M418.203 286.575C417.607 286.777 416.955 286.737 416.389 286.464V283.828L418.385 283.632V286.31C418.38 286.366 418.361 286.421 418.33 286.467C418.298 286.514 418.254 286.551 418.203 286.575Z" fill="#2B5B7F"/>
<path d="M419.598 283.2V282.53H421.943V283.284C421.164 283.201 420.381 283.173 419.598 283.2Z" fill="#2B5B7F"/>
<path d="M420.813 285.962C420.557 285.949 420.309 285.874 420.09 285.743C419.87 285.611 419.687 285.428 419.556 285.208V283.2C420.339 283.172 421.123 283.2 421.901 283.284V285.166C421.848 285.409 421.708 285.623 421.507 285.77C421.307 285.916 421.06 285.984 420.813 285.962Z" fill="#2B5B7F"/>
<path d="M421.021 290.383H425.935V292.349H421.021V290.383Z" fill="#B4DBFF"/>
<path d="M417.212 285.473V287.789C417.212 287.789 416.067 287.872 415.816 287.063C415.651 286.654 415.552 286.221 415.523 285.78L417.212 285.473Z" fill="#B4DBFF"/>
<path d="M419.123 287.844V288.989L418.356 288.584L419.123 287.844Z" fill="#B4DBFF"/>
<path d="M365.674 327.595H368.508V330.05H365.674V327.595Z" fill="#B4DBFF"/>
<path d="M425.767 286.185V288.347L427.108 288.737L427.861 287.077L425.767 286.185Z" fill="#B4DBFF"/>
<path d="M424.525 288.081V290.243L425.852 290.634L426.619 288.974L424.525 288.081Z" fill="#B4DBFF"/>
<path d="M353.586 335.712V338.348C354.785 338.474 355.998 338.286 357.103 337.804C357.834 337.082 358.417 336.224 358.82 335.28L353.586 335.712Z" fill="#B4DBFF"/>
<path d="M359.573 316.813C363.594 314.484 408.11 288.709 413.163 285.613L422.6 291.052C414.503 295.641 369.484 321.611 368.982 321.932C367.446 322.922 367.851 324.512 368.186 325.74C369.163 329.352 367.139 331.653 364.906 333.229C363.276 334.396 361.425 335.218 359.467 335.645C357.508 336.072 355.483 336.095 353.515 335.712C353.593 335.478 353.706 335.257 353.85 335.056C356.248 335.572 358.75 335.236 360.927 334.108C364.627 332.044 366.874 329.561 366.148 326.883C365.269 323.647 361.96 320.9 355.79 319.77C351.603 319.003 345.139 318.445 341.943 320.788C337.615 323.968 336.694 327.302 340.407 330.956C340.245 331.128 340.072 331.291 339.891 331.444C339.891 331.444 334.084 327.943 338.285 322.434C341.315 318.459 346.591 318.11 351.128 318.333C356.279 318.571 357.898 317.831 359.573 316.813Z" fill="#EFF0F9"/>
<path d="M342.012 320.788C345.209 318.445 351.7 319.003 355.86 319.77C362.03 320.9 365.338 323.648 366.218 326.884C366.944 329.562 364.696 332.044 360.997 334.109C358.82 335.237 356.317 335.572 353.92 335.057C354.743 334.025 356.711 331.556 357.675 330.259C358.442 329.241 355.86 327.469 352.328 326.409C348.14 325.14 346.144 325.196 345.237 325.949C343.509 327.478 341.916 329.154 340.477 330.956C336.764 327.302 337.685 323.968 342.012 320.788Z" fill="#D9DAE2"/>
<path d="M408.668 293.27C407.849 292.822 406.937 292.571 406.004 292.537C405.071 292.503 404.143 292.687 403.294 293.075L366.999 314.443C365.603 315.252 365.841 316.647 367.446 317.553C368.265 318.008 369.18 318.262 370.117 318.296C371.053 318.33 371.984 318.143 372.834 317.749L409.129 296.38C410.524 295.571 410.301 294.177 408.682 293.27H408.668Z" fill="#D9DAE2"/>
<path d="M415.55 289.309C411.711 287.091 411.292 283.73 414.615 281.833C417.937 279.936 423.744 280.145 427.583 282.363C431.422 284.581 431.771 287.942 428.518 289.839C425.266 291.736 419.389 291.527 415.55 289.309ZM426.243 284.218C425.931 284.35 425.597 284.418 425.259 284.418C424.92 284.418 424.586 284.35 424.274 284.218C423.828 283.953 423.897 283.493 424.386 283.116C423.588 282.806 422.753 282.6 421.901 282.503C421.848 282.745 421.708 282.959 421.507 283.106C421.307 283.252 421.06 283.32 420.812 283.298C420.55 283.284 420.295 283.206 420.071 283.07C419.847 282.933 419.66 282.743 419.528 282.516C418.99 282.58 418.46 282.707 417.951 282.893C418.439 283.284 418.579 283.702 418.244 283.911C417.648 284.113 416.996 284.073 416.429 283.8C416.182 284.035 415.987 284.32 415.857 284.637C416.611 284.776 417.183 285.069 417.253 285.376C417.323 285.683 416.708 285.948 415.857 286.003C416.077 286.556 416.444 287.038 416.918 287.398C417.224 287.267 417.554 287.199 417.888 287.199C418.222 287.199 418.552 287.267 418.858 287.398C419.291 287.663 419.221 288.11 418.76 288.486C419.509 288.781 420.293 288.978 421.092 289.072C421.13 288.815 421.266 288.583 421.472 288.425C421.677 288.266 421.936 288.193 422.194 288.221C422.473 288.232 422.743 288.32 422.975 288.475C423.207 288.63 423.391 288.847 423.507 289.1C424.024 289.047 424.534 288.94 425.028 288.779C424.526 288.375 424.372 287.942 424.721 287.733C425.358 287.527 426.051 287.582 426.647 287.886C426.947 287.621 427.177 287.285 427.318 286.91C426.466 286.785 425.824 286.478 425.782 286.143C425.74 285.808 426.382 285.543 427.276 285.515C427.047 285.002 426.692 284.556 426.243 284.218Z" fill="#EFF0F9"/>
<path d="M422.67 291.052V293.688L369.052 324.568V321.932L422.67 291.052Z" fill="#2B5B7F"/>
</svg>
