<svg width="544" height="622" viewBox="0 0 544 622" fill="none" xmlns="http://www.w3.org/2000/svg">
<g clip-path="url(#clip0_1949_45137)">
<path d="M39.7682 291.351C39.0117 297.108 38.4996 302.802 38.2437 308.415L38.676 308.193C38.5501 310.955 38.4864 313.697 38.4863 316.418C38.4862 319.138 38.5498 321.807 38.6756 324.424L38.2432 324.701C38.4988 330.018 39.0105 335.122 39.7667 340.005L40.1939 339.678C40.9563 344.602 41.9681 349.302 43.2171 353.774L42.7999 354.149C44.0601 358.661 45.561 362.94 47.2905 366.983L47.693 366.567C49.4174 370.598 51.3697 374.392 53.5379 377.946L53.1539 378.399C55.32 381.949 57.7008 385.259 60.2841 388.323L60.6464 387.84C63.203 390.873 65.9587 393.665 68.9018 396.211L68.5637 396.719C71.4865 399.247 74.5932 401.534 77.8725 403.574L78.1845 403.047C81.4158 405.057 84.8153 406.827 88.3719 408.352L88.0874 408.893C91.6076 410.403 95.2812 411.673 99.0973 412.699L99.3533 412.148C103.109 413.159 107.003 413.932 111.026 414.465L110.799 415.022C114.776 415.548 118.879 415.84 123.096 415.892L123.293 415.333C127.44 415.385 131.699 415.205 136.06 414.789L135.894 415.347C140.197 414.937 144.6 414.298 149.094 413.426L149.23 412.872C153.647 412.015 158.152 410.933 162.736 409.621L162.63 410.167C167.155 408.873 171.756 407.356 176.426 405.612L176.501 405.076C181.079 403.368 185.722 401.441 190.424 399.294L190.379 399.817C195.015 397.7 199.707 395.368 204.448 392.819L204.463 392.311C206.799 391.055 209.148 389.746 211.507 388.384C213.866 387.021 216.215 385.619 218.551 384.177L218.566 384.668C223.307 381.742 227.999 378.655 232.635 375.419L232.59 374.947C237.292 371.665 241.935 368.229 246.513 364.652L246.588 365.101C251.258 361.451 255.86 357.655 260.384 353.725L260.279 353.301C264.862 349.319 269.367 345.2 273.784 340.956L273.921 341.352C278.414 337.034 282.817 332.589 287.121 328.029L286.955 327.664C291.316 323.043 295.575 318.305 299.723 313.464L299.92 313.796C304.137 308.873 308.239 303.844 312.217 298.725L311.99 298.43C316.013 293.251 319.907 287.981 323.663 282.633L323.919 282.889C327.736 277.455 331.409 271.943 334.93 266.368L334.645 266.155C338.202 260.523 341.602 254.827 344.833 249.086L345.145 249.252C348.425 243.426 351.532 237.551 354.455 231.647L354.117 231.53C357.06 225.585 359.816 219.611 362.373 213.625L362.735 213.69C365.319 207.642 367.7 201.583 369.867 195.531L369.483 195.522C371.651 189.464 373.604 183.415 375.328 177.392L375.731 177.344C377.461 171.304 378.962 165.291 380.222 159.323L379.805 159.431C381.055 153.516 382.067 147.647 382.829 141.843L383.257 141.677C384.013 135.919 384.525 130.225 384.781 124.612L384.349 124.835C384.475 122.073 384.538 119.33 384.539 116.61C384.539 113.889 384.475 111.22 384.349 108.603L384.782 108.327C384.526 103.009 384.014 97.906 383.258 93.0221L382.831 93.3498C382.069 88.4258 381.057 83.7254 379.808 79.2534L380.225 78.8787C378.965 74.367 377.464 70.0871 375.734 66.0443L375.332 66.4609C373.607 62.4299 371.655 58.6352 369.487 55.0817L369.871 54.629C367.705 51.0788 365.324 47.7689 362.741 44.7044L362.379 45.1875C359.822 42.1545 357.066 39.3625 354.123 36.8164L354.461 36.3087C351.538 33.7802 348.432 31.4935 345.152 29.4537L344.84 29.9806C341.609 27.9705 338.21 26.2006 334.653 24.6755L334.937 24.1343C331.417 22.6248 327.744 21.3545 323.928 20.3281L323.672 20.8791C319.916 19.8689 316.022 19.0954 311.999 18.5627L312.226 18.0059C308.249 17.4793 304.146 17.1876 299.929 17.1351L299.732 17.6941C295.585 17.6424 291.326 17.8225 286.964 18.2382L287.131 17.6805C282.827 18.0907 278.424 18.7299 273.931 19.6018L273.795 20.1551C269.377 21.0122 264.873 22.0946 260.289 23.4061L260.395 22.8602C255.87 24.1547 251.269 25.6719 246.599 27.4152L246.524 27.951C241.946 29.6598 237.303 31.5862 232.601 33.7337L232.646 33.2104C228.01 35.3277 223.318 37.6592 218.577 40.2082L218.562 40.7165C216.225 41.9726 213.877 43.2815 211.518 44.6438C209.159 46.006 206.81 47.4088 204.474 48.8507L204.459 48.3596C199.718 51.2858 195.026 54.3727 190.39 57.6088L190.435 58.0801C185.733 61.3623 181.089 64.7981 176.512 68.3754L176.436 67.9266C171.767 71.576 167.165 75.3724 162.64 79.3029L162.746 79.7266C158.163 83.7083 153.658 87.8279 149.241 92.0717L149.104 91.6759C144.611 95.993 140.207 100.439 135.903 104.998L136.07 105.363C131.709 109.984 127.45 114.722 123.302 119.563L123.105 119.232C118.888 124.155 114.785 129.183 110.808 134.303L111.035 134.598C107.012 139.776 103.118 145.047 99.3616 150.394L99.1056 150.139C95.2893 155.572 91.6156 161.085 88.0951 166.659L88.3795 166.872C84.8227 172.504 81.423 178.2 78.1914 183.942L77.8795 183.775C74.6 189.602 71.4929 195.476 68.5699 201.38L68.908 201.498C65.9646 207.442 63.2086 213.417 60.6517 219.402L60.2894 219.338C57.7059 225.385 55.3248 231.445 53.1583 237.497L53.5423 237.506C51.3739 243.563 49.4212 249.613 47.6966 255.635L47.294 255.683C45.5642 261.724 44.063 267.737 42.8025 273.704L43.2197 273.597C41.9703 279.511 40.9582 285.38 40.1955 291.185L39.7682 291.351Z" stroke="#090909" stroke-dasharray="16 16"/>
<path d="M241.773 615.646L101.534 534.763C98.5028 532.94 98.8863 529.949 102.393 527.924C104.192 526.93 106.198 526.368 108.252 526.283C110.306 526.197 112.351 526.591 114.227 527.432L254.539 608.333C257.57 610.157 257.187 613.148 253.68 615.154C251.875 616.168 249.855 616.741 247.786 616.827C245.716 616.912 243.656 616.508 241.773 615.646Z" fill="#EFF0F9"/>
<path d="M91.2343 510.07C91.285 509.983 91.3613 509.913 91.4527 509.871C91.5441 509.829 91.6464 509.815 91.7456 509.833L98.4115 511.219L95.8365 515.687L91.2891 510.635C91.2226 510.558 91.1816 510.462 91.1718 510.361C91.162 510.26 91.1838 510.158 91.2343 510.07Z" fill="#B4DBFF"/>
<path d="M93.9006 513.334C93.9196 512.811 94.0659 512.3 94.3268 511.846C94.5877 511.391 94.9554 511.007 95.3981 510.726C95.5399 510.627 95.7028 510.562 95.874 510.537C96.0451 510.512 96.2199 510.527 96.3843 510.58C104.064 510.452 111.637 512.399 118.299 516.216L118.793 516.489L110.666 530.605L108.218 529.018C103.054 525.642 98.6907 521.179 95.4346 515.942L94.3754 514.246C94.2252 514.147 94.1027 514.011 94.0196 513.852C93.9366 513.692 93.8956 513.514 93.9006 513.334Z" fill="#009DEC"/>
<path d="M108.967 526.885C109.077 524.888 109.655 522.945 110.654 521.212C111.653 519.48 113.046 518.006 114.72 516.909C117.898 515.085 120.473 516.544 120.491 520.21C120.384 522.209 119.808 524.156 118.809 525.892C117.809 527.628 116.415 529.105 114.738 530.204C111.561 532.028 108.986 530.55 108.967 526.885Z" fill="#B4DBFF"/>
<path d="M175.151 569.305L110.666 530.605L118.793 516.489L184.739 552.636L175.151 569.305Z" fill="#B4DBFF"/>
<path d="M173.142 564.91C173.266 562.551 173.946 560.254 175.127 558.207C176.307 556.16 177.955 554.42 179.936 553.128C183.588 550.94 186.748 552.691 186.748 557.031C186.624 559.391 185.947 561.688 184.77 563.738C183.593 565.788 181.949 567.532 179.972 568.831C176.21 571.001 173.16 569.25 173.142 564.91Z" fill="#B4DBFF"/>
<path d="M175.955 566.533C176.079 564.171 176.759 561.872 177.939 559.822C179.119 557.772 180.767 556.029 182.748 554.733C186.492 552.563 189.56 554.314 189.56 558.654C189.437 561.011 188.759 563.306 187.582 565.353C186.405 567.4 184.761 569.141 182.785 570.436C179.023 572.606 175.973 570.855 175.955 566.533Z" fill="#B4DBFF"/>
<path d="M187.554 554.256L252.779 591.68L243.189 608.347L177.965 570.923L187.554 554.256Z" fill="#B4DBFF"/>
<path d="M241.17 603.938C241.297 601.579 241.979 599.284 243.159 597.237C244.339 595.19 245.985 593.45 247.964 592.156C251.726 589.986 254.776 591.737 254.776 596.059C254.655 598.419 253.979 600.718 252.802 602.768C251.625 604.819 249.98 606.563 248.001 607.859C244.239 610.029 241.189 608.278 241.17 603.938Z" fill="#B4DBFF"/>
<path d="M243.618 602.606C243.801 601.147 244.307 599.746 245.1 598.506C245.893 597.267 246.952 596.219 248.202 595.439C250.612 594.053 252.475 594.983 252.347 597.555C252.16 599.015 251.649 600.416 250.854 601.655C250.058 602.895 248.996 603.942 247.745 604.722C245.334 606.035 243.49 605.087 243.618 602.606Z" fill="#1C66C8"/>
<path d="M172.649 564.618C172.776 562.26 173.457 559.964 174.637 557.917C175.818 555.871 177.464 554.13 179.443 552.837C183.187 550.666 186.236 552.417 186.255 556.739C186.131 559.101 185.451 561.4 184.27 563.45C183.09 565.5 181.442 567.244 179.461 568.539C175.717 570.709 172.667 568.958 172.649 564.618Z" fill="#009DEC"/>
<path d="M172.649 564.618C172.776 562.259 173.457 559.964 174.637 557.917C175.818 555.871 177.464 554.13 179.443 552.837C180.028 552.442 180.687 552.167 181.38 552.029C182.073 551.892 182.786 551.893 183.479 552.034C182.237 550.776 180.228 550.648 178 552.034C176.02 553.325 174.375 555.066 173.197 557.113C172.02 559.161 171.344 561.457 171.225 563.815C171.225 566.405 172.32 568.065 174 568.539C173.052 567.46 172.567 566.051 172.649 564.618Z" fill="white"/>
<path d="M184.245 552.357L187.935 554.474L178.345 571.141L174.656 569.024L184.245 552.357Z" fill="#009DEC"/>
<path d="M176.411 566.752C176.53 564.391 177.206 562.092 178.384 560.042C179.561 557.991 181.207 556.247 183.187 554.952C186.949 552.782 189.999 554.533 189.999 558.873C189.875 561.23 189.197 563.525 188.02 565.572C186.843 567.619 185.2 569.36 183.223 570.655C179.406 572.825 176.411 571.074 176.411 566.752Z" fill="#B4DBFF"/>
<path d="M246.686 604.43L250.831 597.227L264.638 605.16C265.594 605.709 266.292 606.615 266.58 607.679C266.867 608.742 266.721 609.876 266.172 610.832C265.901 611.304 265.54 611.718 265.109 612.05C264.678 612.383 264.185 612.627 263.659 612.769C263.133 612.912 262.585 612.949 262.045 612.879C261.504 612.81 260.983 612.634 260.511 612.364L246.686 604.43Z" fill="#8EB780"/>
<path d="M245.809 602.607C245.855 601.587 246.144 600.594 246.652 599.709C247.161 598.823 247.873 598.072 248.731 597.518C250.357 596.588 251.672 597.336 251.672 599.214C251.616 600.229 251.322 601.216 250.815 602.097C250.307 602.977 249.6 603.727 248.75 604.284C247.142 605.16 245.809 604.43 245.809 602.607Z" fill="#8EB780"/>
<path d="M230.286 577.439L232.35 576.253C233.054 575.924 233.834 575.789 234.608 575.863C235.382 575.936 236.122 576.216 236.751 576.673L243.855 580.722C244.567 581.177 245.16 581.795 245.585 582.524C246.011 583.254 246.256 584.073 246.302 584.916V588.436C246.327 589.11 246.586 589.754 247.033 590.26L246.777 591.901L248.603 590.88C248.747 590.787 248.863 590.656 248.937 590.501C249.011 590.347 249.041 590.175 249.023 590.004V586.485C248.926 584.73 248.415 583.022 247.533 581.501C246.651 579.98 245.422 578.689 243.946 577.731L236.842 573.645C235.941 573.001 234.886 572.605 233.782 572.5C232.679 572.394 231.567 572.582 230.56 573.044L228.514 574.229C227.807 574.558 227.025 574.693 226.248 574.619C225.471 574.546 224.727 574.266 224.095 573.81L195.459 557.396C195.326 557.3 195.169 557.241 195.006 557.225C194.842 557.209 194.677 557.237 194.528 557.305L192.701 558.326L194.217 558.891C194.424 559.528 194.843 560.075 195.404 560.442L224.04 576.855C224.936 577.498 225.986 577.89 227.084 577.993C228.181 578.095 229.287 577.904 230.286 577.439Z" fill="#009DEC"/>
<path d="M230.578 577.293C231.282 576.963 232.062 576.828 232.836 576.902C233.61 576.976 234.35 577.256 234.979 577.712L242.157 581.779C242.863 582.245 243.451 582.868 243.876 583.599C244.3 584.33 244.549 585.149 244.604 585.992V589.512C244.632 589.968 244.765 590.411 244.993 590.806C245.221 591.202 245.538 591.539 245.919 591.792C246.649 592.211 247.252 591.792 247.234 591.026V587.506C247.136 585.751 246.626 584.044 245.743 582.523C244.861 581.002 243.632 579.71 242.157 578.752L235.052 574.667C234.152 574.022 233.096 573.627 231.992 573.521C230.889 573.415 229.777 573.603 228.77 574.065L226.725 575.25C226.017 575.58 225.235 575.714 224.458 575.641C223.681 575.567 222.938 575.287 222.305 574.831L193.669 558.417C192.939 557.998 192.354 558.417 192.354 559.183C192.38 559.639 192.514 560.082 192.746 560.475C192.978 560.869 193.301 561.201 193.688 561.445L222.323 577.858C223.217 578.51 224.27 578.911 225.371 579.02C226.472 579.129 227.583 578.942 228.588 578.478L230.578 577.293Z" fill="#009DEC"/>
<path d="M258.027 621.428L244.933 613.877C243.344 612.965 243.545 611.379 245.371 610.23C246.306 609.711 247.349 609.419 248.418 609.374C249.486 609.33 250.551 609.535 251.525 609.974L264.62 617.525C266.209 618.437 266.008 620.023 264.181 621.081C263.255 621.618 262.215 621.929 261.146 621.989C260.076 622.049 259.008 621.857 258.027 621.428Z" fill="#EFF0F9"/>
<path d="M291.813 362.73L136.946 306.376C127.814 301.142 120.509 288.321 120.509 277.834V263.992C123.559 263.992 126.573 263.992 129.641 264.12V283.05C129.789 285.631 130.543 288.14 131.84 290.376C133.137 292.613 134.942 294.514 137.11 295.926L291.977 352.28C293.298 353.137 294.397 354.295 295.184 355.658C295.971 357.021 296.424 358.55 296.506 360.122C296.36 363.003 294.333 364.17 291.813 362.73Z" fill="#527A45"/>
<path d="M295.118 261.147L295.173 284.309L113.095 389.502L108.182 367.435L295.118 261.147Z" fill="#B4DBFF"/>
<path d="M106.812 368.237L293.712 260.253L297.675 257.919L301.328 255.84C302.066 257.126 302.48 258.572 302.533 260.053C302.587 260.607 302.496 261.166 302.269 261.674C302.042 262.183 301.686 262.623 301.236 262.953L112.912 371.757L106.812 368.237Z" fill="#009DEC"/>
<path d="M115.341 401.502L112.985 402.87L112.547 402.122L114.026 400.973L115.341 401.502Z" fill="white"/>
<path d="M115.268 370.408L112.875 371.794L113.478 370.48L115.268 370.408Z" fill="white"/>
<path opacity="0.4" d="M320.686 599.926L539.308 473.869C545.499 470.221 544.787 464.075 537.591 459.953L388.714 374.237C381.574 370.116 370.762 369.678 364.571 373.234L145.949 499.2C139.758 502.848 140.47 508.994 147.666 513.115L296.543 598.831C303.684 603.044 314.495 603.482 320.686 599.926Z" fill="#9AA0C9"/>
<path d="M94.7407 275.901L313.381 149.844C314.462 149.178 315.674 148.752 316.934 148.594C318.195 148.437 319.474 148.552 320.686 148.932L321.088 149.078L329.16 152.142L322.074 155.607C322.074 155.735 322.074 155.862 322.074 155.99L357.686 317.866C359.512 325.981 355.86 335.428 349.724 339.003L136.434 461.996L137.201 471.115L128.563 467.65C126.926 466.761 125.515 465.507 124.441 463.986C123.368 462.464 122.66 460.716 122.372 458.877L86.7599 296.984C84.9702 288.923 88.5497 279.458 94.7407 275.901Z" fill="#006199"/>
<path d="M94.7407 275.901L313.381 149.844C314.462 149.178 315.674 148.752 316.934 148.594C318.195 148.437 319.474 148.552 320.686 148.932L321.088 149.078L329.16 152.142L322.074 155.607C322.074 155.735 322.074 155.862 322.074 155.99L345.633 262.661L238.669 345.896L87.8192 284.6C89.0828 281.007 91.5209 277.943 94.7407 275.901Z" fill="#1C66C8"/>
<path d="M102.977 300.777L86.3399 293.701C86.1469 290.602 86.6521 287.499 87.8183 284.621C88.9846 281.742 90.7821 279.161 93.0788 277.068L119.414 288.138L102.977 300.777Z" fill="#006199"/>
<path d="M144.78 470.184L363.421 344.127C369.612 340.48 373.173 331.088 371.401 322.99L335.789 161.115C333.963 153.017 327.553 149.333 321.362 152.908L102.721 278.965C96.5305 282.521 92.9692 291.987 94.759 300.084L130.371 461.959C132.143 470.057 138.608 473.741 144.78 470.184Z" fill="#B4DBFF"/>
<path d="M100.621 278.181L319.262 152.142C320.536 151.331 322.001 150.868 323.511 150.801C325.021 150.734 326.522 151.064 327.863 151.759C325.629 151.3 323.303 151.711 321.362 152.908L102.721 278.947C96.5305 282.594 92.9692 291.987 94.759 300.084L130.371 461.959C130.656 463.727 131.323 465.411 132.326 466.894C133.329 468.378 134.643 469.625 136.179 470.549C132.526 469.747 129.403 466.391 128.271 461.193L92.6588 299.318C90.869 291.221 94.4303 281.755 100.621 278.181Z" fill="white"/>
<path d="M149.529 458.129L355.148 339.586C360.809 336.322 364.078 327.659 362.453 320.255L329.817 172.203C328.192 164.799 322.275 161.425 316.613 164.689L110.994 283.233C105.333 286.497 102.064 295.142 103.689 302.564L136.233 450.616C137.95 458.038 143.867 461.394 149.529 458.129Z" fill="white"/>
<path d="M149.529 458.129L355.148 339.586C360.809 336.322 364.078 327.659 362.453 320.255L329.817 172.203C328.192 164.799 322.275 161.425 316.613 164.689L110.994 283.233C105.333 286.497 102.064 295.142 103.689 302.564L136.233 450.616C137.95 458.038 143.867 461.394 149.529 458.129Z" fill="white"/>
<path d="M147.739 457.4L353.358 338.857C359.019 335.592 362.288 326.93 360.663 319.525L327.991 171.437C327.728 169.846 327.13 168.329 326.236 166.987C325.342 165.644 324.172 164.507 322.804 163.65C326.165 164.489 328.831 167.534 329.817 172.203L362.453 320.309C364.078 327.714 360.809 336.377 355.148 339.641L149.529 458.184C148.341 458.946 146.97 459.376 145.56 459.427C144.149 459.478 142.751 459.15 141.511 458.476C142.569 458.714 143.664 458.742 144.732 458.557C145.801 458.372 146.822 457.979 147.739 457.4Z" fill="#009DEC"/>
<path d="M141.712 475.674L171.608 471.716L364.516 360.486C370.707 356.93 381.519 357.368 388.66 361.489L525.41 440.293L543.49 437.904V448.135C543.472 449.477 543.07 450.785 542.333 451.906C541.595 453.028 540.552 453.915 539.326 454.464L320.686 580.521C314.495 584.168 303.684 583.64 296.543 579.518L147.666 493.711C143.648 491.395 141.657 488.422 141.767 485.613L141.712 475.674Z" fill="#006199"/>
<path d="M286.717 405.387L300.433 397.472H451.118L525.41 440.293L543.49 437.904V448.136C543.472 449.477 543.07 450.785 542.333 451.906C541.595 453.028 540.552 453.915 539.326 454.464L320.686 580.521C316.841 582.466 312.52 583.276 308.231 582.855L286.717 405.387Z" fill="#1C66C8"/>
<path d="M318.476 581.542C311.725 583.728 304.394 583.272 297.967 580.266V557.432H318.476V581.542Z" fill="#006199"/>
<path d="M320.686 570.29L539.308 444.233C545.499 440.676 544.787 434.439 537.591 430.317L388.714 344.602C381.574 340.48 370.762 340.024 364.571 343.599L145.949 469.656C139.758 473.212 140.47 479.449 147.666 483.571L296.543 569.287C303.684 573.427 314.495 573.864 320.686 570.29Z" fill="#E5F8FF"/>
<path d="M147.666 479.741L296.543 565.548C303.683 569.67 314.495 570.126 320.686 566.551L539.308 440.494C541.056 439.605 542.425 438.115 543.161 436.299C544.129 439.217 542.887 442.172 539.308 444.233L320.686 570.29C314.495 573.937 303.683 573.408 296.543 569.287L147.666 483.571C142.881 480.799 140.963 477.078 142.187 473.85C143.254 476.401 145.197 478.49 147.666 479.741Z" fill="white"/>
<path d="M446.333 402.505L456.213 396.797C457.017 396.341 456.907 395.539 455.994 394.973L444.324 388.244C443.852 387.983 443.326 387.836 442.787 387.814C442.248 387.791 441.711 387.895 441.219 388.116L431.321 393.824C430.536 394.28 430.627 395.083 431.558 395.648L443.228 402.378C443.7 402.639 444.227 402.786 444.765 402.808C445.304 402.83 445.841 402.727 446.333 402.505Z" fill="white"/>
<path d="M431.047 411.314L440.945 405.642C441.731 405.186 441.639 404.384 440.726 403.819L429.038 397.089C428.569 396.828 428.046 396.681 427.51 396.659C426.974 396.637 426.44 396.74 425.952 396.961L416.053 402.67C415.25 403.125 415.359 403.928 416.273 404.493L427.942 411.113C428.409 411.386 428.932 411.546 429.471 411.581C430.01 411.616 430.55 411.524 431.047 411.314Z" fill="white"/>
<path d="M415.78 420.123L425.66 414.414C426.463 413.959 426.354 413.156 425.44 412.591L413.825 405.898C413.353 405.637 412.827 405.489 412.288 405.467C411.749 405.445 411.213 405.549 410.721 405.77L400.822 411.478C400.037 411.934 400.128 412.737 401.06 413.302L412.73 420.032C413.197 420.278 413.715 420.414 414.244 420.43C414.773 420.446 415.298 420.341 415.78 420.123Z" fill="white"/>
<path d="M394.65 412.937L404.53 407.229C405.333 406.773 405.224 405.971 404.311 405.405L394.504 399.77C394.037 399.504 393.513 399.353 392.976 399.331C392.439 399.309 391.904 399.415 391.417 399.642L381.519 405.332C380.734 405.788 380.825 406.591 381.738 407.156L391.545 412.81C392.017 413.07 392.543 413.218 393.082 413.24C393.621 413.262 394.158 413.158 394.65 412.937Z" fill="white"/>
<path d="M379.364 421.655L389.262 415.946C390.047 415.49 389.956 414.688 389.043 414.123L379.236 408.487C378.766 408.221 378.239 408.07 377.699 408.048C377.159 408.026 376.622 408.133 376.131 408.36L366.251 414.05C365.448 414.506 365.557 415.308 366.47 415.873L376.259 421.527C376.731 421.788 377.257 421.935 377.796 421.957C378.335 421.979 378.872 421.876 379.364 421.655Z" fill="white"/>
<path d="M364.096 430.463L373.976 424.755C374.78 424.299 374.67 423.497 373.757 422.931L363.95 417.278C363.48 417.021 362.957 416.876 362.422 416.854C361.887 416.832 361.354 416.933 360.864 417.15L350.965 422.858C350.18 423.314 350.271 424.117 351.185 424.682L360.992 430.336C361.464 430.596 361.99 430.744 362.529 430.766C363.068 430.788 363.604 430.685 364.096 430.463Z" fill="white"/>
<path d="M348.81 439.272L358.709 433.564C359.494 433.108 359.403 432.305 358.49 431.74L348.683 426.086C348.211 425.826 347.684 425.678 347.145 425.656C346.606 425.634 346.07 425.738 345.578 425.959L335.698 431.667C334.894 432.123 334.986 432.925 335.917 433.491L345.706 439.144C346.178 439.405 346.704 439.553 347.243 439.575C347.782 439.597 348.319 439.493 348.81 439.272Z" fill="white"/>
<path d="M333.47 448.081L343.35 442.372C344.154 441.916 344.044 441.114 343.131 440.549L333.324 434.895C332.855 434.634 332.332 434.487 331.796 434.465C331.26 434.443 330.726 434.546 330.237 434.767L320.339 440.476C319.554 440.932 319.645 441.734 320.558 442.299L330.365 447.953C330.837 448.214 331.363 448.361 331.902 448.383C332.441 448.406 332.978 448.302 333.47 448.081Z" fill="white"/>
<path d="M318.257 456.889L328.155 451.236C328.941 450.78 328.849 449.977 327.936 449.412L318.129 443.759C317.657 443.498 317.131 443.35 316.592 443.328C316.053 443.306 315.516 443.41 315.025 443.631L305.145 449.339C304.341 449.795 304.432 450.598 305.364 451.163L315.207 456.707C315.668 456.968 316.182 457.12 316.711 457.152C317.24 457.183 317.768 457.094 318.257 456.889Z" fill="white"/>
<path d="M302.989 465.698L312.87 459.99C313.673 459.534 313.564 458.731 312.65 458.166L302.843 452.512C302.375 452.252 301.851 452.105 301.315 452.082C300.779 452.06 300.246 452.164 299.757 452.385L289.859 458.093C289.073 458.549 289.165 459.351 290.078 459.917L299.885 465.57C300.357 465.831 300.883 465.979 301.422 466.001C301.961 466.023 302.498 465.919 302.989 465.698Z" fill="white"/>
<path d="M287.704 474.507L297.602 468.799C298.387 468.343 298.296 467.54 297.383 466.975L287.576 461.321C287.104 461.06 286.578 460.913 286.039 460.891C285.5 460.869 284.963 460.972 284.471 461.194L274.573 466.902C273.788 467.358 273.879 468.16 274.81 468.726L284.599 474.379C285.071 474.64 285.597 474.787 286.136 474.809C286.675 474.832 287.212 474.728 287.704 474.507Z" fill="white"/>
<path d="M272.436 483.315L282.335 477.607C283.138 477.151 283.029 476.349 282.115 475.783L272.308 470.13C271.84 469.869 271.316 469.722 270.78 469.7C270.244 469.678 269.711 469.781 269.222 470.002L259.324 475.71C258.52 476.166 258.63 476.969 259.543 477.534L269.35 483.188C269.819 483.446 270.342 483.591 270.878 483.613C271.413 483.636 271.947 483.534 272.436 483.315Z" fill="white"/>
<path d="M257.15 492.124L267.049 486.416C267.834 485.96 267.743 485.157 266.829 484.592L257.022 478.938C256.55 478.678 256.024 478.53 255.485 478.508C254.946 478.486 254.41 478.59 253.918 478.811L244.019 484.519C243.234 484.975 243.325 485.778 244.257 486.343L254.046 491.996C254.518 492.257 255.044 492.405 255.583 492.427C256.122 492.449 256.658 492.345 257.15 492.124Z" fill="white"/>
<path d="M372.132 408.67L382.03 402.98C382.816 402.524 382.724 401.721 381.811 401.156L372.004 395.502C371.532 395.241 371.006 395.094 370.467 395.072C369.928 395.05 369.391 395.153 368.899 395.375L359.019 401.083C358.216 401.539 358.307 402.341 359.238 402.907L369.027 408.542C369.498 408.807 370.024 408.957 370.564 408.979C371.104 409.001 371.641 408.895 372.132 408.67Z" fill="white"/>
<path d="M387.637 399.733L397.535 394.043C398.32 393.569 398.229 392.785 397.316 392.219L387.509 386.566C387.037 386.305 386.511 386.158 385.972 386.136C385.433 386.113 384.896 386.217 384.404 386.438L374.524 392.128C373.721 392.602 373.812 393.387 374.743 393.952L384.605 399.606C385.068 399.855 385.581 399.996 386.106 400.018C386.631 400.04 387.155 399.943 387.637 399.733Z" fill="white"/>
<path d="M403.16 390.779L424.473 378.505C425.276 378.049 425.166 377.247 424.253 376.681L414.446 371.028C413.978 370.767 413.454 370.62 412.918 370.598C412.382 370.575 411.849 370.679 411.36 370.9L390.084 383.21C389.28 383.684 389.39 384.469 390.303 385.034L400.11 390.688C400.577 390.937 401.095 391.074 401.624 391.09C402.153 391.106 402.679 390.999 403.16 390.779Z" fill="white"/>
<path d="M392.312 379.891L409.607 369.933C410.392 369.477 410.301 368.675 409.388 368.11L399.581 362.456C399.109 362.195 398.582 362.048 398.043 362.026C397.504 362.004 396.968 362.107 396.476 362.328L379.126 372.322C378.341 372.797 378.432 373.581 379.364 374.146L389.153 379.8C389.634 380.064 390.172 380.21 390.721 380.225C391.271 380.241 391.816 380.127 392.312 379.891Z" fill="white"/>
<path d="M356.864 417.478L366.744 411.788C367.548 411.332 367.438 410.53 366.525 409.964L356.718 404.311C356.249 404.05 355.726 403.903 355.19 403.881C354.654 403.859 354.12 403.962 353.632 404.183L343.733 409.892C342.948 410.347 343.039 411.15 343.953 411.715L353.76 417.351C354.23 417.617 354.757 417.768 355.296 417.79C355.836 417.812 356.374 417.705 356.864 417.478Z" fill="white"/>
<path d="M341.578 426.287L351.477 420.597C352.262 420.141 352.171 419.339 351.258 418.773L341.451 413.12C340.979 412.859 340.452 412.711 339.913 412.689C339.374 412.667 338.838 412.771 338.346 412.992L328.466 418.7C327.662 419.156 327.754 419.959 328.685 420.524L338.474 426.159C338.944 426.424 339.471 426.574 340.011 426.596C340.55 426.618 341.088 426.512 341.578 426.287Z" fill="white"/>
<path d="M326.311 435.096L336.191 429.351C336.995 428.895 336.885 428.093 335.972 427.527L326.165 422.056C325.696 421.795 325.173 421.648 324.637 421.626C324.101 421.604 323.567 421.707 323.078 421.928L313.18 427.637C312.377 428.093 312.486 428.877 313.399 429.46L323.206 435.114C323.69 435.352 324.222 435.474 324.761 435.471C325.3 435.468 325.83 435.339 326.311 435.096Z" fill="white"/>
<path d="M311.025 443.941L320.923 438.251C321.709 437.777 321.617 436.992 320.704 436.427L310.897 430.773C310.425 430.513 309.899 430.365 309.36 430.343C308.821 430.321 308.284 430.425 307.793 430.646L297.894 436.336C297.109 436.81 297.2 437.594 298.132 438.16L307.92 443.813C308.392 444.074 308.919 444.221 309.458 444.244C309.997 444.266 310.533 444.162 311.025 443.941Z" fill="white"/>
<path d="M295.758 452.713L305.638 447.023C306.441 446.549 306.332 445.765 305.418 445.199L295.611 439.546C295.143 439.285 294.619 439.138 294.083 439.116C293.547 439.093 293.014 439.197 292.525 439.418L282.627 445.108C281.823 445.582 281.933 446.366 282.846 446.932L292.653 452.585C293.125 452.846 293.651 452.993 294.19 453.016C294.729 453.038 295.266 452.934 295.758 452.713Z" fill="white"/>
<path d="M280.508 461.522L290.407 455.832C291.192 455.358 291.101 454.573 290.187 454.008L280.38 448.354C279.908 448.094 279.382 447.946 278.843 447.924C278.304 447.902 277.768 448.006 277.276 448.227L267.377 453.917C266.592 454.373 266.683 455.175 267.615 455.74L277.404 461.394C277.875 461.655 278.402 461.802 278.941 461.824C279.48 461.847 280.016 461.743 280.508 461.522Z" fill="white"/>
<path d="M265.204 470.33L275.029 464.622C275.833 464.166 275.723 463.382 274.81 462.798L265.003 457.145C264.536 456.879 264.013 456.728 263.476 456.706C262.939 456.684 262.404 456.79 261.917 457.017L252.018 462.707C251.215 463.163 251.325 463.966 252.238 464.531L262.045 470.185C262.522 470.457 263.057 470.612 263.607 470.638C264.156 470.663 264.704 470.558 265.204 470.33Z" fill="white"/>
<path d="M249.918 479.139L259.817 473.431C260.602 472.975 260.511 472.172 259.597 471.607L249.79 465.972C249.32 465.705 248.794 465.555 248.254 465.533C247.714 465.51 247.176 465.617 246.686 465.844L236.787 471.534C236.002 471.99 236.093 472.792 237.025 473.358L246.814 479.011C247.286 479.272 247.812 479.42 248.351 479.442C248.89 479.464 249.426 479.36 249.918 479.139Z" fill="white"/>
<path d="M234.651 487.948L244.531 482.239C245.334 481.784 245.225 480.981 244.312 480.416L234.505 474.78C234.038 474.514 233.514 474.364 232.977 474.341C232.44 474.319 231.905 474.426 231.418 474.653L221.52 480.416C220.716 480.872 220.826 481.674 221.739 482.239L231.546 487.893C232.024 488.142 232.553 488.277 233.092 488.287C233.631 488.296 234.165 488.18 234.651 487.948Z" fill="white"/>
<path d="M207.458 503.614L229.044 491.158C229.848 490.702 229.738 489.899 228.825 489.334L219.018 483.698C218.551 483.435 218.028 483.285 217.492 483.259C216.956 483.234 216.422 483.334 215.932 483.553L194.345 496.009C193.542 496.465 193.651 497.267 194.564 497.832L204.371 503.486C204.84 503.747 205.363 503.894 205.899 503.916C206.435 503.938 206.969 503.835 207.458 503.614Z" fill="white"/>
<path d="M177.744 486.452L196.007 475.966C196.811 475.492 196.701 474.707 195.788 474.142L185.981 468.488C185.512 468.228 184.989 468.081 184.453 468.058C183.917 468.036 183.383 468.14 182.894 468.361L164.632 478.865C163.847 479.321 163.938 480.124 164.851 480.689L174.585 486.325C175.062 486.6 175.598 486.756 176.149 486.778C176.699 486.8 177.247 486.688 177.744 486.452Z" fill="white"/>
<path d="M330.11 415.764L339.99 410.056C340.793 409.6 340.684 408.797 339.77 408.232L329.963 402.578C329.495 402.318 328.971 402.17 328.435 402.148C327.899 402.126 327.366 402.23 326.877 402.451L317.033 408.195C316.248 408.651 316.339 409.454 317.253 410.019L327.06 415.673C327.527 415.919 328.045 416.055 328.574 416.071C329.103 416.087 329.628 415.982 330.11 415.764Z" fill="white"/>
<path d="M345.761 406.737L355.659 401.028C356.444 400.572 356.353 399.77 355.422 399.204L345.633 393.551C345.161 393.29 344.634 393.143 344.096 393.121C343.557 393.098 343.02 393.202 342.528 393.423L332.63 399.132C331.844 399.587 331.936 400.39 332.867 400.955L342.656 406.609C343.128 406.87 343.654 407.017 344.193 407.039C344.732 407.061 345.269 406.958 345.761 406.737Z" fill="white"/>
<path d="M361.412 397.709L371.31 392.001C372.095 391.545 372.004 390.742 371.091 390.177L361.284 384.523C360.812 384.263 360.286 384.115 359.747 384.093C359.208 384.071 358.671 384.175 358.179 384.396L348.299 390.104C347.496 390.56 347.605 391.362 348.518 391.928L358.325 397.581C358.794 397.842 359.317 397.989 359.853 398.011C360.389 398.034 360.923 397.93 361.412 397.709Z" fill="white"/>
<path d="M377.081 388.681L386.961 382.973C387.765 382.517 387.655 381.715 386.742 381.149L376.935 375.496C376.466 375.235 375.943 375.088 375.407 375.066C374.871 375.044 374.337 375.147 373.849 375.368L363.95 381.076C363.165 381.532 363.256 382.335 364.169 382.9L373.976 388.554C374.448 388.815 374.975 388.962 375.514 388.984C376.053 389.006 376.589 388.903 377.081 388.681Z" fill="white"/>
<path d="M314.824 424.573L324.722 418.864C325.507 418.408 325.416 417.606 324.503 417.041L314.696 411.387C314.224 411.126 313.698 410.979 313.159 410.957C312.62 410.935 312.083 411.038 311.591 411.259L301.711 416.968C300.908 417.424 301.017 418.226 301.93 418.791L311.719 424.445C312.191 424.706 312.717 424.853 313.256 424.875C313.795 424.897 314.332 424.794 314.824 424.573Z" fill="white"/>
<path d="M299.556 433.381L309.436 427.673C310.24 427.217 310.13 426.415 309.217 425.849L299.41 420.196C298.941 419.935 298.418 419.788 297.882 419.766C297.346 419.743 296.812 419.847 296.324 420.068L286.425 425.776C285.64 426.232 285.731 427.035 286.644 427.6L296.451 433.254C296.923 433.514 297.45 433.662 297.989 433.684C298.528 433.706 299.064 433.603 299.556 433.381Z" fill="white"/>
<path d="M284.27 442.117L294.169 436.409C294.954 435.953 294.863 435.15 293.949 434.585L284.142 428.931C283.67 428.671 283.144 428.523 282.605 428.501C282.066 428.479 281.53 428.583 281.038 428.804L271.158 434.512C270.354 434.968 270.464 435.771 271.377 436.336L281.166 441.989C281.638 442.25 282.164 442.398 282.703 442.42C283.242 442.442 283.778 442.338 284.27 442.117Z" fill="white"/>
<path d="M269.003 450.999L278.883 445.29C279.686 444.834 279.577 444.032 278.664 443.467L268.857 437.813C268.388 437.552 267.865 437.405 267.329 437.383C266.793 437.361 266.259 437.464 265.77 437.685L255.872 443.394C255.087 443.85 255.178 444.652 256.091 445.217L265.898 450.871C266.37 451.132 266.896 451.279 267.435 451.301C267.974 451.323 268.511 451.22 269.003 450.999Z" fill="white"/>
<path d="M253.717 459.807L263.615 454.099C264.401 453.643 264.309 452.841 263.396 452.275L253.589 446.622C253.117 446.361 252.591 446.214 252.052 446.191C251.513 446.169 250.976 446.273 250.484 446.494L240.604 452.202C239.801 452.658 239.91 453.461 240.824 454.026L250.612 459.68C251.084 459.941 251.611 460.088 252.15 460.11C252.688 460.132 253.225 460.029 253.717 459.807Z" fill="white"/>
<path d="M238.504 468.616L248.384 462.908C249.188 462.452 249.078 461.649 248.165 461.084L238.358 455.43C237.889 455.17 237.366 455.023 236.83 455C236.294 454.978 235.76 455.082 235.272 455.303L225.373 461.011C224.588 461.467 224.679 462.269 225.593 462.835L235.4 468.488C235.872 468.749 236.398 468.896 236.937 468.919C237.476 468.941 238.012 468.837 238.504 468.616Z" fill="white"/>
<path d="M223.164 477.425L233.025 471.716C233.811 471.261 233.719 470.458 232.806 469.893L222.999 464.239C222.527 463.978 222.001 463.831 221.462 463.809C220.923 463.787 220.386 463.89 219.895 464.111L210.014 469.82C209.211 470.276 209.302 471.078 210.234 471.644L220.022 477.297C220.499 477.564 221.032 477.714 221.578 477.737C222.124 477.759 222.667 477.652 223.164 477.425Z" fill="white"/>
<path d="M207.896 486.233L217.776 480.525C218.58 480.069 218.47 479.267 217.557 478.701L207.75 473.048C207.281 472.787 206.758 472.64 206.222 472.618C205.686 472.596 205.152 472.699 204.664 472.92L194.674 478.592C193.889 479.048 193.98 479.85 194.893 480.416L204.7 486.069C205.18 486.351 205.722 486.513 206.278 486.541C206.834 486.57 207.389 486.464 207.896 486.233Z" fill="white"/>
<path d="M192.61 495.006L202.508 489.297C203.294 488.841 203.202 488.039 202.289 487.474L192.482 481.82C192.01 481.559 191.484 481.412 190.945 481.39C190.406 481.368 189.869 481.471 189.378 481.692L179.498 487.401C178.694 487.857 178.785 488.659 179.717 489.224L189.505 494.878C189.977 495.139 190.504 495.286 191.043 495.308C191.582 495.33 192.118 495.227 192.61 495.006Z" fill="white"/>
<path d="M338.145 393.97L348.08 388.28C348.865 387.824 348.774 387.022 347.861 386.456L338.054 380.803C337.582 380.542 337.055 380.395 336.517 380.373C335.978 380.35 335.441 380.454 334.949 380.675L325.069 386.384C324.265 386.839 324.375 387.624 325.288 388.207L335.077 393.861C335.544 394.117 336.065 394.26 336.598 394.279C337.131 394.298 337.661 394.192 338.145 393.97Z" fill="white"/>
<path d="M353.34 385.216L363.238 379.508C364.041 379.052 363.932 378.25 363.019 377.684L353.212 372.031C352.743 371.77 352.22 371.623 351.684 371.601C351.148 371.578 350.614 371.682 350.125 371.903L340.227 377.611C339.423 378.067 339.533 378.87 340.446 379.435L350.253 385.089C350.722 385.349 351.245 385.497 351.781 385.519C352.317 385.541 352.851 385.437 353.34 385.216Z" fill="white"/>
<path d="M368.552 376.462L378.451 370.772C379.236 370.298 379.145 369.514 378.213 368.949L368.425 363.295C367.953 363.034 367.426 362.887 366.887 362.865C366.348 362.843 365.812 362.946 365.32 363.167L355.422 368.857C354.636 369.332 354.728 370.116 355.641 370.681L365.448 376.335C365.92 376.596 366.446 376.743 366.985 376.765C367.524 376.787 368.061 376.684 368.552 376.462Z" fill="white"/>
<path d="M383.747 367.69L393.645 361.982C394.43 361.526 394.339 360.723 393.426 360.158L383.619 354.504C383.147 354.244 382.621 354.096 382.082 354.074C381.543 354.052 381.006 354.156 380.514 354.377L370.634 360.049C369.831 360.505 369.94 361.307 370.853 361.872L380.66 367.526C381.126 367.792 381.648 367.946 382.184 367.975C382.72 368.003 383.255 367.906 383.747 367.69Z" fill="white"/>
<path d="M368.169 358.681L378.067 352.973C378.852 352.517 378.761 351.714 377.848 351.149L374.597 349.325C374.129 349.041 373.6 348.873 373.053 348.835C372.507 348.797 371.959 348.89 371.456 349.106L361.558 354.815C360.772 355.27 360.864 356.073 361.777 356.638L365.028 358.462C365.496 358.746 366.025 358.914 366.572 358.952C367.118 358.99 367.666 358.897 368.169 358.681Z" fill="white"/>
<path d="M348.281 370.116L358.179 364.407C358.964 363.951 358.873 363.149 357.96 362.584L354.709 360.76C354.239 360.494 353.712 360.343 353.172 360.321C352.632 360.299 352.095 360.405 351.605 360.632L341.725 366.322C340.921 366.778 341.031 367.581 341.944 368.146L345.176 369.97C345.647 370.234 346.172 370.384 346.711 370.409C347.25 370.435 347.788 370.334 348.281 370.116Z" fill="white"/>
<path d="M333.141 378.833L343.039 373.143C343.825 372.669 343.733 371.885 342.82 371.319L339.569 369.496C339.101 369.235 338.577 369.088 338.041 369.066C337.505 369.044 336.972 369.147 336.483 369.368L326.585 375.076C325.781 375.532 325.891 376.335 326.804 376.9L330.055 378.724C330.525 378.982 331.049 379.126 331.585 379.145C332.121 379.164 332.654 379.057 333.141 378.833Z" fill="white"/>
<path d="M318.001 387.569L327.9 381.934C328.685 381.478 328.594 380.675 327.681 380.11L324.43 378.286C323.961 378.026 323.438 377.878 322.902 377.856C322.366 377.834 321.832 377.937 321.343 378.158L311.445 383.849C310.66 384.304 310.751 385.107 311.664 385.672L314.915 387.496C315.388 387.748 315.914 387.886 316.449 387.898C316.985 387.911 317.517 387.798 318.001 387.569Z" fill="white"/>
<path d="M302.862 396.286L312.76 390.596C313.564 390.14 313.454 389.338 312.541 388.773L309.308 386.949C308.836 386.688 308.31 386.541 307.771 386.519C307.232 386.496 306.696 386.6 306.204 386.821L296.305 392.53C295.52 392.985 295.611 393.788 296.525 394.353L299.775 396.177C300.245 396.435 300.769 396.579 301.305 396.598C301.841 396.617 302.374 396.51 302.862 396.286Z" fill="white"/>
<path d="M218.415 445.017L228.314 439.309C229.099 438.853 229.008 438.05 228.076 437.485L224.844 435.661C224.372 435.4 223.845 435.253 223.307 435.231C222.768 435.209 222.231 435.312 221.739 435.533L211.859 441.242C211.055 441.698 211.165 442.5 212.078 443.065L215.311 444.889C215.783 445.15 216.309 445.297 216.848 445.319C217.387 445.342 217.923 445.238 218.415 445.017Z" fill="white"/>
<path d="M203.221 453.753L213.119 448.044C213.904 447.588 213.813 446.786 212.9 446.221L209.649 444.397C209.177 444.136 208.651 443.989 208.112 443.967C207.573 443.944 207.036 444.048 206.545 444.269L196.664 449.977C195.861 450.433 195.971 451.236 196.884 451.801L200.116 453.625C200.588 453.886 201.114 454.033 201.653 454.055C202.192 454.077 202.729 453.974 203.221 453.753Z" fill="white"/>
<path d="M188.081 462.47L197.979 456.707C198.765 456.251 198.673 455.449 197.76 454.883L194.509 453.06C194.041 452.799 193.517 452.652 192.981 452.63C192.445 452.607 191.912 452.711 191.423 452.932L181.525 458.64C180.721 459.096 180.831 459.899 181.744 460.464L184.976 462.288C185.444 462.557 185.968 462.714 186.507 462.746C187.046 462.777 187.585 462.683 188.081 462.47Z" fill="white"/>
<path d="M172.941 471.297L182.84 465.589C183.625 465.133 183.534 464.33 182.62 463.765L179.37 461.941C178.903 461.675 178.379 461.524 177.842 461.502C177.305 461.48 176.771 461.587 176.283 461.814L166.385 467.504C165.6 467.96 165.691 468.762 166.604 469.327L169.855 471.151C170.322 471.415 170.845 471.565 171.381 471.59C171.917 471.616 172.451 471.515 172.941 471.297Z" fill="white"/>
<path d="M322.877 402.779L332.758 397.089C333.561 396.633 333.452 395.83 332.538 395.265L322.731 389.612C322.263 389.351 321.739 389.204 321.203 389.181C320.667 389.159 320.134 389.263 319.645 389.484L309.747 395.174C308.961 395.648 309.053 396.432 309.966 396.998L319.773 402.651C320.245 402.912 320.771 403.059 321.31 403.082C321.849 403.104 322.386 403 322.877 402.779Z" fill="white"/>
<path d="M307.592 411.588L317.49 405.898C318.275 405.423 318.184 404.639 317.271 404.074L307.464 398.42C306.992 398.159 306.466 398.012 305.927 397.99C305.388 397.968 304.851 398.071 304.359 398.293L294.479 403.983C293.676 404.457 293.785 405.241 294.698 405.806L304.487 411.46C304.959 411.721 305.485 411.868 306.024 411.89C306.563 411.912 307.1 411.809 307.592 411.588Z" fill="white"/>
<path d="M292.324 420.396L302.204 414.761C303.008 414.287 302.898 413.503 301.985 412.937L292.178 407.284C291.709 407.023 291.186 406.876 290.65 406.854C290.114 406.831 289.58 406.935 289.092 407.156L279.193 412.846C278.408 413.32 278.499 414.104 279.412 414.67L289.219 420.323C289.696 420.576 290.224 420.713 290.763 420.726C291.302 420.739 291.836 420.626 292.324 420.396Z" fill="white"/>
<path d="M277.038 429.205L286.937 423.497C287.722 423.041 287.631 422.257 286.718 421.673L276.91 416.019C276.439 415.759 275.912 415.611 275.373 415.589C274.834 415.567 274.298 415.671 273.806 415.892L263.926 421.582C263.122 422.038 263.214 422.84 264.145 423.406L273.934 429.059C274.404 429.323 274.93 429.473 275.469 429.499C276.008 429.524 276.545 429.423 277.038 429.205Z" fill="white"/>
<path d="M261.771 438.014L271.651 432.305C272.454 431.849 272.345 431.047 271.432 430.482L261.625 424.846C261.158 424.58 260.634 424.429 260.097 424.407C259.56 424.385 259.025 424.492 258.538 424.719L248.64 430.409C247.855 430.865 247.946 431.667 248.859 432.232L258.666 437.886C259.138 438.147 259.664 438.294 260.203 438.316C260.742 438.338 261.279 438.235 261.771 438.014Z" fill="white"/>
<path d="M246.485 446.822L256.383 441.114C257.169 440.658 257.077 439.856 256.164 439.29L246.357 433.655C245.887 433.389 245.36 433.238 244.82 433.216C244.28 433.194 243.743 433.3 243.252 433.527L233.372 439.217C232.569 439.673 232.66 440.476 233.591 441.041L243.38 446.695C243.852 446.955 244.379 447.103 244.917 447.125C245.456 447.147 245.993 447.044 246.485 446.822Z" fill="white"/>
<path d="M231.199 455.631L241.079 449.923C241.883 449.467 241.773 448.664 240.86 448.099L231.053 442.464C230.586 442.197 230.062 442.047 229.525 442.025C228.988 442.002 228.454 442.109 227.967 442.336L218.068 448.026C217.283 448.482 217.374 449.284 218.287 449.85L228.094 455.503C228.566 455.764 229.093 455.911 229.632 455.934C230.171 455.956 230.707 455.852 231.199 455.631Z" fill="white"/>
<path d="M215.932 464.44L225.83 458.731C226.615 458.275 226.524 457.473 225.611 456.908L215.804 451.254C215.33 450.997 214.804 450.852 214.266 450.83C213.728 450.808 213.192 450.909 212.699 451.126L202.801 456.835C202.015 457.291 202.107 458.093 203.038 458.658L212.827 464.312C213.299 464.573 213.825 464.72 214.364 464.742C214.903 464.764 215.44 464.661 215.932 464.44Z" fill="white"/>
<path d="M200.664 473.248L210.544 467.54C211.348 467.084 211.238 466.282 210.325 465.716L200.518 460.063C200.049 459.802 199.526 459.655 198.99 459.633C198.454 459.611 197.92 459.714 197.431 459.935L187.533 465.643C186.73 466.099 186.839 466.902 187.752 467.467L197.559 473.121C198.031 473.382 198.558 473.529 199.097 473.551C199.635 473.573 200.172 473.47 200.664 473.248Z" fill="white"/>
<path d="M410.173 403.819L439.393 387.022C440.197 386.566 440.087 385.763 439.174 385.198L429.385 379.545C428.913 379.284 428.387 379.136 427.848 379.114C427.309 379.092 426.772 379.196 426.281 379.417L397.06 396.214C396.257 396.669 396.348 397.472 397.279 398.037L407.105 403.819C407.582 404.053 408.107 404.176 408.639 404.176C409.171 404.176 409.696 404.053 410.173 403.819Z" fill="white"/>
<path d="M222.524 512.076L251.745 495.279C252.53 494.823 252.439 494.021 251.507 493.455L241.718 487.802C241.23 487.529 240.682 487.378 240.122 487.362C239.563 487.346 239.008 487.466 238.504 487.711L209.284 504.507C208.48 504.963 208.59 505.766 209.503 506.331L219.31 511.985C219.798 512.261 220.346 512.413 220.906 512.429C221.466 512.445 222.022 512.324 222.524 512.076Z" fill="white"/>
<path d="M283.631 496.319L293.511 490.61C294.315 490.154 294.205 489.352 293.292 488.787L281.622 482.057C281.15 481.796 280.624 481.649 280.085 481.627C279.546 481.605 279.009 481.708 278.518 481.929L268.619 487.619C267.834 488.094 267.925 488.878 268.857 489.443L280.526 496.191C280.998 496.452 281.525 496.599 282.064 496.621C282.603 496.644 283.139 496.54 283.631 496.319Z" fill="white"/>
<path d="M394.558 432.342L410.392 423.223C411.177 422.767 411.086 421.965 410.173 421.399L398.485 414.761C398.016 414.5 397.493 414.353 396.957 414.331C396.421 414.309 395.887 414.412 395.398 414.633L379.565 423.752C378.779 424.208 378.871 425.01 379.784 425.576L391.472 432.305C391.948 432.552 392.475 432.683 393.011 432.689C393.547 432.696 394.077 432.577 394.558 432.342Z" fill="white"/>
<path d="M298.351 487.82L314.166 478.701C314.952 478.245 314.86 477.443 313.947 476.878L302.259 470.148C301.79 469.887 301.267 469.74 300.731 469.718C300.195 469.696 299.661 469.799 299.173 470.02L283.339 479.139C282.554 479.595 282.645 480.397 283.576 480.963L295.246 487.711C295.72 487.969 296.247 488.113 296.786 488.132C297.324 488.151 297.86 488.044 298.351 487.82Z" fill="white"/>
<path d="M372.534 445.053L388.349 435.935C389.134 435.479 389.043 434.676 388.13 434.111L376.442 427.381C375.973 427.121 375.45 426.973 374.914 426.951C374.378 426.929 373.844 427.033 373.355 427.254L357.522 436.372C356.736 436.828 356.828 437.631 357.759 438.196L369.429 444.926C369.901 445.186 370.427 445.334 370.966 445.356C371.505 445.378 372.042 445.274 372.534 445.053Z" fill="white"/>
<path d="M373.246 427.345L304.45 467.011C304.252 467.068 304.077 467.187 303.953 467.352C303.829 467.516 303.762 467.717 303.762 467.923C303.762 468.129 303.829 468.33 303.953 468.494C304.077 468.659 304.252 468.778 304.45 468.835L316.358 475.692C316.839 475.934 317.371 476.06 317.91 476.06C318.449 476.06 318.981 475.934 319.462 475.692L388.258 435.989L373.246 427.345Z" fill="white"/>
<path d="M240.933 512.277L229.976 518.641C229.336 519.006 229.409 519.663 230.158 520.1L234.852 522.854C235.237 523.067 235.668 523.188 236.108 523.207C236.549 523.226 236.987 523.143 237.39 522.964L248.348 516.599C249.005 516.234 248.932 515.578 248.165 515.14L243.399 512.386C243.022 512.184 242.605 512.07 242.178 512.051C241.752 512.032 241.326 512.109 240.933 512.277Z" fill="white"/>
<path d="M256.328 503.395L245.371 509.76C244.713 510.124 244.805 510.781 245.554 511.219L250.32 513.973C250.706 514.186 251.136 514.307 251.576 514.326C252.017 514.345 252.456 514.261 252.859 514.082L263.816 507.717C264.455 507.352 264.382 506.696 263.634 506.258L258.849 503.504C258.465 503.294 258.038 503.175 257.601 503.156C257.164 503.137 256.729 503.219 256.328 503.395Z" fill="white"/>
<path d="M271.614 494.586L260.657 500.951C260.018 501.316 260.091 501.972 260.839 502.41L265.624 505.164C266.01 505.377 266.44 505.498 266.881 505.517C267.321 505.536 267.76 505.452 268.163 505.273L279.12 498.908C279.778 498.544 279.705 497.887 278.938 497.449L274.171 494.696C273.783 494.479 273.35 494.357 272.906 494.338C272.462 494.319 272.02 494.404 271.614 494.586Z" fill="white"/>
<path d="M247.891 498.544L236.934 504.89C236.276 505.273 236.367 505.93 237.116 506.349L241.883 509.103C242.27 509.321 242.704 509.444 243.148 509.463C243.592 509.482 244.035 509.396 244.44 509.213L255.397 502.866C256.055 502.483 255.963 501.826 255.214 501.389L250.43 498.635C250.043 498.423 249.612 498.305 249.171 498.289C248.73 498.273 248.292 498.36 247.891 498.544Z" fill="white"/>
<path d="M350.193 126.845C350.182 126.724 350.182 126.603 350.193 126.483C350.193 126.355 350.193 126.227 350.193 126.12C350.193 126.014 350.193 125.865 350.193 125.737V125.375V124.992V124.587C350.193 124.459 350.193 124.332 350.299 124.204C350.324 124.066 350.359 123.931 350.404 123.799C350.432 123.662 350.468 123.527 350.51 123.394L350.637 123.011L350.764 122.628C350.764 122.5 350.87 122.393 350.912 122.266C351.062 121.904 351.062 121.904 351.21 121.542C351.256 121.41 351.313 121.282 351.378 121.158L351.568 120.775C351.638 120.622 351.715 120.472 351.801 120.328C351.907 120.093 352.034 119.88 352.161 119.646C352.288 119.412 352.521 119.05 352.732 118.752L353.198 118.07L353.536 117.644L353.811 117.282L354.108 116.941L354.404 116.622L354.7 116.303L355.018 115.983L355.356 115.664L355.674 115.387L356.012 115.11L356.351 114.854L356.668 114.62L356.986 114.407L357.303 114.215L409.763 84.3996L409.996 84.2506L410.313 84.1015L410.609 83.9524L410.927 83.8246H411.223L411.519 83.7181H411.837H412.133H412.472H413.53H413.974C414.149 83.7481 414.319 83.7981 414.482 83.8672C414.696 83.9375 414.901 84.0303 415.096 84.1441L423.285 88.9359C423.091 88.8221 422.885 88.7293 422.672 88.659L422.164 88.51H421.719H420.661H420.323H420.026H419.709L419.413 88.6165H419.116L418.82 88.7442L418.503 88.8933L418.206 89.0424L417.952 89.1915L365.493 119.007L365.175 119.199L364.858 119.412L364.54 119.646L364.202 119.902L363.884 120.179C363.762 120.266 363.649 120.366 363.546 120.477L363.207 120.775L362.89 121.094L362.594 121.414L362.297 121.733L362.022 122.074C361.917 122.189 361.818 122.31 361.726 122.436L361.387 122.862L360.922 123.544L360.35 124.438L359.991 125.12L359.758 125.567L359.567 125.971C359.567 126.078 359.462 126.206 359.398 126.333C359.335 126.461 359.292 126.568 359.25 126.695C359.208 126.823 359.144 126.93 359.102 127.058L358.975 127.42C358.916 127.544 358.867 127.672 358.827 127.803L358.7 128.186C358.7 128.335 358.7 128.463 358.7 128.591C358.7 128.719 358.7 128.868 358.594 128.996C358.584 129.123 358.584 129.251 358.594 129.379C358.586 129.514 358.586 129.649 358.594 129.784V130.167V130.529C358.604 130.656 358.604 130.785 358.594 130.912C358.594 130.912 358.594 131.147 358.594 131.274C358.594 131.402 358.594 131.509 358.594 131.636V131.935V187.541V187.903C358.604 188.024 358.604 188.145 358.594 188.265C358.594 188.393 358.594 188.499 358.594 188.627V188.989V189.351C358.594 189.479 358.594 189.607 358.7 189.735L358.827 190.118C358.881 190.271 358.945 190.42 359.017 190.565C359.017 190.736 359.187 190.906 359.292 191.076C359.611 191.603 360.055 192.042 360.583 192.354L352.394 187.562C351.87 187.244 351.427 186.807 351.103 186.284C351.103 186.114 350.891 185.944 350.807 185.773C350.741 185.628 350.684 185.479 350.637 185.326C350.585 185.202 350.543 185.074 350.51 184.943C350.465 184.818 350.43 184.69 350.404 184.559C350.404 184.432 350.404 184.304 350.404 184.197C350.404 184.091 350.404 183.942 350.404 183.835C350.404 183.729 350.404 183.58 350.404 183.473C350.404 183.367 350.404 183.239 350.404 183.111V182.749V127.143L350.193 126.845Z" fill="#D9DAE2"/>
<path d="M365.813 118.628C363.63 120.046 361.812 121.956 360.508 124.204C359.204 126.452 358.45 128.975 358.307 131.568V187.045C358.307 191.804 361.718 193.738 365.877 191.295L418.74 161.548C420.944 160.135 422.782 158.222 424.101 155.966C425.421 153.709 426.185 151.173 426.331 148.566V93.0884C426.331 88.3289 422.94 86.3954 418.761 88.8389L365.813 118.628Z" fill="#EFF0F9"/>
<path fill-rule="evenodd" clip-rule="evenodd" d="M401.223 119.181L387.113 127.328C385.343 128.353 383.646 130.147 382.396 132.315C381.145 134.484 380.442 136.85 380.442 138.894L380.442 160.322C378.867 161.232 377.356 161.381 376.243 160.738C375.129 160.095 374.503 158.712 374.503 156.894L374.504 134.855C374.504 131.415 376.731 127.144 379.778 125.09C380.221 124.792 380.665 124.498 381.11 124.207C381.611 122.803 382.367 121.431 383.297 120.242C384.227 119.054 385.293 118.093 386.381 117.465L389.35 115.75C390.438 115.122 391.505 114.851 392.434 114.967C393.364 115.082 394.12 115.58 394.621 116.405C395.067 116.182 395.512 115.964 395.954 115.75C398.927 114.324 401.12 115.908 401.223 119.181ZM389.35 119.179C390.138 118.724 390.893 118.65 391.45 118.971C392.007 119.292 392.319 119.984 392.319 120.893L383.412 126.036C383.412 125.127 383.725 124.074 384.282 123.11C384.838 122.145 385.594 121.348 386.381 120.893L389.35 119.179Z" fill="#1C7EFF"/>
<path fill-rule="evenodd" clip-rule="evenodd" d="M410.134 121.75C410.134 119.382 408.471 118.424 406.423 119.607L387.123 130.75C385.072 131.935 383.411 134.813 383.411 137.179L383.411 162.893C383.41 165.259 385.073 166.219 387.122 165.036L406.422 153.893C407.406 153.324 408.35 152.328 409.046 151.122C409.742 149.917 410.133 148.601 410.133 147.464L410.134 121.75ZM404.195 131.179C404.195 130.724 404.039 130.378 403.761 130.217C403.482 130.057 403.105 130.094 402.711 130.321L402.695 130.331C402.301 130.558 401.924 130.957 401.645 131.439C401.367 131.921 401.21 132.447 401.21 132.902L401.21 132.92C401.21 133.375 401.367 133.721 401.645 133.881C401.924 134.042 402.301 134.005 402.695 133.777L402.711 133.768C403.105 133.541 403.482 133.142 403.761 132.66C404.039 132.178 404.195 131.651 404.195 131.197L404.195 131.179ZM399.742 133.75C399.742 133.295 399.585 132.95 399.307 132.789C399.028 132.628 398.651 132.666 398.257 132.893L390.834 137.179C390.44 137.406 390.063 137.805 389.784 138.287C389.506 138.769 389.35 139.296 389.35 139.75C389.35 140.205 389.506 140.551 389.784 140.712C390.063 140.872 390.44 140.835 390.834 140.608L398.257 136.322C398.651 136.094 399.028 135.696 399.307 135.213C399.585 134.731 399.742 134.205 399.742 133.75ZM404.195 138.036C404.195 137.581 404.039 137.235 403.76 137.075C403.482 136.914 403.104 136.951 402.711 137.179L402.695 137.188C402.301 137.415 401.923 137.814 401.645 138.296C401.367 138.778 401.21 139.305 401.21 139.759L401.21 139.777C401.21 140.232 401.367 140.578 401.645 140.739C401.923 140.899 402.301 140.862 402.695 140.635L402.711 140.625C403.104 140.398 403.482 139.999 403.76 139.517C404.039 139.035 404.195 138.509 404.195 138.054L404.195 138.036ZM399.741 140.607C399.741 140.153 399.585 139.807 399.307 139.646C399.028 139.485 398.651 139.523 398.257 139.75L390.834 144.036C390.44 144.263 390.063 144.662 389.784 145.144C389.506 145.627 389.349 146.153 389.349 146.608C389.349 147.062 389.506 147.408 389.784 147.569C390.063 147.729 390.44 147.692 390.834 147.465L398.257 143.179C398.651 142.951 399.028 142.553 399.307 142.07C399.585 141.588 399.741 141.062 399.741 140.607ZM404.195 144.893C404.195 144.438 404.039 144.092 403.76 143.932C403.482 143.771 403.104 143.808 402.71 144.036L402.695 144.045C402.301 144.272 401.923 144.671 401.645 145.153C401.366 145.635 401.21 146.162 401.21 146.616L401.21 146.635C401.21 147.089 401.366 147.435 401.645 147.596C401.923 147.756 402.301 147.719 402.695 147.492L402.71 147.483C403.104 147.255 403.482 146.857 403.76 146.374C404.039 145.892 404.195 145.366 404.195 144.911L404.195 144.893ZM399.741 147.464C399.741 147.01 399.585 146.664 399.306 146.503C399.028 146.343 398.65 146.38 398.257 146.607L390.834 150.893C390.44 151.121 390.062 151.519 389.784 152.001C389.506 152.484 389.349 153.01 389.349 153.465C389.349 153.919 389.505 154.265 389.784 154.426C390.062 154.587 390.44 154.549 390.834 154.322L398.257 150.036C398.65 149.809 399.028 149.41 399.306 148.928C399.585 148.445 399.741 147.919 399.741 147.464Z" fill="#1C7EFF"/>
<path d="M136.591 63.9564C136.58 63.836 136.58 63.7148 136.591 63.5944C136.591 63.4666 136.591 63.3388 136.591 63.2323C136.591 63.1259 136.591 62.9768 136.591 62.849V62.4869V62.1036V61.699C136.591 61.5712 136.591 61.4434 136.697 61.3156C136.722 61.1783 136.757 61.043 136.803 60.9109C136.831 60.7742 136.866 60.6392 136.908 60.5063L137.035 60.123L137.162 59.7396C137.162 59.6119 137.268 59.5054 137.31 59.3776C137.46 59.0156 137.46 59.0156 137.608 58.6536C137.654 58.5219 137.711 58.3938 137.776 58.2701L137.966 57.8868C138.036 57.7334 138.113 57.5842 138.199 57.4396C138.305 57.2053 138.432 56.9923 138.559 56.758C138.686 56.5238 138.919 56.1617 139.13 55.8636L139.596 55.1821L139.934 54.7561L140.21 54.3941L140.506 54.0533L140.802 53.7339L141.098 53.4144L141.416 53.095L141.754 52.7755L142.072 52.4986L142.41 52.2218L142.749 51.9662L143.066 51.7319L143.384 51.519L143.701 51.3273L196.161 21.5115L196.394 21.3624L196.711 21.2133L197.007 21.0643L197.325 20.9365H197.621L197.917 20.83H198.235H198.531H198.87H199.928H200.372C200.547 20.8599 200.717 20.9099 200.88 20.9791C201.094 21.0494 201.299 21.1422 201.494 21.256L209.683 26.0478C209.489 25.934 209.283 25.8412 209.07 25.7709L208.562 25.6218H208.117H207.059H206.721H206.424H206.107L205.811 25.7283H205.515L205.218 25.8561L204.901 26.0052L204.605 26.1543L204.351 26.3033L151.891 56.1191L151.573 56.3108L151.256 56.5238L150.939 56.758L150.6 57.0136L150.283 57.2905C150.16 57.3783 150.047 57.4782 149.944 57.5886L149.605 57.8868L149.288 58.2063L148.992 58.5257L148.695 58.8452L148.42 59.1859C148.315 59.3013 148.216 59.4221 148.124 59.5479L147.785 59.9739L147.32 60.6554L146.749 61.5499L146.389 62.2314L146.156 62.6786L145.966 63.0833C145.966 63.1897 145.86 63.3175 145.796 63.4453C145.733 63.5731 145.69 63.6796 145.648 63.8073C145.606 63.9351 145.542 64.0416 145.5 64.1694L145.373 64.5315C145.315 64.6555 145.265 64.7836 145.225 64.9148L145.098 65.2982C145.098 65.4472 145.098 65.575 145.098 65.7028C145.098 65.8306 145.098 65.9796 144.992 66.1074C144.982 66.235 144.982 66.3632 144.992 66.4908C144.984 66.6255 144.984 66.7607 144.992 66.8954V67.2788V67.6408C145.003 67.7684 145.003 67.8966 144.992 68.0242C144.992 68.0242 144.992 68.2584 144.992 68.3862C144.992 68.514 144.992 68.6205 144.992 68.7483V69.0464V124.653V125.015C145.002 125.135 145.002 125.257 144.992 125.377C144.992 125.505 144.992 125.611 144.992 125.739V126.101V126.463C144.992 126.591 144.992 126.719 145.098 126.846L145.225 127.23C145.279 127.383 145.343 127.532 145.415 127.677C145.415 127.847 145.585 128.018 145.69 128.188C146.009 128.715 146.453 129.154 146.981 129.466L138.792 124.674C138.268 124.356 137.825 123.918 137.501 123.396C137.501 123.226 137.289 123.056 137.205 122.885C137.139 122.74 137.082 122.59 137.035 122.438C136.984 122.314 136.941 122.185 136.908 122.055C136.863 121.93 136.828 121.802 136.803 121.671C136.803 121.544 136.803 121.416 136.803 121.309C136.803 121.203 136.803 121.054 136.803 120.947C136.803 120.841 136.803 120.692 136.803 120.585C136.803 120.479 136.803 120.351 136.803 120.223V119.861V64.2546L136.591 63.9564Z" fill="#D9DAE2"/>
<path d="M152.211 55.7398C150.028 57.1577 148.21 59.0681 146.906 61.3162C145.602 63.5643 144.848 66.0869 144.705 68.6796V124.157C144.705 128.916 148.117 130.85 152.275 128.406L205.138 98.6598C207.342 97.2473 209.18 95.3343 210.499 93.0778C211.819 90.8212 212.583 88.2852 212.729 85.6776V30.2003C212.729 25.4408 209.339 23.5073 205.159 25.9507L152.211 55.7398Z" fill="#EFF0F9"/>
<g clip-path="url(#clip1_1949_45137)">
<path d="M189.768 46.6166L170.921 57.4911C167.084 59.7046 165.693 60.9686 164.291 62.6427C162.906 64.287 161.773 66.2466 161.039 68.2674C160.289 70.3226 159.889 72.1584 159.889 76.5851L159.888 98.333C159.888 102.76 160.288 104.134 161.038 105.319C161.77 106.495 162.902 107.15 164.286 107.198C165.692 107.252 167.083 106.911 170.919 104.697L189.766 93.8227C193.603 91.6092 194.994 90.3452 196.396 88.6711C197.781 87.0268 198.914 85.0672 199.648 83.0464C200.398 80.9911 200.798 79.1554 200.798 74.7286L200.799 52.9808C200.799 48.554 200.399 47.1797 199.65 45.9896C198.916 44.8161 197.785 44.1632 196.401 44.1156C194.995 44.062 193.604 44.4031 189.768 46.6166Z" fill="#1C7EFF"/>
<path d="M170.127 67.5269C169.61 67.8271 169.116 68.3507 168.752 68.9828C168.388 69.615 168.183 70.3043 168.183 70.8998L168.183 76.4878L164.124 78.83L164.124 73.242C164.124 71.4031 164.756 69.2748 165.881 67.3234C167.006 65.3721 168.533 63.757 170.127 62.8322L174.983 60.0304L174.983 64.725L170.127 67.5269Z" fill="#EFF0F9"/>
<path d="M168.178 94.4787C168.178 95.0733 168.383 95.5256 168.748 95.7358C169.112 95.946 169.606 95.8971 170.122 95.5997L174.982 92.7955L174.982 97.4689L170.125 100.271C168.535 101.189 167.009 101.341 165.883 100.694C164.757 100.047 164.123 98.6543 164.119 96.8208L164.119 91.2033L168.179 88.8611L168.178 94.4787Z" fill="#EFF0F9"/>
<path d="M192.51 56.8638C192.51 56.2685 192.305 55.8154 191.941 55.6035C191.577 55.3917 191.083 55.4383 190.567 55.7333L185.711 58.5351L185.711 53.8405L190.563 51.041C192.157 50.1256 193.684 49.978 194.81 50.6307C195.936 51.2833 196.568 52.6828 196.568 54.5222L196.568 60.1103L192.51 62.4518L192.51 56.8638Z" fill="#EFF0F9"/>
<path d="M190.562 83.8073C191.077 83.51 191.571 82.9885 191.936 82.3578C192.3 81.727 192.505 81.0385 192.505 80.4438L192.505 74.8251L196.568 72.4812L196.567 78.0987C196.564 79.9362 195.93 82.0612 194.804 84.0075C193.678 85.9538 192.152 87.5625 190.562 88.4807L185.705 91.2831L185.705 86.6097L190.562 83.8073Z" fill="#EFF0F9"/>
<path d="M178.106 86.4998L169.816 81.708L172.556 76.9649L178.103 80.1707L188.131 62.8032L190.871 64.3841L178.106 86.4998Z" fill="#EFF0F9"/>
</g>
<path d="M-0.0187988 302.607C-0.0300217 302.487 -0.0300217 302.365 -0.0187988 302.245C-0.0187988 302.117 -0.0187988 301.989 -0.0187988 301.883C-0.0187988 301.776 -0.0187988 301.627 -0.0187988 301.5V301.138V300.754V300.35C-0.0187988 300.222 -0.0188217 300.094 0.0869827 299.966C0.112297 299.829 0.147697 299.694 0.192833 299.562C0.220757 299.425 0.25605 299.29 0.298615 299.157L0.425583 298.774L0.552544 298.39C0.552544 298.262 0.658371 298.156 0.700691 298.028C0.849937 297.666 0.84996 297.666 0.998085 297.304C1.04453 297.173 1.10107 297.044 1.16625 296.921L1.3567 296.537C1.42594 296.384 1.50369 296.235 1.58951 296.09C1.69532 295.856 1.82225 295.643 1.94923 295.409C2.07619 295.174 2.30894 294.812 2.52056 294.514L2.98612 293.833L3.32471 293.407L3.59983 293.045L3.89613 292.704L4.19235 292.384L4.48865 292.065L4.80606 291.746L5.14465 291.426L5.46207 291.149L5.80066 290.872L6.13926 290.617L6.45667 290.383L6.77408 290.17L7.09149 289.978L59.5513 260.162L59.7841 260.013L60.1015 259.864L60.3977 259.715L60.7152 259.587H61.0114L61.3077 259.481H61.6252H61.9214H62.26H63.3181H63.7624C63.9369 259.511 64.1073 259.561 64.2704 259.63C64.484 259.7 64.6897 259.793 64.884 259.907L73.0736 264.698C72.8793 264.585 72.6736 264.492 72.4599 264.421L71.9521 264.272H71.5076H70.4495H70.1109H69.8147H69.4973L69.201 264.379H68.9048L68.6085 264.507L68.2911 264.656L67.9948 264.805L67.7408 264.954L15.281 294.77L14.9636 294.961L14.6462 295.174L14.3288 295.409L13.9902 295.664L13.6728 295.941C13.5504 296.029 13.437 296.129 13.3342 296.239L12.9956 296.537L12.6782 296.857L12.3819 297.176L12.0857 297.496L11.8106 297.836C11.7056 297.952 11.6066 298.073 11.5143 298.199L11.1757 298.624L10.7102 299.306L10.1388 300.2L9.77906 300.882L9.54625 301.329L9.35581 301.734C9.35581 301.84 9.25003 301.968 9.18654 302.096C9.12306 302.224 9.08072 302.33 9.03839 302.458C8.99607 302.586 8.93257 302.692 8.89025 302.82L8.76328 303.182C8.70481 303.306 8.65529 303.434 8.61514 303.565L8.48817 303.949C8.48817 304.098 8.48817 304.226 8.48817 304.353C8.48817 304.481 8.4882 304.63 8.38239 304.758C8.37252 304.886 8.37252 305.014 8.38239 305.141C8.37452 305.276 8.37452 305.411 8.38239 305.546V305.929V306.291C8.39279 306.419 8.39279 306.547 8.38239 306.675C8.38239 306.675 8.38239 306.909 8.38239 307.037C8.38239 307.165 8.38239 307.271 8.38239 307.399V307.697V363.303V363.665C8.3926 363.786 8.3926 363.907 8.38239 364.028C8.38239 364.155 8.38239 364.262 8.38239 364.39V364.752V365.114C8.38239 365.241 8.38236 365.369 8.48817 365.497L8.61514 365.88C8.6696 366.033 8.73319 366.183 8.80558 366.328C8.80558 366.498 8.97488 366.668 9.0807 366.839C9.3993 367.366 9.84287 367.805 10.3716 368.117L2.18204 363.325C1.65795 363.007 1.21568 362.569 0.891136 362.047C0.891136 361.877 0.679558 361.706 0.59491 361.536C0.529282 361.39 0.472702 361.241 0.425583 361.089C0.373817 360.964 0.331383 360.836 0.298615 360.705C0.253586 360.58 0.218231 360.452 0.192833 360.322C0.192833 360.194 0.192833 360.066 0.192833 359.96C0.192833 359.853 0.192833 359.704 0.192833 359.598C0.192833 359.491 0.192833 359.342 0.192833 359.236C0.192833 359.129 0.192833 359.001 0.192833 358.874V358.512V302.905L-0.0187988 302.607Z" fill="#D9DAE2"/>
<path d="M15.6011 294.39C13.4179 295.808 11.6007 297.719 10.2966 299.967C8.99249 302.215 8.23825 304.737 8.09498 307.33V362.807C8.09498 367.567 11.5068 369.5 15.6651 367.057L68.5279 337.31C70.7326 335.898 72.57 333.985 73.8895 331.728C75.2091 329.472 75.9732 326.936 76.1194 324.328V268.851C76.1194 264.091 72.7288 262.158 68.5493 264.601L15.6011 294.39Z" fill="#EFF0F9"/>
<g clip-path="url(#clip2_1949_45137)">
<path d="M58.2179 288.79C59.8032 287.875 61.3235 287.724 62.4444 288.372C63.5653 289.019 64.195 290.411 64.195 292.241L64.1949 293.967L22.3543 318.125L22.3544 316.4C22.3544 314.569 22.9842 312.45 24.1052 310.508C25.2262 308.567 26.7466 306.962 28.3318 306.046L58.2179 288.79Z" fill="#1C7EFF"/>
<path fill-rule="evenodd" clip-rule="evenodd" d="M22.3542 323.302L64.1948 299.143L64.1942 316.398C64.1942 318.229 63.5644 320.348 62.4434 322.29C61.3224 324.231 59.8021 325.836 58.2168 326.752L28.3307 344.008C26.7454 344.923 25.2251 345.074 24.1042 344.426C22.9833 343.779 22.3536 342.387 22.3537 340.557L22.3542 323.302ZM58.2173 311.222C58.2173 310.764 58.0599 310.416 57.7797 310.255C57.4994 310.093 57.1194 310.13 56.723 310.359L44.7686 317.262C44.3723 317.491 43.9922 317.892 43.7119 318.377C43.4317 318.863 43.2742 319.392 43.2742 319.85C43.2742 320.308 43.4316 320.656 43.7119 320.817C43.9921 320.979 44.3722 320.942 44.7685 320.713L56.7229 313.81C57.1192 313.582 57.4993 313.18 57.7796 312.695C58.0598 312.209 58.2173 311.68 58.2173 311.222ZM56.7228 317.261C57.1191 317.033 57.4992 316.995 57.7794 317.157C58.0597 317.318 58.2171 317.666 58.2171 318.124C58.2171 318.582 58.0596 319.111 57.7794 319.597C57.4991 320.082 57.119 320.484 56.7227 320.712L50.7455 324.164C50.3492 324.392 49.9691 324.43 49.6889 324.268C49.4086 324.106 49.2512 323.759 49.2512 323.301C49.2512 322.843 49.4087 322.313 49.6889 321.828C49.9692 321.343 50.3493 320.941 50.7456 320.713L56.7228 317.261Z" fill="#1C7EFF"/>
</g>
<path d="M159.242 160.718L293.865 83.0467C294.161 82.8742 294.497 82.7828 294.839 82.7817C295.182 82.7807 295.518 82.87 295.815 83.0408C296.112 83.2115 296.359 83.4575 296.53 83.754C296.701 84.0505 296.792 84.387 296.791 84.7295V326.641C296.792 327.346 296.607 328.039 296.255 328.65C295.903 329.262 295.397 329.77 294.787 330.123L160.164 407.78C159.868 407.953 159.532 408.044 159.189 408.045C158.847 408.046 158.51 407.957 158.213 407.786C157.916 407.616 157.67 407.37 157.498 407.073C157.327 406.776 157.237 406.44 157.237 406.098V164.186C157.238 163.483 157.424 162.793 157.775 162.184C158.127 161.575 158.633 161.07 159.242 160.718Z" fill="#D9DAE2"/>
<path d="M166.242 160.718L300.865 83.0467C301.161 82.8742 301.497 82.7828 301.839 82.7817C302.182 82.7807 302.518 82.87 302.815 83.0408C303.112 83.2115 303.359 83.4575 303.53 83.754C303.701 84.0505 303.792 84.387 303.791 84.7295V326.641C303.792 327.346 303.607 328.039 303.255 328.65C302.903 329.262 302.397 329.77 301.787 330.123L167.164 407.78C166.868 407.953 166.532 408.044 166.189 408.045C165.847 408.046 165.51 407.957 165.213 407.786C164.916 407.616 164.67 407.37 164.498 407.073C164.327 406.776 164.237 406.44 164.237 406.098V164.186C164.238 163.483 164.424 162.793 164.775 162.184C165.127 161.575 165.633 161.07 166.242 160.718Z" fill="#FAFAFA"/>
<path d="M171.86 161.655L306.483 83.9831C306.779 83.8106 307.115 83.7192 307.457 83.7181C307.8 83.7171 308.137 83.8065 308.434 83.9772C308.73 84.1479 308.977 84.3939 309.148 84.6904C309.32 84.9869 309.41 85.3234 309.41 85.6659V327.577C309.41 328.282 309.225 328.975 308.873 329.587C308.521 330.198 308.015 330.706 307.405 331.06L172.782 408.717C172.486 408.889 172.15 408.981 171.808 408.982C171.465 408.983 171.128 408.893 170.832 408.723C170.535 408.552 170.288 408.306 170.117 408.009C169.945 407.713 169.855 407.376 169.855 407.034V165.123C169.856 164.42 170.042 163.729 170.394 163.12C170.746 162.512 171.251 162.006 171.86 161.655Z" fill="#EFF0F9"/>
<path d="M192.585 181.647L192.585 183.279L185.491 187.375L185.491 185.743L192.585 181.647ZM185.761 179.079L185.761 194.215L184.023 195.219L184.024 180.082L185.761 179.079ZM194.098 174.266L194.097 189.402L192.369 190.4L192.369 175.264L194.098 174.266Z" fill="#090909"/>
<path d="M202.2 170.928L197.86 187.229L196.087 188.253L201.084 170.232L202.227 169.572L202.2 170.928ZM205.837 182.623L201.489 171.339L201.462 170.013L202.605 169.353L207.619 181.594L205.837 182.623ZM205.612 177.15L205.612 178.793L198.248 183.045L198.248 181.402L205.612 177.15Z" fill="#090909"/>
<path d="M211.194 164.394L211.194 179.53L209.456 180.534L209.457 165.398L211.194 164.394ZM219.27 159.732L213.58 171.344L210.501 173.122L210.231 171.614L212.544 170.278L217.118 160.974L219.27 159.732ZM217.523 175.876L212.598 171.65L213.571 169.332L219.647 174.649L217.523 175.876Z" fill="#090909"/>
<path d="M229.65 153.738L229.65 155.381L223.654 158.843L223.654 157.2L229.65 153.738ZM231.144 152.875L231.144 168.011L229.406 169.015L229.407 153.878L231.144 152.875ZM223.06 157.543L224.788 156.545L224.491 164.129C224.449 165.22 224.377 166.215 224.275 167.112C224.179 167.999 224.041 168.803 223.861 169.524C223.681 170.238 223.446 170.879 223.158 171.447C222.87 172.009 222.516 172.508 222.096 172.944C221.682 173.378 221.184 173.762 220.602 174.098L220.133 174.369L220.133 172.737L220.494 172.497C220.83 172.276 221.118 172.023 221.358 171.739C221.604 171.444 221.811 171.096 221.979 170.694C222.153 170.288 222.294 169.812 222.402 169.264C222.51 168.717 222.594 168.076 222.654 167.341C222.72 166.596 222.771 165.742 222.807 164.779L223.06 157.543Z" fill="#090909"/>
<path d="M239.292 149.512L234.952 165.813L233.178 166.837L238.176 148.815L239.319 148.155L239.292 149.512ZM242.929 161.207L238.581 149.923L238.554 148.597L239.697 147.937L244.711 160.178L242.929 161.207ZM242.704 155.734L242.704 157.376L235.339 161.628L235.339 159.986L242.704 155.734Z" fill="#090909"/>
<path d="M256.955 151.476L256.955 153.108L247.034 158.837L247.034 157.204L256.955 151.476ZM247.313 157.043L247.313 162.397L245.593 163.39L245.584 158.041L247.313 157.043ZM258.467 150.603L258.449 155.957L256.73 156.949L256.73 151.606L258.467 150.603ZM255.254 138.954L255.254 140.597L249.51 143.913L249.51 142.271L255.254 138.954ZM256.748 138.092L256.748 153.228L255.019 154.226L255.02 139.09L256.748 138.092ZM248.916 142.614L250.653 141.611L250.383 147.859C250.347 148.794 250.272 149.683 250.158 150.525C250.044 151.36 249.903 152.145 249.735 152.88C249.567 153.614 249.375 154.297 249.159 154.928C248.942 155.551 248.711 156.118 248.465 156.627C248.219 157.13 247.961 157.577 247.691 157.969C247.427 158.35 247.16 158.667 246.89 158.92L246.098 159.377L246.098 157.745L246.656 157.423C246.812 157.139 246.989 156.756 247.187 156.274C247.391 155.789 247.592 155.198 247.79 154.502C247.994 153.795 248.171 152.975 248.321 152.043C248.477 151.107 248.583 150.049 248.637 148.867L248.916 142.614Z" fill="#090909"/>
<path d="M269.073 137.483L269.073 139.115L261.979 143.211L261.979 141.579L269.073 137.483ZM262.249 134.915L262.249 150.052L260.511 151.055L260.512 135.919L262.249 134.915ZM270.586 130.102L270.585 145.238L268.857 146.236L268.857 131.1L270.586 130.102Z" fill="#090909"/>
<path d="M278.688 126.765L274.348 143.065L272.575 144.089L277.572 126.068L278.715 125.408L278.688 126.765ZM282.325 138.46L277.977 127.175L277.95 125.85L279.093 125.19L284.107 137.431L282.325 138.46ZM282.1 132.986L282.1 134.629L274.736 138.881L274.736 137.239L282.1 132.986Z" fill="#090909"/>
<path d="M293.137 126.322L289.455 128.448L288.6 128.537C287.652 128.738 286.923 128.629 286.412 128.209C285.902 127.783 285.647 127.037 285.647 125.969C285.647 124.992 285.833 124.056 286.205 123.162C286.584 122.265 287.118 121.44 287.808 120.688C288.504 119.933 289.327 119.281 290.275 118.734L294.47 116.311L294.47 131.447L292.732 132.451L292.733 118.957L290.275 120.376C289.314 120.931 288.591 121.612 288.105 122.419C287.625 123.223 287.385 124.072 287.385 124.966C287.385 125.548 287.49 126.007 287.7 126.343C287.916 126.676 288.234 126.853 288.654 126.874C289.074 126.894 289.596 126.725 290.221 126.364L293.146 124.675L293.137 126.322ZM290.185 126.988L286.997 135.762L285.152 136.828L288.429 128.001L290.185 126.988Z" fill="#090909"/>
<path d="M232.499 311.262L225.841 315.11V311.423L232.499 307.589V311.262ZM235.104 306.067L248.756 298.136V301.809L235.118 309.681L235.104 306.067ZM271.466 179.126L253.161 189.852V186.106L271.466 175.454V179.126ZM281.856 165.649L264.106 175.893V172.293L281.856 162.05V165.649ZM274.086 173.932L294.572 162.064V165.737L274.086 177.605V173.932ZM284.49 160.455L294.616 154.602V158.275L284.49 164.128V160.455Z" fill="#1C7EFF"/>
<path d="M197.819 357.552L184.342 365.366V361.707L197.819 353.893V357.552Z" fill="#1C7EFF"/>
<path d="M270.148 302.214C270.651 300.485 271.673 298.953 273.075 297.824L273.675 298.79C272.535 299.767 271.701 301.052 271.275 302.492C270.802 304.705 270.872 306.999 271.48 309.179C272.188 307.894 272.498 306.427 272.373 304.965C272.133 304.517 272.046 304.003 272.124 303.502C272.147 303.377 272.212 303.265 272.308 303.182C272.403 303.1 272.524 303.052 272.651 303.048C272.781 303.027 272.914 303.058 273.021 303.135C273.128 303.212 273.2 303.328 273.221 303.458C273.341 303.854 273.424 304.261 273.47 304.672C274.07 305.412 274.787 306.05 275.592 306.56C275.885 306.765 276.163 306.97 276.411 307.174C277.568 308.058 278.525 309.174 279.221 310.452L280.567 308.843C281.489 307.774 282.455 306.706 283.406 305.638C285.396 303.414 287.43 301.16 289.259 298.804C289.449 297.648 289.698 296.448 290.035 295.161C290.283 294.21 291.044 291.312 293.912 290.625C294.01 290.598 294.113 290.598 294.21 290.626C294.308 290.653 294.396 290.706 294.465 290.78C294.534 290.854 294.582 290.945 294.603 291.044C294.625 291.143 294.618 291.246 294.585 291.342C293.615 294.198 292.176 296.873 290.327 299.258C289.914 301.683 289.954 304.164 290.444 306.574C290.943 308.865 291.976 311.006 293.459 312.823L292.844 313.862C291.108 311.845 289.905 309.425 289.347 306.823C288.938 304.901 288.819 302.928 288.996 300.97C287.532 302.814 285.908 304.614 284.313 306.384C283.362 307.438 282.411 308.491 281.504 309.56C280.948 310.189 280.392 310.877 279.821 311.579C280.466 313.275 280.687 315.104 280.465 316.905C279.859 320.355 278.634 323.666 276.85 326.68C276.603 327.327 276.177 327.892 275.623 328.308C275.07 328.725 274.41 328.977 273.719 329.036H273.353C273.242 329.019 273.138 328.97 273.055 328.895C272.972 328.819 272.912 328.721 272.885 328.612C271.348 322.305 274.86 316.144 278.519 311.433C277.894 310.109 276.96 308.955 275.797 308.067C275.548 307.862 275.285 307.672 275.007 307.482C274.729 307.291 274.026 306.765 273.543 306.37C273.392 308.061 272.763 309.675 271.729 311.023C271.664 311.109 271.575 311.174 271.474 311.21C271.373 311.246 271.263 311.252 271.158 311.228C271.054 311.205 270.959 311.153 270.884 311.078C270.809 311.003 270.757 310.907 270.734 310.803C269.829 308.033 269.628 305.081 270.148 302.214ZM292.99 292.146C291.951 292.95 291.251 294.114 291.03 295.41L290.766 296.434C291.648 295.082 292.393 293.646 292.99 292.146ZM273.777 327.88C274.758 327.778 275.416 326.768 275.738 326.139C277.453 323.244 278.642 320.068 279.25 316.759C279.413 315.368 279.288 313.959 278.884 312.618C275.621 316.935 272.651 322.407 273.777 327.88Z" fill="#090909"/>
<g style="mix-blend-mode:multiply" opacity="0.8">
<path d="M184.342 369.146L203.643 358.083V361.771L184.342 372.819V369.146Z" fill="#090909"/>
</g>
<path d="M184.342 254.735L295.216 190.73V172.088L184.342 236.107V254.735Z" fill="#1C7EFF"/>
<path d="M293.752 174.62L185.805 236.941V325.938L293.752 263.617V174.62ZM295.216 172.088V264.48L184.342 328.499V236.107L295.216 172.088Z" fill="#090909"/>
<path d="M218.788 308.525L185.805 327.548V341.127L218.788 322.105V308.525ZM220.251 305.994V323.012L184.342 343.747V326.729L220.251 305.994Z" fill="#090909"/>
<path d="M293.74 190.733L294.472 192L185.818 254.731L185.086 253.464L293.74 190.733Z" fill="#090909"/>
<path d="M293.74 205.366L294.471 206.633L185.818 269.364L185.086 268.097L293.74 205.366Z" fill="#090909"/>
<path d="M293.739 219.998L294.471 221.266L185.817 283.997L185.085 282.73L293.739 219.998Z" fill="#090909"/>
<path d="M293.739 234.631L294.471 235.899L185.817 298.63L185.085 297.363L293.739 234.631Z" fill="#090909"/>
<path d="M293.738 249.264L294.47 250.532L185.816 313.263L185.085 311.996L293.738 249.264Z" fill="#090909"/>
<path d="M232.47 208.597H233.933V299.921H232.47V208.597Z" fill="#090909"/>
<path d="M218.744 216.528H220.207V307.852H218.744V216.528Z" fill="#090909"/>
</g>
<defs>
<clipPath id="clip0_1949_45137">
<rect width="544" height="622" fill="white"/>
</clipPath>
<clipPath id="clip1_1949_45137">
<rect width="47.2312" height="47.2061" fill="white" transform="matrix(-0.866163 0.499762 -3.19133e-05 1 200.855 40.2198)"/>
</clipPath>
<clipPath id="clip2_1949_45137">
<rect width="56.0298" height="56" fill="white" transform="matrix(-0.866163 0.499762 -3.19133e-05 1 67.5406 272.323)"/>
</clipPath>
</defs>
</svg>
