<svg width="473" height="321" viewBox="0 0 473 321" fill="none" xmlns="http://www.w3.org/2000/svg">
<g style="mix-blend-mode:multiply">
<path d="M227.573 169.504L213.384 314.984H390.648L464.034 272.619L262.997 161.276H213.807L227.573 169.504Z" fill="#E5F8FF"/>
</g>
<path d="M213.383 181.071V314.984L331.919 246.476V112.563L213.383 181.071Z" fill="#CCCCCC"/>
<path d="M47.2047 85.0565V218.969L213.381 314.984V181.071L47.2047 85.0565Z" fill="#FAFAFA"/>
<g style="mix-blend-mode:multiply">
<path d="M47.2047 91.4044V134.286L213.381 230.301V187.419L47.2047 91.4044Z" fill="#EFF0F9"/>
</g>
<path d="M203.608 307.461L99.5899 247.369V164.567L203.608 224.706V307.461Z" fill="#FAFAFA"/>
<path d="M102.363 175.852V245.724L195.247 299.42V229.361L102.363 175.711V175.852ZM96.8192 166.166L200.838 226.304V309.294L96.8192 249.203V166.166Z" fill="#8EB780"/>
<path d="M99.5899 164.567L96.8178 166.213L200.836 226.304L203.608 224.706L99.5899 164.567Z" fill="#527A45"/>
<path d="M200.836 226.304V309.059L203.608 307.461V224.705L200.836 226.304Z" fill="#090909"/>
<path d="M102.366 175.852V245.771L105.185 244.125V177.451L102.366 175.852Z" fill="#5C5C5C"/>
<path d="M105.182 244.125L102.364 245.77L195.294 299.42V296.223L105.182 244.125Z" fill="#527A45"/>
<path d="M148.922 202.747V272.619L151.741 271.02V204.346L148.922 202.747Z" fill="#090909"/>
<path d="M146.151 201.149V271.02L148.923 272.619V202.747L146.151 201.149Z" fill="#8EB780"/>
<path d="M86.1528 238.953L58.0105 222.684V149.192L86.1528 165.461V238.953Z" fill="#FAFAFA"/>
<path d="M91.3237 163.204V247.134L86.1557 244.125L57.9663 227.856L52.7514 224.847V140.963L57.9663 143.972L86.1557 160.241L91.3237 163.204ZM58.0134 149.098V188.547L86.2027 204.769V165.413L58.0134 149.098ZM86.2027 238.858V209.988L58.0134 193.72V222.59L86.2027 238.858Z" fill="#5C5C5C"/>
<path d="M91.3237 163.204V247.134L86.1557 244.125L57.9663 227.856L52.7514 224.847V140.963L57.9663 143.972L86.1557 160.241L91.3237 163.204ZM58.0134 149.098V188.547L86.2027 204.769V165.413L58.0134 149.098ZM86.2027 238.858V209.988L58.0134 193.72V222.59L86.2027 238.858Z" fill="#8EB780"/>
<path d="M88.4115 158.925L60.3161 142.656L55.1011 139.647L52.7989 140.963L58.014 143.973L86.1563 160.241L91.3714 163.251L93.6265 161.934L88.4115 158.925Z" fill="#527A45"/>
<path d="M91.3714 163.251V168.47V241.962V247.134L93.6265 245.818V240.645V167.153V161.934L91.3714 163.251Z" fill="#5C5C5C"/>
<path d="M58.0114 149.192V188.594L60.3135 187.278V150.508L58.0114 149.192Z" fill="#5C5C5C"/>
<path d="M60.3126 187.278L58.0105 188.594L86.1528 204.863V202.23L60.3126 187.278Z" fill="#527A45"/>
<path d="M58.0114 193.814V222.684L60.3135 221.367V195.13L58.0114 193.814Z" fill="#5C5C5C"/>
<path d="M60.3126 221.367L58.0105 222.684L86.1528 238.953V236.319L60.3126 221.367Z" fill="#527A45"/>
<path d="M36.3084 139.835L53.9268 111.012L16.106 146.417L15.965 152.107L36.3084 139.835Z" fill="#CCCCCC"/>
<path d="M15.966 152.107L16.1069 146.417L9.10663 142.374L8.96569 148.11L15.966 152.107Z" fill="#EFF0F9"/>
<path d="M46.8794 107.015L53.9268 111.011L16.106 146.417L9.10568 142.374L46.8794 107.015Z" fill="#FAFAFA"/>
<path d="M69.7603 138.283V120.18L31.9395 155.539L31.7985 161.276L69.7603 138.283Z" fill="#CCCCCC"/>
<path d="M31.7936 161.276L31.9346 155.539L16.1016 146.417L15.9606 152.107L31.7936 161.276Z" fill="#527A45"/>
<path d="M53.9273 111.012L69.7603 120.18L31.9395 155.539L16.1065 146.418L53.9273 111.012Z" fill="#8EB780"/>
<path d="M76.7573 142.28V124.177L38.9836 159.583L38.8426 165.272L76.7573 142.28Z" fill="#CCCCCC"/>
<path d="M38.8425 165.273L38.9834 159.583L31.9361 155.539L31.7951 161.276L38.8425 165.273Z" fill="#EFF0F9"/>
<path d="M69.757 120.18L76.7573 124.177L38.9836 159.583L31.9362 155.539L69.757 120.18Z" fill="#FAFAFA"/>
<path d="M92.5908 151.449V133.346L54.7702 168.705L72.2476 163.721L92.5908 151.449Z" fill="#CCCCCC"/>
<path d="M54.676 174.441L54.77 168.705L38.9839 159.583L38.843 165.273L54.676 174.441Z" fill="#527A45"/>
<path d="M76.7578 124.177L92.5908 133.346L54.7702 168.705L38.9841 159.583L76.7578 124.177Z" fill="#8EB780"/>
<path d="M99.5908 155.445V137.343L61.8171 172.702L61.6761 178.438L99.5908 155.445Z" fill="#CCCCCC"/>
<path d="M61.6774 178.438L61.8184 172.701L54.771 168.705L54.677 174.441L61.6774 178.438Z" fill="#EFF0F9"/>
<path d="M92.5904 133.346L99.5908 137.343L61.8171 172.702L54.7697 168.705L92.5904 133.346Z" fill="#FAFAFA"/>
<path d="M115.425 164.614V146.512L77.6511 181.87L77.5101 187.607L115.425 164.614Z" fill="#CCCCCC"/>
<path d="M77.5094 187.607L77.6504 181.871L61.8174 172.702L61.6765 178.438L77.5094 187.607Z" fill="#527A45"/>
<path d="M99.5918 137.343L115.425 146.512L77.6511 181.87L61.8181 172.702L99.5918 137.343Z" fill="#8EB780"/>
<path d="M122.426 168.611V150.508L84.6525 185.867L84.5116 191.604L122.426 168.611Z" fill="#CCCCCC"/>
<path d="M84.5114 191.604L84.6523 185.867L77.652 181.87L77.5111 187.607L84.5114 191.604Z" fill="#EFF0F9"/>
<path d="M115.426 146.512L122.426 150.508L84.6525 185.867L77.6522 181.87L115.426 146.512Z" fill="#FAFAFA"/>
<path d="M138.26 177.78V159.677L100.486 195.036L100.345 200.772L138.26 177.78Z" fill="#CCCCCC"/>
<path d="M100.345 200.772L100.486 195.036L84.6529 185.867L84.5119 191.604L100.345 200.772Z" fill="#527A45"/>
<path d="M122.427 150.508L138.26 159.677L100.486 195.036L84.653 185.867L122.427 150.508Z" fill="#8EB780"/>
<path d="M145.257 181.776V163.674L107.483 199.033L107.342 204.769L145.257 181.776Z" fill="#CCCCCC"/>
<path d="M107.342 204.769L107.483 199.033L100.482 195.036L100.342 200.772L107.342 204.769Z" fill="#EFF0F9"/>
<path d="M138.256 159.677L145.257 163.674L107.483 199.033L100.483 195.036L138.256 159.677Z" fill="#FAFAFA"/>
<path d="M161.091 190.945V172.843L123.317 208.202L123.176 213.938L161.091 190.945Z" fill="#CCCCCC"/>
<path d="M123.175 213.938L123.316 208.202L107.483 199.033L107.342 204.769L123.175 213.938Z" fill="#527A45"/>
<path d="M145.258 163.674L161.091 172.842L123.317 208.202L107.484 199.033L145.258 163.674Z" fill="#8EB780"/>
<path d="M168.138 194.942V176.839L130.317 212.198L130.176 217.935L168.138 194.942Z" fill="#CCCCCC"/>
<path d="M130.177 217.935L130.318 212.198L123.318 208.202L123.177 213.938L130.177 217.935Z" fill="#EFF0F9"/>
<path d="M161.09 172.843L168.138 176.839L130.317 212.198L123.317 208.202L161.09 172.843Z" fill="#FAFAFA"/>
<path d="M183.971 204.111V186.008L146.15 221.367L146.009 227.104L183.971 204.111Z" fill="#CCCCCC"/>
<path d="M146.011 227.104L146.152 221.367L130.319 212.198L130.178 217.935L146.011 227.104Z" fill="#527A45"/>
<path d="M168.138 176.839L183.971 186.008L146.15 221.367L130.317 212.198L168.138 176.839Z" fill="#8EB780"/>
<path d="M190.973 208.108V190.005L153.152 225.364L153.058 231.1L190.973 208.108Z" fill="#CCCCCC"/>
<path d="M153.059 231.1L153.153 225.364L146.153 221.367L146.012 227.104L153.059 231.1Z" fill="#EFF0F9"/>
<path d="M183.972 186.008L190.973 190.005L153.152 225.364L146.152 221.367L183.972 186.008Z" fill="#FAFAFA"/>
<path d="M206.807 217.276V199.174L168.986 234.533L168.845 240.269L206.807 217.276Z" fill="#CCCCCC"/>
<path d="M168.846 240.269L168.987 234.533L153.154 225.364L153.06 231.1L168.846 240.269Z" fill="#527A45"/>
<path d="M190.974 190.005L206.807 199.174L168.986 234.533L153.153 225.364L190.974 190.005Z" fill="#8EB780"/>
<path d="M213.808 221.273V203.171L176.034 238.529L175.893 244.266L213.808 221.273Z" fill="#CCCCCC"/>
<path d="M175.893 244.266L176.034 238.529L168.987 234.533L168.846 240.269L175.893 244.266Z" fill="#EFF0F9"/>
<path d="M206.808 199.174L213.808 203.17L176.034 238.529L168.987 234.533L206.808 199.174Z" fill="#FAFAFA"/>
<path d="M38.0904 79.7904L165.788 6.01617L341.032 107.297L213.381 181.071L38.0904 79.7904Z" fill="#CCCCCC"/>
<path d="M165.789 19.1817V32.8645L306.407 114.162L318.247 107.297L165.789 19.1817Z" fill="#FAFAFA"/>
<path d="M60.9247 79.7904L72.7642 86.6553L165.789 32.8645V19.1817L60.9247 79.7904Z" fill="#CCCCCC"/>
<path d="M306.41 114.162L165.792 32.8646L72.7675 86.6553L213.385 167.906L306.41 114.162Z" fill="#CCCCCC"/>
<g style="mix-blend-mode:multiply">
<path d="M82.1608 92.3446L72.7644 86.6553L165.789 32.8645V19.1817L175.327 38.3659L82.1608 92.3446Z" fill="#EFF0F9"/>
</g>
<path d="M213.381 181.071V190.24L341.032 116.419V107.297L213.381 181.071Z" fill="#5C5C5C"/>
<path d="M38.0901 79.7903V88.9122L213.381 190.24V181.071L38.0901 79.7903Z" fill="#CCCCCC"/>
<g style="mix-blend-mode:multiply">
<path d="M306.41 114.162L240.541 75.9818L195.015 102.266L211.976 112.093L205.398 124.459H233.353L244.065 130.619L240.541 144.396H250.924L251.582 144.772L306.41 114.162Z" fill="#EFF0F9"/>
</g>
<path d="M255.854 82.3293L233.443 95.3069L210.986 82.3293L233.443 69.3519L255.854 82.3293Z" fill="#D9DAE2"/>
<path d="M233.443 95.3069V108.237L255.854 95.3069V82.3293L233.443 95.3069Z" fill="#FAFAFA"/>
<path d="M210.988 82.3293V95.3069L233.445 108.237V95.3069L210.988 82.3293Z" fill="#D9DAE2"/>
<g style="mix-blend-mode:multiply">
<path d="M241.525 78.1447C239.014 76.8685 236.237 76.2034 233.421 76.2034C230.604 76.2034 227.827 76.8685 225.316 78.1447C224.503 78.5446 223.787 79.1181 223.218 79.8249C222.65 80.5316 222.244 81.3544 222.028 82.2354C222.231 83.1216 222.633 83.9501 223.203 84.6586C223.772 85.3671 224.495 85.9372 225.316 86.3261C227.827 87.6023 230.604 88.2674 233.421 88.2674C236.237 88.2674 239.014 87.6023 241.525 86.3261C242.353 85.94 243.083 85.3715 243.661 84.6632C244.239 83.9548 244.649 83.1248 244.861 82.2354C244.634 81.3526 244.218 80.5298 243.642 79.8236C243.066 79.1173 242.344 78.5445 241.525 78.1447Z" fill="#D9DAE2"/>
</g>
<path d="M237.766 79.7432C238.28 79.9325 238.724 80.2751 239.038 80.725C239.352 81.1748 239.52 81.7102 239.52 82.2588C239.52 82.8073 239.352 83.3427 239.038 83.7926C238.724 84.2424 238.28 84.5851 237.766 84.7744C236.415 85.4455 234.928 85.7947 233.42 85.7947C231.912 85.7947 230.425 85.4455 229.074 84.7744C228.56 84.5851 228.116 84.2424 227.802 83.7926C227.488 83.3427 227.32 82.8073 227.32 82.2588C227.32 81.7102 227.488 81.1748 227.802 80.725C228.116 80.2751 228.56 79.9325 229.074 79.7432C230.425 79.0721 231.912 78.723 233.42 78.723C234.928 78.723 236.415 79.0721 237.766 79.7432Z" fill="#D9DAE2"/>
<path d="M225.315 78.1447C227.827 76.8685 230.603 76.2033 233.42 76.2033C236.236 76.2033 239.013 76.8685 241.524 78.1447C242.343 78.5444 243.065 79.1173 243.641 79.8235C244.217 80.5298 244.633 81.3526 244.86 82.2354C244.908 81.1216 244.615 80.0198 244.018 79.0782C243.422 78.1367 242.552 77.4006 241.524 76.9692C239.013 75.693 236.236 75.0278 233.42 75.0278C230.603 75.0278 227.827 75.693 225.315 76.9692C224.293 77.4024 223.429 78.1404 222.84 79.0827C222.252 80.0249 221.968 81.1257 222.027 82.2354C222.243 81.3544 222.649 80.5316 223.218 79.8248C223.786 79.118 224.502 78.5446 225.315 78.1447Z" fill="#FAFAFA"/>
<path d="M227.852 98.5041L205.395 111.482L182.984 98.5041L205.395 85.5736L227.852 98.5041Z" fill="#D9DAE2"/>
<path d="M205.395 111.482V124.459L227.852 111.482V98.5041L205.395 111.482Z" fill="#FAFAFA"/>
<path d="M182.988 98.5041V111.482L205.398 124.459V111.482L182.988 98.5041Z" fill="#D9DAE2"/>
<g style="mix-blend-mode:multiply">
<path d="M213.525 94.3666C211.014 93.0904 208.237 92.4253 205.42 92.4253C202.604 92.4253 199.827 93.0904 197.316 94.3666C196.488 94.7528 195.758 95.3212 195.18 96.0296C194.602 96.7379 194.192 97.5679 193.98 98.4573C194.207 99.3401 194.623 100.163 195.199 100.869C195.775 101.576 196.497 102.148 197.316 102.548C199.827 103.824 202.604 104.489 205.42 104.489C208.237 104.489 211.014 103.824 213.525 102.548C214.338 102.148 215.054 101.575 215.623 100.868C216.191 100.161 216.597 99.3383 216.813 98.4573C216.61 97.5711 216.208 96.7427 215.638 96.0341C215.069 95.3256 214.346 94.7555 213.525 94.3666Z" fill="#D9DAE2"/>
</g>
<path d="M209.764 95.871C210.279 96.0603 210.723 96.4031 211.037 96.8529C211.35 97.3028 211.519 97.838 211.519 98.3866C211.519 98.9351 211.35 99.4705 211.037 99.9204C210.723 100.37 210.279 100.713 209.764 100.902C208.414 101.573 206.927 101.923 205.419 101.923C203.911 101.923 202.423 101.573 201.073 100.902C200.558 100.713 200.114 100.37 199.801 99.9204C199.487 99.4705 199.319 98.9351 199.319 98.3866C199.319 97.838 199.487 97.3028 199.801 96.8529C200.114 96.4031 200.558 96.0603 201.073 95.871C202.423 95.1999 203.911 94.8508 205.419 94.8508C206.927 94.8508 208.414 95.1999 209.764 95.871Z" fill="#D9DAE2"/>
<path d="M197.457 94.3665C199.969 93.0903 202.745 92.4251 205.562 92.4251C208.378 92.4251 211.155 93.0903 213.666 94.3665C214.488 94.7554 215.21 95.3255 215.78 96.034C216.35 96.7425 216.751 97.571 216.955 98.4572C217.024 97.3398 216.745 96.2285 216.155 95.2768C215.566 94.3251 214.697 93.5798 213.666 93.1439C211.155 91.8677 208.378 91.2026 205.562 91.2026C202.745 91.2026 199.969 91.8677 197.457 93.1439C196.427 93.5837 195.555 94.3283 194.958 95.2779C194.362 96.2276 194.07 97.3368 194.122 98.4572C194.334 97.5678 194.744 96.7378 195.322 96.0294C195.899 95.321 196.629 94.7526 197.457 94.3665Z" fill="#FAFAFA"/>
<path d="M290.999 102.266L268.588 115.243L246.131 102.266L268.588 89.3354L290.999 102.266Z" fill="#D9DAE2"/>
<path d="M268.588 115.243V128.221L290.999 115.243V102.266L268.588 115.243Z" fill="#FAFAFA"/>
<path d="M246.127 102.266V115.243L268.585 128.221V115.243L246.127 102.266Z" fill="#D9DAE2"/>
<g style="mix-blend-mode:multiply">
<path d="M276.668 98.128C274.157 96.8518 271.38 96.1866 268.564 96.1866C265.747 96.1866 262.971 96.8518 260.459 98.128C259.525 98.3296 258.688 98.8457 258.087 99.59C257.487 100.334 257.159 101.262 257.159 102.219C257.159 103.175 257.487 104.103 258.087 104.847C258.688 105.592 259.525 106.108 260.459 106.309C262.971 107.586 265.747 108.251 268.564 108.251C271.38 108.251 274.157 107.586 276.668 106.309C277.603 106.108 278.44 105.592 279.04 104.847C279.641 104.103 279.968 103.175 279.968 102.219C279.968 101.262 279.641 100.334 279.04 99.59C278.44 98.8457 277.603 98.3296 276.668 98.128Z" fill="#D9DAE2"/>
</g>
<path d="M272.91 99.6799C273.424 99.8691 273.868 100.212 274.182 100.662C274.496 101.112 274.664 101.647 274.664 102.195C274.664 102.744 274.496 103.279 274.182 103.729C273.868 104.179 273.424 104.522 272.91 104.711C271.568 105.411 270.077 105.777 268.564 105.777C267.051 105.777 265.56 105.411 264.218 104.711C263.704 104.522 263.26 104.179 262.946 103.729C262.632 103.279 262.464 102.744 262.464 102.195C262.464 101.647 262.632 101.112 262.946 100.662C263.26 100.212 263.704 99.8691 264.218 99.6799C265.569 99.0088 267.056 98.6595 268.564 98.6595C270.072 98.6595 271.559 99.0088 272.91 99.6799Z" fill="#D9DAE2"/>
<path d="M260.459 98.1281C262.971 96.8519 265.747 96.1868 268.564 96.1868C271.38 96.1868 274.157 96.8519 276.668 98.1281C277.496 98.5082 278.224 99.0757 278.794 99.7856C279.365 100.496 279.763 101.328 279.957 102.219C280.03 101.107 279.751 99.9999 279.161 99.0548C278.571 98.1097 277.699 97.3743 276.668 96.9526C274.157 95.6764 271.38 95.0113 268.564 95.0113C265.747 95.0113 262.971 95.6764 260.459 96.9526C259.428 97.3743 258.556 98.1097 257.966 99.0548C257.376 99.9999 257.098 101.107 257.17 102.219C257.374 101.333 257.776 100.504 258.346 99.7956C258.915 99.0871 259.638 98.517 260.459 98.1281Z" fill="#FAFAFA"/>
<path d="M262.998 118.488L240.54 131.418L218.13 118.488L240.54 105.51L262.998 118.488Z" fill="#D9DAE2"/>
<path d="M240.54 131.418V144.396L262.998 131.418V118.488L240.54 131.418Z" fill="#FAFAFA"/>
<path d="M218.127 118.488V131.418L240.538 144.396V131.418L218.127 118.488Z" fill="#D9DAE2"/>
<g style="mix-blend-mode:multiply">
<path d="M248.667 114.303C246.156 113.027 243.379 112.362 240.562 112.362C237.746 112.362 234.969 113.027 232.458 114.303C231.524 114.505 230.686 115.021 230.086 115.765C229.486 116.509 229.158 117.437 229.158 118.394C229.158 119.35 229.486 120.278 230.086 121.022C230.686 121.767 231.524 122.283 232.458 122.484C234.969 123.761 237.746 124.426 240.562 124.426C243.379 124.426 246.156 123.761 248.667 122.484C249.601 122.283 250.438 121.767 251.039 121.022C251.639 120.278 251.967 119.35 251.967 118.394C251.967 117.437 251.639 116.509 251.039 115.765C250.438 115.021 249.601 114.505 248.667 114.303Z" fill="#D9DAE2"/>
</g>
<path d="M244.91 115.902C245.425 116.091 245.869 116.433 246.182 116.883C246.496 117.333 246.664 117.869 246.664 118.417C246.664 118.966 246.496 119.501 246.182 119.951C245.869 120.401 245.425 120.743 244.91 120.933C243.56 121.604 242.072 121.953 240.564 121.953C239.056 121.953 237.569 121.604 236.218 120.933C235.704 120.743 235.26 120.401 234.946 119.951C234.633 119.501 234.464 118.966 234.464 118.417C234.464 117.869 234.633 117.333 234.946 116.883C235.26 116.433 235.704 116.091 236.218 115.902C237.56 115.201 239.051 114.835 240.564 114.835C242.077 114.835 243.568 115.201 244.91 115.902Z" fill="#D9DAE2"/>
<path d="M232.457 114.303C234.968 113.027 237.745 112.362 240.562 112.362C243.378 112.362 246.155 113.027 248.666 114.303C249.487 114.692 250.21 115.262 250.78 115.97C251.349 116.679 251.751 117.507 251.955 118.394C252.014 117.284 251.73 116.183 251.141 115.241C250.553 114.299 249.688 113.561 248.666 113.127C246.155 111.851 243.378 111.186 240.562 111.186C237.745 111.186 234.968 111.851 232.457 113.127C231.43 113.559 230.56 114.295 229.963 115.236C229.367 116.178 229.073 117.28 229.121 118.394C229.333 117.504 229.744 116.674 230.321 115.966C230.899 115.258 231.629 114.689 232.457 114.303Z" fill="#FAFAFA"/>
<g style="mix-blend-mode:multiply">
<path d="M165.275 115.055L209.72 178.72H217.519L243.97 163.439L165.275 115.055Z" fill="#EFF0F9"/>
</g>
<path d="M45.0001 31.0776V83.5519L209.72 178.72V126.246L45.0001 31.0776Z" fill="#EFF0F9"/>
<path d="M55.1122 49.7781L58.0547 51.4771L65.5612 77.3788L73.0506 60.1356L76.0089 61.8437L66.6943 82.9207L64.397 81.5942L55.1122 49.7781ZM54.1523 49.2239L56.7487 50.723L57.1741 67.1033L57.1744 77.4239L54.1532 75.6795L54.1523 49.2239ZM74.3567 60.8897L76.953 62.3888L76.9539 88.8444L73.9327 87.1L73.9323 76.7794L74.3567 60.8897Z" fill="#090909"/>
<path d="M91.0521 72.8734L83.4683 92.6059L80.3685 90.816L89.1008 69.4029L91.0992 70.5567L91.0521 72.8734ZM97.41 100.656L89.809 72.1556L89.7617 69.7844L91.7601 70.9383L100.526 102.455L97.41 100.656ZM97.0163 90.6348L97.0163 93.5057L84.1447 86.0737L84.1447 83.2029L97.0163 90.6348Z" fill="#090909"/>
<path d="M117.802 85.9749L117.802 88.8457L106.756 82.4677L106.757 106.052L103.736 104.308L103.735 77.8524L117.802 85.9749Z" fill="#090909"/>
<path d="M126.96 93.6066L119.377 113.339L116.277 111.549L125.009 90.136L127.007 91.2899L126.96 93.6066ZM133.318 121.389L125.717 92.8888L125.67 90.5176L127.668 91.6715L136.434 123.188L133.318 121.389ZM132.925 111.368L132.925 114.239L120.053 106.807L120.053 103.936L132.925 111.368Z" fill="#090909"/>
<path d="M146.52 116.311L143.798 114.739L143.798 112.504L146.41 114.012C147.564 114.678 148.497 115.03 149.211 115.066C149.924 115.103 150.443 114.881 150.768 114.403C151.094 113.925 151.256 113.249 151.256 112.377C151.256 111.541 151.078 110.675 150.721 109.779C150.364 108.87 149.814 107.995 149.069 107.153C148.324 106.299 147.364 105.533 146.189 104.854C145.308 104.346 144.511 104.079 143.797 104.055C143.084 104.019 142.518 104.218 142.098 104.654C141.678 105.078 141.469 105.726 141.469 106.599L138.432 104.845C138.432 103.719 138.636 102.825 139.045 102.165C139.454 101.493 140.016 101.048 140.729 100.83C141.442 100.599 142.266 100.584 143.199 100.784C144.143 100.99 145.14 101.396 146.189 102.002C147.416 102.71 148.528 103.516 149.525 104.419C150.522 105.309 151.377 106.275 152.09 107.317C152.803 108.358 153.349 109.455 153.726 110.606C154.104 111.756 154.293 112.95 154.293 114.185C154.293 115.094 154.109 115.842 153.742 116.429C153.375 117.017 152.851 117.416 152.169 117.628C151.487 117.84 150.669 117.846 149.714 117.646C148.76 117.434 147.695 116.989 146.52 116.311ZM143.798 113.194L146.52 114.766C147.81 115.511 148.959 116.326 149.966 117.21C150.973 118.095 151.823 119.027 152.515 120.009C153.208 120.99 153.732 122.013 154.089 123.079C154.456 124.139 154.64 125.22 154.64 126.323C154.64 127.558 154.43 128.533 154.01 129.248C153.601 129.969 153.019 130.444 152.264 130.674C151.508 130.904 150.612 130.889 149.573 130.629C148.545 130.374 147.417 129.893 146.19 129.184C145.204 128.615 144.228 127.906 143.263 127.058C142.308 126.204 141.443 125.244 140.667 124.178C139.89 123.1 139.266 121.94 138.794 120.699C138.332 119.463 138.102 118.167 138.102 116.81L141.139 118.564C141.139 119.448 141.348 120.381 141.768 121.362C142.198 122.349 142.791 123.285 143.546 124.169C144.302 125.041 145.183 125.768 146.19 126.35C147.344 127.016 148.319 127.373 149.117 127.422C149.924 127.464 150.538 127.243 150.958 126.759C151.388 126.268 151.603 125.562 151.603 124.642C151.603 123.83 151.487 123.061 151.256 122.334C151.036 121.601 150.706 120.914 150.265 120.272C149.835 119.636 149.295 119.039 148.644 118.482C148.004 117.919 147.259 117.392 146.41 116.901L143.798 115.393L143.798 113.194Z" fill="#090909"/>
<path d="M161.799 131.765L173.081 117.892L176.118 119.646L176.119 146.101L173.082 144.348L173.081 123.943L161.799 137.834L158.778 136.089L158.777 109.634L161.799 111.378L161.799 131.765Z" fill="#090909"/>
<path d="M196.606 142.85L196.606 145.702L184.206 138.543L184.206 135.69L196.606 142.85ZM184.678 124.588L184.679 151.044L181.642 149.291L181.641 122.835L184.678 124.588ZM199.249 133.002L199.25 159.457L196.229 157.713L196.228 131.257L199.249 133.002Z" fill="#090909"/>
<path d="M220.713 120.368V172.843L209.719 178.72V126.246L220.713 120.368Z" fill="#D9DAE2"/>
<path d="M220.713 120.368L55.9462 25.2002L44.9993 31.0777L209.719 126.246L220.713 120.368Z" fill="#D9DAE2"/>
</svg>
