<svg width="473" height="329" viewBox="0 0 473 329" fill="none" xmlns="http://www.w3.org/2000/svg">
<g style="mix-blend-mode:multiply">
<path d="M320.495 105.441L311.344 199.268H425.67L473 171.945L343.342 100.134H311.616L320.495 105.441Z" fill="#E5F8FF"/>
</g>
<path d="M311.343 112.901V199.268L387.793 155.084V68.7173L311.343 112.901Z" fill="#CCCCCC"/>
<path d="M204.167 50.9769V137.344L311.342 199.268V112.901L204.167 50.9769Z" fill="#FAFAFA"/>
<g style="mix-blend-mode:multiply">
<path d="M204.167 55.0709V82.7277L311.342 144.652V116.995L204.167 55.0709Z" fill="#EFF0F9"/>
</g>
<path d="M305.039 194.416L237.953 155.66V102.257L305.039 141.043V194.416Z" fill="#FAFAFA"/>
<path d="M239.741 109.535V154.599L299.646 189.23V144.046L239.741 109.444V109.535ZM236.165 103.288L303.252 142.074V195.599L236.165 156.843V103.288Z" fill="#8EB780"/>
<path d="M237.953 102.257L236.165 103.319L303.251 142.074L305.039 141.043L237.953 102.257Z" fill="#527A45"/>
<path d="M303.251 142.074V195.447L305.039 194.416V141.043L303.251 142.074Z" fill="#090909"/>
<path d="M239.743 109.535V154.629L241.561 153.568V110.566L239.743 109.535Z" fill="#5C5C5C"/>
<path d="M241.559 153.568L239.741 154.629L299.677 189.23V187.168L241.559 153.568Z" fill="#527A45"/>
<path d="M269.769 126.881V171.945L271.587 170.914V127.912L269.769 126.881Z" fill="#090909"/>
<path d="M267.982 125.85V170.914L269.77 171.945V126.881L267.982 125.85Z" fill="#8EB780"/>
<path d="M229.286 150.232L211.136 139.739V92.3407L229.286 102.833V150.232Z" fill="#FAFAFA"/>
<path d="M232.621 101.378V155.509L229.288 153.568L211.107 143.075L207.744 141.134V87.0339L211.107 88.9747L229.288 99.4672L232.621 101.378ZM211.138 92.2801V117.723L229.318 128.185V102.803L211.138 92.2801ZM229.318 150.171V131.552L211.138 121.059V139.679L229.318 150.171Z" fill="#5C5C5C"/>
<path d="M232.621 101.378V155.509L229.288 153.568L211.107 143.075L207.744 141.134V87.0339L211.107 88.9747L229.288 99.4672L232.621 101.378ZM211.138 92.2801V117.723L229.318 128.185V102.803L211.138 92.2801ZM229.318 150.171V131.552L211.138 121.059V139.679L229.318 150.171Z" fill="#8EB780"/>
<path d="M230.743 98.6181L212.623 88.1256L209.26 86.1847L207.775 87.0338L211.138 88.9747L229.289 99.4672L232.652 101.408L234.106 100.559L230.743 98.6181Z" fill="#527A45"/>
<path d="M232.652 101.408V104.774V152.173V155.509L234.106 154.659V151.324V103.925V100.559L232.652 101.408Z" fill="#5C5C5C"/>
<path d="M211.136 92.3407V117.753L212.621 116.904V93.1898L211.136 92.3407Z" fill="#5C5C5C"/>
<path d="M212.621 116.904L211.136 117.753L229.286 128.246V126.548L212.621 116.904Z" fill="#527A45"/>
<path d="M211.136 121.12V139.739L212.621 138.89V121.969L211.136 121.12Z" fill="#5C5C5C"/>
<path d="M212.621 138.89L211.136 139.739L229.286 150.232V148.534L212.621 138.89Z" fill="#527A45"/>
<path d="M197.139 86.306L208.502 67.7166L184.11 90.5516L184.019 94.2209L197.139 86.306Z" fill="#CCCCCC"/>
<path d="M184.019 94.2209L184.11 90.5515L179.596 87.9436L179.505 91.6433L184.019 94.2209Z" fill="#EFF0F9"/>
<path d="M203.957 65.1389L208.502 67.7165L184.11 90.5515L179.595 87.9436L203.957 65.1389Z" fill="#FAFAFA"/>
<path d="M218.714 85.3053V73.63L194.321 96.4347L194.231 100.134L218.714 85.3053Z" fill="#CCCCCC"/>
<path d="M194.227 100.134L194.318 96.4346L184.107 90.5515L184.016 94.2209L194.227 100.134Z" fill="#527A45"/>
<path d="M208.502 67.7166L218.714 73.63L194.321 96.4347L184.11 90.5516L208.502 67.7166Z" fill="#8EB780"/>
<path d="M223.227 87.8829V76.2077L198.864 99.0427L198.774 102.712L223.227 87.8829Z" fill="#CCCCCC"/>
<path d="M198.773 102.712L198.864 99.0427L194.319 96.4347L194.228 100.134L198.773 102.712Z" fill="#EFF0F9"/>
<path d="M218.712 73.63L223.227 76.2077L198.864 99.0427L194.319 96.4347L218.712 73.63Z" fill="#FAFAFA"/>
<path d="M233.438 93.7964V82.1211L209.046 104.926L220.318 101.711L233.438 93.7964Z" fill="#CCCCCC"/>
<path d="M208.985 108.625L209.046 104.926L198.865 99.0427L198.774 102.712L208.985 108.625Z" fill="#527A45"/>
<path d="M223.227 76.2077L233.438 82.1211L209.046 104.926L198.865 99.0427L223.227 76.2077Z" fill="#8EB780"/>
<path d="M237.953 96.374V84.6987L213.591 107.503L213.5 111.203L237.953 96.374Z" fill="#CCCCCC"/>
<path d="M213.501 111.203L213.592 107.503L209.047 104.926L208.986 108.625L213.501 111.203Z" fill="#EFF0F9"/>
<path d="M233.438 82.1211L237.953 84.6988L213.591 107.503L209.046 104.926L233.438 82.1211Z" fill="#FAFAFA"/>
<path d="M248.165 102.287V90.6122L223.803 113.417L223.712 117.117L248.165 102.287Z" fill="#CCCCCC"/>
<path d="M223.712 117.117L223.803 113.417L213.591 107.503L213.5 111.203L223.712 117.117Z" fill="#527A45"/>
<path d="M237.954 84.6987L248.165 90.6122L223.803 113.417L213.591 107.503L237.954 84.6987Z" fill="#8EB780"/>
<path d="M252.681 104.865V93.1898L228.319 115.995L228.228 119.694L252.681 104.865Z" fill="#CCCCCC"/>
<path d="M228.227 119.694L228.318 115.995L223.804 113.417L223.713 117.117L228.227 119.694Z" fill="#EFF0F9"/>
<path d="M248.166 90.6122L252.681 93.1898L228.319 115.995L223.804 113.417L248.166 90.6122Z" fill="#FAFAFA"/>
<path d="M262.893 110.779V99.1033L238.53 121.908L238.44 125.608L262.893 110.779Z" fill="#CCCCCC"/>
<path d="M238.439 125.608L238.53 121.908L228.319 115.995L228.228 119.694L238.439 125.608Z" fill="#527A45"/>
<path d="M252.681 93.1898L262.893 99.1033L238.53 121.908L228.319 115.995L252.681 93.1898Z" fill="#8EB780"/>
<path d="M267.405 113.356V101.681L243.043 124.486L242.952 128.185L267.405 113.356Z" fill="#CCCCCC"/>
<path d="M242.952 128.185L243.043 124.486L238.528 121.908L238.437 125.608L242.952 128.185Z" fill="#EFF0F9"/>
<path d="M262.89 99.1033L267.405 101.681L243.043 124.486L238.528 121.908L262.89 99.1033Z" fill="#FAFAFA"/>
<path d="M277.617 119.27V107.594L253.255 130.399L253.164 134.099L277.617 119.27Z" fill="#CCCCCC"/>
<path d="M253.164 134.099L253.255 130.399L243.043 124.486L242.953 128.185L253.164 134.099Z" fill="#527A45"/>
<path d="M267.406 101.681L277.617 107.594L253.255 130.399L243.044 124.486L267.406 101.681Z" fill="#8EB780"/>
<path d="M282.162 121.847V110.172L257.77 132.977L257.679 136.676L282.162 121.847Z" fill="#CCCCCC"/>
<path d="M257.68 136.676L257.771 132.977L253.256 130.399L253.165 134.099L257.68 136.676Z" fill="#EFF0F9"/>
<path d="M277.617 107.594L282.162 110.172L257.77 132.977L253.255 130.399L277.617 107.594Z" fill="#FAFAFA"/>
<path d="M292.374 127.761V116.086L267.982 138.89L267.891 142.59L292.374 127.761Z" fill="#CCCCCC"/>
<path d="M267.892 142.59L267.982 138.89L257.771 132.977L257.68 136.676L267.892 142.59Z" fill="#527A45"/>
<path d="M282.163 110.172L292.374 116.086L267.982 138.89L257.77 132.977L282.163 110.172Z" fill="#8EB780"/>
<path d="M296.89 130.338V118.663L272.497 141.468L272.437 145.168L296.89 130.338Z" fill="#CCCCCC"/>
<path d="M272.437 145.168L272.498 141.468L267.983 138.89L267.892 142.59L272.437 145.168Z" fill="#EFF0F9"/>
<path d="M292.375 116.086L296.89 118.663L272.497 141.468L267.982 138.89L292.375 116.086Z" fill="#FAFAFA"/>
<path d="M307.102 136.252V124.577L282.709 147.381L282.618 151.081L307.102 136.252Z" fill="#CCCCCC"/>
<path d="M282.619 151.081L282.71 147.381L272.499 141.468L272.438 145.168L282.619 151.081Z" fill="#527A45"/>
<path d="M296.89 118.663L307.102 124.577L282.709 147.381L272.498 141.468L296.89 118.663Z" fill="#8EB780"/>
<path d="M311.617 138.83V127.154L287.255 149.959L287.164 153.659L311.617 138.83Z" fill="#CCCCCC"/>
<path d="M287.164 153.659L287.255 149.959L282.71 147.381L282.619 151.081L287.164 153.659Z" fill="#EFF0F9"/>
<path d="M307.102 124.577L311.617 127.154L287.255 149.959L282.71 147.381L307.102 124.577Z" fill="#FAFAFA"/>
<path d="M198.289 47.5805L280.647 0L393.67 65.3208L311.342 112.901L198.289 47.5805Z" fill="#CCCCCC"/>
<path d="M280.648 8.49109V17.3158L371.339 69.7484L378.975 65.3208L280.648 8.49109Z" fill="#FAFAFA"/>
<path d="M213.015 47.5805L220.651 52.008L280.647 17.3158V8.49109L213.015 47.5805Z" fill="#CCCCCC"/>
<path d="M371.341 69.7484L280.65 17.3158L220.654 52.008L311.345 104.41L371.341 69.7484Z" fill="#CCCCCC"/>
<g style="mix-blend-mode:multiply">
<path d="M226.712 55.6774L220.652 52.008L280.648 17.3158V8.49109L286.799 20.8639L226.712 55.6774Z" fill="#EFF0F9"/>
</g>
<path d="M311.342 112.901V118.815L393.67 71.2039V65.3208L311.342 112.901Z" fill="#5C5C5C"/>
<path d="M198.288 47.5805V53.4636L311.342 118.815V112.901L198.288 47.5805Z" fill="#CCCCCC"/>
<g style="mix-blend-mode:multiply">
<path d="M371.341 69.7483L328.859 45.1241L299.497 62.076L310.436 68.414L306.193 76.3896H324.223L331.131 80.3622L328.859 89.2475H335.555L335.979 89.4901L371.341 69.7483Z" fill="#EFF0F9"/>
</g>
<path d="M338.734 49.218L324.281 57.5878L309.797 49.218L324.281 40.8483L338.734 49.218Z" fill="#D9DAE2"/>
<path d="M324.281 57.5879V65.9273L338.734 57.5879V49.218L324.281 57.5879Z" fill="#FAFAFA"/>
<path d="M309.798 49.218V57.5879L324.282 65.9273V57.5879L309.798 49.218Z" fill="#D9DAE2"/>
<g style="mix-blend-mode:multiply">
<path d="M329.493 46.5191C327.874 45.6961 326.083 45.2671 324.266 45.2671C322.45 45.2671 320.659 45.6961 319.039 46.5191C318.515 46.7771 318.053 47.1469 317.686 47.6028C317.32 48.0586 317.058 48.5893 316.918 49.1574C317.05 49.729 317.309 50.2633 317.676 50.7203C318.044 51.1772 318.51 51.5449 319.039 51.7957C320.659 52.6188 322.45 53.0478 324.266 53.0478C326.083 53.0478 327.874 52.6188 329.493 51.7957C330.027 51.5467 330.498 51.1801 330.871 50.7232C331.243 50.2663 331.508 49.731 331.645 49.1574C331.498 48.5881 331.23 48.0574 330.858 47.6019C330.487 47.1464 330.021 46.777 329.493 46.5191Z" fill="#D9DAE2"/>
</g>
<path d="M327.069 47.5502C327.401 47.6722 327.687 47.8932 327.889 48.1833C328.092 48.4735 328.2 48.8188 328.2 49.1726C328.2 49.5264 328.092 49.8717 327.889 50.1618C327.687 50.4519 327.401 50.6729 327.069 50.795C326.198 51.2278 325.239 51.4531 324.266 51.4531C323.294 51.4531 322.334 51.2278 321.463 50.795C321.131 50.6729 320.845 50.4519 320.643 50.1618C320.44 49.8717 320.332 49.5264 320.332 49.1726C320.332 48.8188 320.44 48.4735 320.643 48.1833C320.845 47.8932 321.131 47.6722 321.463 47.5502C322.334 47.1173 323.294 46.8922 324.266 46.8922C325.239 46.8922 326.198 47.1173 327.069 47.5502Z" fill="#D9DAE2"/>
<path d="M319.039 46.5191C320.659 45.696 322.449 45.267 324.266 45.267C326.082 45.267 327.873 45.696 329.493 46.5191C330.021 46.7769 330.487 47.1464 330.858 47.6019C331.229 48.0574 331.498 48.588 331.644 49.1574C331.675 48.4391 331.486 47.7285 331.101 47.1212C330.717 46.5139 330.155 46.0392 329.493 45.761C327.873 44.9379 326.082 44.5089 324.266 44.5089C322.449 44.5089 320.659 44.9379 319.039 45.761C318.379 46.0404 317.822 46.5163 317.443 47.1241C317.063 47.7318 316.88 48.4417 316.918 49.1574C317.057 48.5892 317.319 48.0585 317.686 47.6027C318.052 47.1469 318.514 46.777 319.039 46.5191Z" fill="#FAFAFA"/>
<path d="M320.675 59.65L306.191 68.0198L291.737 59.65L306.191 51.3105L320.675 59.65Z" fill="#D9DAE2"/>
<path d="M306.191 68.0198V76.3896L320.675 68.0198V59.65L306.191 68.0198Z" fill="#FAFAFA"/>
<path d="M291.74 59.65V68.0198L306.193 76.3896V68.0198L291.74 59.65Z" fill="#D9DAE2"/>
<g style="mix-blend-mode:multiply">
<path d="M311.435 56.9814C309.815 56.1583 308.024 55.7294 306.208 55.7294C304.391 55.7294 302.6 56.1583 300.981 56.9814C300.447 57.2305 299.976 57.5971 299.603 58.0539C299.231 58.5108 298.966 59.0461 298.829 59.6197C298.976 60.1891 299.244 60.7198 299.616 61.1753C299.987 61.6308 300.453 62.0002 300.981 62.258C302.6 63.0811 304.391 63.5101 306.208 63.5101C308.024 63.5101 309.815 63.0811 311.435 62.258C311.959 62.0001 312.421 61.6302 312.788 61.1744C313.154 60.7186 313.416 60.1879 313.556 59.6197C313.424 59.0482 313.165 58.5138 312.798 58.0569C312.43 57.5999 311.964 57.2322 311.435 56.9814Z" fill="#D9DAE2"/>
</g>
<path d="M309.009 57.9518C309.341 58.0738 309.628 58.2949 309.83 58.5851C310.032 58.8752 310.141 59.2204 310.141 59.5742C310.141 59.928 310.032 60.2733 309.83 60.5634C309.628 60.8535 309.341 61.0745 309.009 61.1966C308.138 61.6294 307.179 61.8547 306.207 61.8547C305.234 61.8547 304.275 61.6294 303.404 61.1966C303.072 61.0745 302.786 60.8535 302.583 60.5634C302.381 60.2733 302.272 59.928 302.272 59.5742C302.272 59.2204 302.381 58.8752 302.583 58.5851C302.786 58.2949 303.072 58.0738 303.404 57.9518C304.275 57.5189 305.234 57.2938 306.207 57.2938C307.179 57.2938 308.138 57.5189 309.009 57.9518Z" fill="#D9DAE2"/>
<path d="M301.072 56.9814C302.691 56.1583 304.482 55.7293 306.299 55.7293C308.115 55.7293 309.906 56.1583 311.526 56.9814C312.055 57.2322 312.521 57.5999 312.889 58.0569C313.256 58.5138 313.515 59.0481 313.647 59.6197C313.691 58.899 313.511 58.1823 313.131 57.5685C312.751 56.9547 312.19 56.4741 311.526 56.1929C309.906 55.3698 308.115 54.9409 306.299 54.9409C304.482 54.9409 302.691 55.3698 301.072 56.1929C300.407 56.4765 299.845 56.9568 299.46 57.5692C299.075 58.1817 298.887 58.8971 298.92 59.6197C299.057 59.0461 299.322 58.5108 299.694 58.0539C300.067 57.597 300.538 57.2304 301.072 56.9814Z" fill="#FAFAFA"/>
<path d="M361.401 62.0761L346.948 70.4458L332.464 62.0761L346.948 53.7366L361.401 62.0761Z" fill="#D9DAE2"/>
<path d="M346.948 70.4458V78.8156L361.401 70.4458V62.076L346.948 70.4458Z" fill="#FAFAFA"/>
<path d="M332.461 62.076V70.4458L346.945 78.8156V70.4458L332.461 62.076Z" fill="#D9DAE2"/>
<g style="mix-blend-mode:multiply">
<path d="M352.159 59.4074C350.539 58.5843 348.748 58.1553 346.932 58.1553C345.115 58.1553 343.325 58.5843 341.705 59.4074C341.102 59.5374 340.562 59.8703 340.175 60.3503C339.788 60.8304 339.577 61.4287 339.577 62.0457C339.577 62.6627 339.788 63.2611 340.175 63.7411C340.562 64.2212 341.102 64.5539 341.705 64.684C343.325 65.507 345.115 65.936 346.932 65.936C348.748 65.936 350.539 65.507 352.159 64.684C352.761 64.5539 353.301 64.2212 353.689 63.7411C354.076 63.2611 354.287 62.6627 354.287 62.0457C354.287 61.4287 354.076 60.8304 353.689 60.3503C353.301 59.8703 352.761 59.5374 352.159 59.4074Z" fill="#D9DAE2"/>
</g>
<path d="M349.735 60.4082C350.067 60.5303 350.353 60.7513 350.555 61.0414C350.758 61.3315 350.866 61.6768 350.866 62.0305C350.866 62.3843 350.758 62.7296 350.555 63.0198C350.353 63.3099 350.067 63.5309 349.735 63.653C348.87 64.1047 347.908 64.3407 346.932 64.3407C345.956 64.3407 344.995 64.1047 344.129 63.653C343.797 63.5309 343.511 63.3099 343.309 63.0198C343.106 62.7296 342.998 62.3843 342.998 62.0305C342.998 61.6768 343.106 61.3315 343.309 61.0414C343.511 60.7513 343.797 60.5303 344.129 60.4082C345 59.9754 345.96 59.7501 346.932 59.7501C347.905 59.7501 348.864 59.9754 349.735 60.4082Z" fill="#D9DAE2"/>
<path d="M341.705 59.4074C343.324 58.5843 345.115 58.1554 346.932 58.1554C348.748 58.1554 350.539 58.5843 352.159 59.4074C352.692 59.6525 353.162 60.0185 353.53 60.4764C353.898 60.9343 354.155 61.4715 354.28 62.0457C354.327 61.3285 354.147 60.6146 353.767 60.0051C353.386 59.3955 352.823 58.9212 352.159 58.6493C350.539 57.8262 348.748 57.3972 346.932 57.3972C345.115 57.3972 343.324 57.8262 341.705 58.6493C341.04 58.9212 340.477 59.3955 340.097 60.0051C339.716 60.6146 339.537 61.3285 339.584 62.0457C339.715 61.4741 339.974 60.9398 340.342 60.4829C340.709 60.0259 341.175 59.6582 341.705 59.4074Z" fill="#FAFAFA"/>
<path d="M343.342 72.5383L328.858 80.8777L314.404 72.5383L328.858 64.1685L343.342 72.5383Z" fill="#D9DAE2"/>
<path d="M328.858 80.8777V89.2476L343.342 80.8777V72.5383L328.858 80.8777Z" fill="#FAFAFA"/>
<path d="M314.403 72.5383V80.8777L328.856 89.2476V80.8777L314.403 72.5383Z" fill="#D9DAE2"/>
<g style="mix-blend-mode:multiply">
<path d="M334.099 69.8393C332.48 69.0163 330.689 68.5873 328.872 68.5873C327.056 68.5873 325.265 69.0163 323.645 69.8393C323.043 69.9694 322.503 70.3022 322.116 70.7823C321.728 71.2623 321.517 71.8606 321.517 72.4776C321.517 73.0946 321.728 73.693 322.116 74.1731C322.503 74.6531 323.043 74.9859 323.645 75.1159C325.265 75.939 327.056 76.368 328.872 76.368C330.689 76.368 332.48 75.939 334.099 75.1159C334.702 74.9859 335.242 74.6531 335.629 74.1731C336.016 73.693 336.228 73.0946 336.228 72.4776C336.228 71.8606 336.016 71.2623 335.629 70.7823C335.242 70.3022 334.702 69.9694 334.099 69.8393Z" fill="#D9DAE2"/>
</g>
<path d="M331.676 70.8704C332.008 70.9925 332.295 71.2135 332.497 71.5036C332.699 71.7937 332.808 72.139 332.808 72.4928C332.808 72.8466 332.699 73.1919 332.497 73.4821C332.295 73.7722 332.008 73.9932 331.676 74.1153C330.805 74.5481 329.846 74.7733 328.874 74.7733C327.901 74.7733 326.942 74.5481 326.071 74.1153C325.739 73.9932 325.452 73.7722 325.25 73.4821C325.048 73.1919 324.939 72.8466 324.939 72.4928C324.939 72.139 325.048 71.7937 325.25 71.5036C325.452 71.2135 325.739 70.9925 326.071 70.8704C326.936 70.4187 327.898 70.1828 328.874 70.1828C329.849 70.1828 330.811 70.4187 331.676 70.8704Z" fill="#D9DAE2"/>
<path d="M323.645 69.8393C325.264 69.0163 327.055 68.5873 328.872 68.5873C330.688 68.5873 332.479 69.0163 334.099 69.8393C334.628 70.0902 335.094 70.4579 335.462 70.9148C335.829 71.3718 336.088 71.9061 336.22 72.4776C336.258 71.762 336.074 71.052 335.695 70.4443C335.315 69.8366 334.758 69.3606 334.099 69.0812C332.479 68.2581 330.688 67.8292 328.872 67.8292C327.055 67.8292 325.264 68.2581 323.645 69.0812C322.982 69.3595 322.421 69.8342 322.036 70.4415C321.652 71.0487 321.462 71.7593 321.493 72.4776C321.63 71.904 321.895 71.3688 322.267 70.912C322.64 70.4551 323.111 70.0884 323.645 69.8393Z" fill="#FAFAFA"/>
<g style="mix-blend-mode:multiply">
<path d="M280.316 70.3246L308.981 111.385H314.011L331.07 101.529L280.316 70.3246Z" fill="#EFF0F9"/>
</g>
<path d="M202.745 16.1634V50.0065L308.98 111.385V77.5419L202.745 16.1634Z" fill="#EFF0F9"/>
<path d="M209.267 28.2242L211.165 29.32L216.006 46.0252L220.836 34.9043L222.744 36.0059L216.737 49.5994L215.255 48.7439L209.267 28.2242ZM208.648 27.8668L210.322 28.8336L210.597 39.3981L210.597 46.0543L208.648 44.9293L208.648 27.8668ZM221.679 35.3906L223.353 36.3575L223.354 53.42L221.405 52.2949L221.405 45.6387L221.679 35.3906Z" fill="#090909"/>
<path d="M232.446 43.1195L227.555 55.8459L225.556 54.6915L231.188 40.8811L232.477 41.6253L232.446 43.1195ZM236.547 61.0376L231.645 42.6566L231.614 41.1273L232.903 41.8714L238.556 62.1978L236.547 61.0376ZM236.293 54.5747L236.293 56.4262L227.991 51.633L227.991 49.7814L236.293 54.5747Z" fill="#090909"/>
<path d="M249.699 51.5692L249.699 53.4208L242.575 49.3073L242.575 64.5182L240.627 63.3932L240.626 46.3307L249.699 51.5692Z" fill="#090909"/>
<path d="M255.605 56.4913L250.714 69.2177L248.715 68.0633L254.347 54.253L255.636 54.9972L255.605 56.4913ZM259.706 74.4094L254.804 56.0284L254.773 54.4991L256.062 55.2433L261.715 75.5696L259.706 74.4094ZM259.452 67.9465L259.452 69.7981L251.15 65.0048L251.15 63.1533L259.452 67.9465Z" fill="#090909"/>
<path d="M268.22 71.1343L266.465 70.1206L266.464 68.6791L268.149 69.6519C268.893 70.0816 269.495 70.3081 269.956 70.3316C270.416 70.3551 270.751 70.2125 270.96 69.9039C271.17 69.5953 271.275 69.1598 271.275 68.5973C271.275 68.0582 271.16 67.4996 270.93 66.9215C270.7 66.3355 270.344 65.7711 269.864 65.2281C269.384 64.6773 268.765 64.1831 268.007 63.7456C267.439 63.4175 266.924 63.2456 266.464 63.2299C266.004 63.2065 265.639 63.3354 265.368 63.6166C265.098 63.89 264.962 64.308 264.962 64.8705L263.004 63.7396C263.004 63.013 263.136 62.4369 263.399 62.0111C263.663 61.5775 264.025 61.2904 264.485 61.1498C264.945 61.0014 265.476 60.9916 266.079 61.1205C266.687 61.2534 267.33 61.5151 268.007 61.9058C268.798 62.3628 269.516 62.8824 270.158 63.4644C270.801 64.0387 271.352 64.6617 271.813 65.3336C272.273 66.0055 272.624 66.7125 272.868 67.4547C273.112 68.1969 273.233 68.9665 273.233 69.7633C273.233 70.3493 273.115 70.8317 272.878 71.2106C272.642 71.5895 272.303 71.8473 271.864 71.984C271.424 72.1207 270.896 72.1246 270.28 71.9957C269.665 71.8589 268.978 71.5718 268.22 71.1343ZM266.464 69.1245L268.22 70.1382C269.052 70.6187 269.793 71.1441 270.443 71.7144C271.092 72.2848 271.64 72.8863 272.087 73.5192C272.533 74.152 272.872 74.8122 273.102 75.4997C273.339 76.1833 273.457 76.8805 273.457 77.5915C273.457 78.3884 273.322 79.0173 273.051 79.4782C272.787 79.943 272.412 80.2496 271.925 80.3981C271.438 80.5465 270.859 80.5367 270.189 80.3687C269.526 80.2046 268.799 79.8941 268.007 79.437C267.371 79.0698 266.742 78.6127 266.12 78.0659C265.504 77.5151 264.946 76.8959 264.445 76.2084C263.945 75.5131 263.542 74.765 263.237 73.9642C262.94 73.1673 262.791 72.3314 262.791 71.4564L264.75 72.5873C264.75 73.1576 264.885 73.7592 265.156 74.392C265.433 75.0287 265.815 75.6323 266.302 76.2026C266.789 76.7651 267.358 77.2339 268.007 77.6089C268.752 78.0386 269.381 78.2691 269.895 78.3004C270.416 78.3277 270.812 78.1851 271.082 77.8727C271.36 77.5563 271.498 77.1012 271.498 76.5074C271.498 75.984 271.424 75.4879 271.275 75.0191C271.133 74.5465 270.92 74.1031 270.636 73.689C270.358 73.2789 270.01 72.8941 269.59 72.5347C269.178 72.1714 268.697 71.8316 268.149 71.5151L266.465 70.5424L266.464 69.1245Z" fill="#090909"/>
<path d="M278.075 81.1014L285.351 72.1544L287.309 73.2853L287.31 90.3478L285.351 89.2169L285.351 76.0567L278.075 85.0155L276.126 83.8904L276.126 66.8279L278.074 67.953L278.075 81.1014Z" fill="#090909"/>
<path d="M300.523 88.2505L300.523 90.0904L292.526 85.4729L292.526 83.6331L300.523 88.2505ZM292.83 76.473L292.831 93.5355L290.872 92.4045L290.871 75.342L292.83 76.473ZM302.228 81.899L302.228 98.9615L300.28 97.8365L300.279 80.774L302.228 81.899Z" fill="#090909"/>
<path d="M316.07 73.7512V107.594L308.98 111.385V77.5419L316.07 73.7512Z" fill="#D9DAE2"/>
<path d="M316.07 73.7513L209.804 12.3727L202.744 16.1634L308.98 77.5419L316.07 73.7513Z" fill="#D9DAE2"/>
<path d="M322.069 261.192C322.352 261.188 322.63 261.111 322.874 260.967C323.118 260.824 323.321 260.619 323.463 260.374C323.571 260.189 323.64 259.985 323.668 259.773C323.696 259.561 323.681 259.346 323.625 259.139C323.568 258.933 323.471 258.741 323.339 258.572C323.208 258.404 323.044 258.264 322.857 258.16L245.014 212.975L284.132 190.443C284.315 190.336 284.475 190.193 284.603 190.024C284.731 189.854 284.825 189.661 284.878 189.456C284.932 189.25 284.944 189.036 284.915 188.826C284.886 188.615 284.815 188.413 284.708 188.23C284.601 188.046 284.458 187.886 284.289 187.758C284.12 187.63 283.927 187.537 283.721 187.483C283.516 187.43 283.302 187.417 283.092 187.446C282.881 187.475 282.679 187.546 282.496 187.653L240.984 211.55C240.736 211.689 240.53 211.892 240.386 212.137C240.243 212.382 240.166 212.661 240.165 212.945C240.167 213.229 240.24 213.509 240.377 213.758C240.515 214.007 240.713 214.218 240.953 214.37L321.251 260.98C321.498 261.127 321.782 261.201 322.069 261.192Z" fill="white"/>
<path d="M169.594 220.465C169.878 220.452 170.157 220.38 170.412 220.253L253.467 172.43C253.683 172.342 253.878 172.21 254.039 172.04C254.2 171.871 254.322 171.67 254.399 171.449C254.475 171.229 254.504 170.994 254.482 170.762C254.461 170.529 254.39 170.304 254.275 170.101C254.159 169.899 254.002 169.723 253.813 169.586C253.624 169.449 253.408 169.354 253.179 169.308C252.951 169.261 252.715 169.264 252.488 169.316C252.26 169.368 252.047 169.468 251.861 169.61L168.776 217.433C168.41 217.654 168.145 218.009 168.037 218.423C167.93 218.836 167.988 219.275 168.2 219.647C168.341 219.892 168.544 220.097 168.789 220.24C169.033 220.384 169.31 220.461 169.594 220.465Z" fill="white"/>
<path d="M178.532 179.526C178.81 179.532 179.083 179.459 179.32 179.314L221.075 155.296C221.446 155.08 221.717 154.727 221.831 154.313C221.944 153.899 221.89 153.457 221.681 153.083C221.46 152.717 221.108 152.451 220.696 152.338C220.284 152.225 219.845 152.275 219.469 152.476L178.532 176.039L98.477 127.882C98.2943 127.773 98.0918 127.702 97.8813 127.672C97.6708 127.642 97.4564 127.654 97.2506 127.708C97.0448 127.761 96.8518 127.855 96.6826 127.984C96.5134 128.113 96.3714 128.274 96.265 128.458C96.1549 128.639 96.0817 128.84 96.0495 129.05C96.0173 129.259 96.0268 129.473 96.0775 129.679C96.1282 129.885 96.2191 130.078 96.3448 130.249C96.4706 130.419 96.6288 130.563 96.8103 130.672L177.684 179.193C177.93 179.381 178.224 179.496 178.532 179.526Z" fill="white"/>
<g style="mix-blend-mode:multiply">
<path d="M74.9631 141.256L70.1149 191.141H130.869L156.049 176.615L87.1139 138.435H70.2361L74.9631 141.256Z" fill="#E5F8FF"/>
</g>
<path d="M70.1172 145.228V191.141L110.751 167.639V121.726L70.1172 145.228Z" fill="#CCCCCC"/>
<path d="M13.1209 112.295V158.207L70.1172 191.141V145.228L13.1209 112.295Z" fill="#FAFAFA"/>
<g style="mix-blend-mode:multiply">
<path d="M13.1209 114.478V129.186L70.1172 162.089V147.381L13.1209 114.478Z" fill="#EFF0F9"/>
</g>
<path d="M66.7529 188.563L31.0885 167.942V139.557L66.7529 160.179V188.563Z" fill="#FAFAFA"/>
<path d="M32.0288 143.409V167.396L63.9056 185.773V161.816L32.0288 143.409ZM30.1198 140.103L65.8145 160.724V189.109L30.1198 168.488V140.103Z" fill="#8EB780"/>
<path d="M31.0885 139.557L30.1188 140.103L65.8135 160.725L66.7529 160.179L31.0885 139.557Z" fill="#527A45"/>
<path d="M65.8135 160.725V189.109L66.7529 188.563V160.179L65.8135 160.725Z" fill="#090909"/>
<path d="M32.0284 143.439V167.396L32.998 166.85V143.985L32.0284 143.439Z" fill="#5C5C5C"/>
<path d="M32.9991 166.85L32.0295 167.396L63.9062 185.804V184.682L32.9991 166.85Z" fill="#527A45"/>
<path d="M47.9963 152.658V176.615L48.9658 176.069V153.204L47.9963 152.658Z" fill="#090909"/>
<path d="M47.0587 152.112V176.069L47.998 176.615V152.658L47.0587 152.112Z" fill="#8EB780"/>
<path d="M26.4824 165.061L16.8164 159.481V134.281L26.4824 139.861V165.061Z" fill="#FAFAFA"/>
<path d="M28.3613 139.103V167.851L26.5736 166.82L16.9075 161.24L15.1198 160.209V131.461L16.9075 132.492L26.4827 137.98L28.3613 139.103ZM16.9075 134.281V147.776L26.5736 153.355V139.83L16.9075 134.281ZM26.5736 165.031V155.145L16.9075 149.565V159.481L26.5736 165.031Z" fill="#5C5C5C"/>
<path d="M28.3613 139.103V167.851L26.5736 166.82L16.9075 161.24L15.1198 160.209V131.461L16.9075 132.492L26.4827 137.98L28.3613 139.103ZM16.9075 134.281V147.776L26.5736 153.355V139.83L16.9075 134.281ZM26.5736 165.031V155.145L16.9075 149.565V159.481L26.5736 165.031Z" fill="#8EB780"/>
<path d="M27.2718 137.617L17.6058 132.037L15.8179 131.006L15.0604 131.46L16.8179 132.492L26.484 138.071L28.2717 139.103L29.0596 138.648L27.2718 137.617Z" fill="#527A45"/>
<path d="M28.2717 139.103V140.892V166.092V167.881L29.0596 167.426V165.637V140.437V138.648L28.2717 139.103Z" fill="#5C5C5C"/>
<path d="M16.8166 134.281V147.806L17.6045 147.351V134.736L16.8166 134.281Z" fill="#5C5C5C"/>
<path d="M17.6042 147.351L16.8164 147.806L26.4824 153.355V152.476L17.6042 147.351Z" fill="#527A45"/>
<path d="M16.8166 149.565V159.481L17.6045 159.026V150.02L16.8166 149.565Z" fill="#5C5C5C"/>
<path d="M17.6042 159.026L16.8164 159.481L26.4824 165.061V164.151L17.6042 159.026Z" fill="#527A45"/>
<path d="M9.39385 131.066L15.4238 121.211L2.45497 133.31L2.42464 135.281L9.39385 131.066Z" fill="#CCCCCC"/>
<path d="M2.42377 135.281L2.4541 133.31L0.0602901 131.946L-0.000278711 133.917L2.42377 135.281Z" fill="#EFF0F9"/>
<path d="M13.03 119.815L15.4238 121.211L2.45497 133.31L0.0611572 131.946L13.03 119.815Z" fill="#FAFAFA"/>
<path d="M20.8447 130.551V124.334L7.9062 136.464L7.84563 138.435L20.8447 130.551Z" fill="#CCCCCC"/>
<path d="M7.84763 138.435L7.9082 136.464L2.45405 133.31L2.42371 135.281L7.84763 138.435Z" fill="#527A45"/>
<path d="M15.4209 121.211L20.8447 124.334L7.9062 136.464L2.45204 133.31L15.4209 121.211Z" fill="#8EB780"/>
<path d="M23.2393 131.915V125.699L10.3007 137.829L10.2401 139.8L23.2393 131.915Z" fill="#CCCCCC"/>
<path d="M10.2411 139.8L10.3018 137.829L7.90795 136.464L7.84738 138.435L10.2411 139.8Z" fill="#EFF0F9"/>
<path d="M20.8454 124.334L23.2393 125.699L10.3007 137.829L7.90692 136.464L20.8454 124.334Z" fill="#FAFAFA"/>
<path d="M28.6953 135.069V128.853L15.7265 140.983L21.6958 139.284L28.6953 135.069Z" fill="#CCCCCC"/>
<path d="M15.665 142.924L15.7256 140.983L10.3018 137.829L10.2411 139.8L15.665 142.924Z" fill="#527A45"/>
<path d="M23.2412 125.699L28.6953 128.852L15.7265 140.983L10.3026 137.829L23.2412 125.699Z" fill="#8EB780"/>
<path d="M31.0898 136.434V130.217L18.121 142.347L18.0907 144.318L31.0898 136.434Z" fill="#CCCCCC"/>
<path d="M18.0898 144.318L18.1201 142.347L15.7263 140.983L15.6657 142.924L18.0898 144.318Z" fill="#EFF0F9"/>
<path d="M28.696 128.853L31.0898 130.217L18.121 142.347L15.7272 140.983L28.696 128.853Z" fill="#FAFAFA"/>
<path d="M36.5137 139.557V133.371L23.5751 145.501L23.5145 147.442L36.5137 139.557Z" fill="#CCCCCC"/>
<path d="M23.5126 147.442L23.5732 145.501L18.119 142.347L18.0887 144.318L23.5126 147.442Z" fill="#527A45"/>
<path d="M31.0898 130.217L36.5137 133.371L23.5751 145.501L18.1209 142.347L31.0898 130.217Z" fill="#8EB780"/>
<path d="M38.9072 140.952V134.736L25.9686 146.866L25.908 148.837L38.9072 140.952Z" fill="#CCCCCC"/>
<path d="M25.9072 148.837L25.9678 146.866L23.5741 145.501L23.5134 147.442L25.9072 148.837Z" fill="#EFF0F9"/>
<path d="M36.5134 133.371L38.9072 134.736L25.9686 146.866L23.5749 145.501L36.5134 133.371Z" fill="#FAFAFA"/>
<path d="M44.3613 144.076V137.889L31.3925 150.02L31.3319 151.96L44.3613 144.076Z" fill="#CCCCCC"/>
<path d="M31.331 151.96L31.3916 150.02L25.9677 146.866L25.9071 148.837L31.331 151.96Z" fill="#527A45"/>
<path d="M38.9072 134.736L44.3613 137.889L31.3925 150.02L25.9685 146.866L38.9072 134.736Z" fill="#8EB780"/>
<path d="M46.7549 145.471V139.254L33.786 151.384L33.7557 153.355L46.7549 145.471Z" fill="#CCCCCC"/>
<path d="M33.7548 153.355L33.7852 151.384L31.3913 150.02L31.3308 151.96L33.7548 153.355Z" fill="#EFF0F9"/>
<path d="M44.3611 137.889L46.7549 139.254L33.786 151.384L31.3922 150.02L44.3611 137.889Z" fill="#FAFAFA"/>
<path d="M52.1787 148.594V142.378L39.2099 154.508L39.1796 156.479L52.1787 148.594Z" fill="#CCCCCC"/>
<path d="M39.1787 156.479L39.209 154.508L33.7852 151.384L33.7548 153.355L39.1787 156.479Z" fill="#527A45"/>
<path d="M46.7549 139.254L52.1787 142.378L39.2099 154.508L33.786 151.384L46.7549 139.254Z" fill="#8EB780"/>
<path d="M54.5732 149.989V143.773L41.6347 155.903L41.5741 157.844L54.5732 149.989Z" fill="#CCCCCC"/>
<path d="M41.5722 157.844L41.6328 155.903L39.2087 154.508L39.1784 156.479L41.5722 157.844Z" fill="#EFF0F9"/>
<path d="M52.1794 142.378L54.5732 143.773L41.6347 155.903L39.2106 154.508L52.1794 142.378Z" fill="#FAFAFA"/>
<path d="M60.0264 153.113V146.896L47.0575 159.026L46.9968 160.997L60.0264 153.113Z" fill="#CCCCCC"/>
<path d="M46.996 160.997L47.0566 159.026L41.6327 155.903L41.5721 157.844L46.996 160.997Z" fill="#527A45"/>
<path d="M54.5721 143.773L60.0264 146.896L47.0575 159.026L41.6336 155.903L54.5721 143.773Z" fill="#8EB780"/>
<path d="M62.4199 154.477V148.291L49.4511 160.421L49.4208 162.362L62.4199 154.477Z" fill="#CCCCCC"/>
<path d="M49.42 162.362L49.4502 160.421L47.0565 159.026L46.9958 160.997L49.42 162.362Z" fill="#EFF0F9"/>
<path d="M60.0262 146.896L62.4199 148.291L49.4511 160.421L47.0573 159.026L60.0262 146.896Z" fill="#FAFAFA"/>
<path d="M67.8447 157.631V151.415L54.8759 163.545L54.8455 165.516L67.8447 157.631Z" fill="#CCCCCC"/>
<path d="M54.8447 165.516L54.875 163.545L49.4511 160.421L49.4208 162.362L54.8447 165.516Z" fill="#527A45"/>
<path d="M62.4208 148.291L67.8447 151.415L54.8759 163.545L49.4519 160.421L62.4208 148.291Z" fill="#8EB780"/>
<path d="M70.2383 158.996V152.81L57.2997 164.909L57.2391 166.881L70.2383 158.996Z" fill="#CCCCCC"/>
<path d="M57.2373 166.881L57.2979 164.909L54.8738 163.545L54.8435 165.516L57.2373 166.881Z" fill="#EFF0F9"/>
<path d="M67.8445 151.415L70.2383 152.81L57.2997 164.909L54.8756 163.545L67.8445 151.415Z" fill="#FAFAFA"/>
<path d="M9.99801 110.506L53.7831 85.184L113.87 119.906L70.1153 145.228L9.99801 110.506Z" fill="#CCCCCC"/>
<path d="M53.7824 89.7025V94.4029L101.991 122.272L106.052 119.937L53.7824 89.7025Z" fill="#FAFAFA"/>
<path d="M17.8157 110.506L21.8761 112.841L53.7832 94.4029V89.7025L17.8157 110.506Z" fill="#CCCCCC"/>
<path d="M101.992 122.272L53.7832 94.4029L21.8761 112.841L70.1155 140.71L101.992 122.272Z" fill="#CCCCCC"/>
<g style="mix-blend-mode:multiply">
<path d="M25.1183 114.782L21.8761 112.841L53.7832 94.4029V89.7025L57.0557 96.2831L25.1183 114.782Z" fill="#EFF0F9"/>
</g>
<path d="M70.1153 145.228V148.352L113.87 123.06V119.906L70.1153 145.228Z" fill="#5C5C5C"/>
<path d="M9.99985 110.506V113.629L70.1172 148.352V145.228L9.99985 110.506Z" fill="#CCCCCC"/>
<g style="mix-blend-mode:multiply">
<path d="M101.992 122.272L79.4179 109.171L63.8129 118.208L69.6307 121.574L67.3581 125.79H76.9636L80.63 127.912L79.4179 132.643H82.9631L83.2056 132.765L101.992 122.272Z" fill="#EFF0F9"/>
</g>
<path d="M84.6611 111.355L76.995 115.813L69.2986 111.355L76.995 106.897L84.6611 111.355Z" fill="#D9DAE2"/>
<path d="M76.995 115.813V120.24L84.6611 115.813V111.355L76.995 115.813Z" fill="#FAFAFA"/>
<path d="M69.2977 111.355V115.813L76.9941 120.24V115.813L69.2977 111.355Z" fill="#D9DAE2"/>
<g style="mix-blend-mode:multiply">
<path d="M79.8749 109.929C79.0173 109.488 78.0668 109.258 77.1023 109.258C76.1379 109.258 75.1874 109.488 74.3298 109.929C74.0098 109.997 73.7226 110.172 73.5165 110.426C73.3103 110.68 73.1979 110.997 73.1979 111.324C73.1979 111.652 73.3103 111.969 73.5165 112.223C73.7226 112.477 74.0098 112.652 74.3298 112.719C75.1874 113.161 76.1379 113.391 77.1023 113.391C78.0668 113.391 79.0173 113.161 79.8749 112.719C80.1949 112.652 80.4821 112.477 80.6882 112.223C80.8943 111.969 81.0068 111.652 81.0068 111.324C81.0068 110.997 80.8943 110.68 80.6882 110.426C80.4821 110.172 80.1949 109.997 79.8749 109.929Z" fill="#D9DAE2"/>
</g>
<path d="M76.9941 112.537C75.8227 112.537 74.8731 111.994 74.8731 111.324C74.8731 110.655 75.8227 110.111 76.9941 110.111C78.1656 110.111 79.1152 110.655 79.1152 111.324C79.1152 111.994 78.1656 112.537 76.9941 112.537Z" fill="#D9DAE2"/>
<path d="M74.2053 109.929C75.0629 109.488 76.0134 109.258 76.9779 109.258C77.9423 109.258 78.8928 109.488 79.7503 109.929C80.0319 110.064 80.2807 110.259 80.4796 110.5C80.6784 110.741 80.8225 111.022 80.9018 111.324C80.9108 110.941 80.8064 110.564 80.6015 110.24C80.3965 109.916 80.1003 109.66 79.7503 109.505C78.8928 109.063 77.9423 108.833 76.9779 108.833C76.0134 108.833 75.0629 109.063 74.2053 109.505C73.8502 109.654 73.5494 109.908 73.3435 110.233C73.1375 110.559 73.0364 110.94 73.0538 111.324C73.1292 111.021 73.2718 110.737 73.4711 110.496C73.6703 110.255 73.9213 110.061 74.2053 109.929Z" fill="#FAFAFA"/>
<path d="M75.0557 116.904L67.3592 121.362L59.693 116.904L67.3592 112.477L75.0557 116.904Z" fill="#D9DAE2"/>
<path d="M67.3592 121.362V125.79L75.0557 121.362V116.904L67.3592 121.362Z" fill="#FAFAFA"/>
<path d="M59.6932 116.904V121.362L67.3594 125.79V121.362L59.6932 116.904Z" fill="#D9DAE2"/>
<g style="mix-blend-mode:multiply">
<path d="M70.1483 115.479C69.2907 115.037 68.3402 114.807 67.3758 114.807C66.4113 114.807 65.4608 115.037 64.6032 115.479C64.2832 115.546 63.996 115.722 63.7899 115.976C63.5838 116.23 63.4712 116.547 63.4712 116.874C63.4712 117.201 63.5838 117.519 63.7899 117.773C63.996 118.027 64.2832 118.202 64.6032 118.269C65.4608 118.711 66.4113 118.941 67.3758 118.941C68.3402 118.941 69.2907 118.711 70.1483 118.269C70.4683 118.202 70.7555 118.027 70.9616 117.773C71.1677 117.519 71.2803 117.201 71.2803 116.874C71.2803 116.547 71.1677 116.23 70.9616 115.976C70.7555 115.722 70.4683 115.546 70.1483 115.479Z" fill="#D9DAE2"/>
</g>
<path d="M68.8728 115.995C69.0547 116.054 69.213 116.17 69.3253 116.325C69.4376 116.481 69.498 116.667 69.498 116.859C69.498 117.05 69.4376 117.237 69.3253 117.392C69.213 117.548 69.0547 117.663 68.8728 117.723C68.4004 117.951 67.8825 118.07 67.3578 118.07C66.8331 118.07 66.3152 117.951 65.8427 117.723C65.6609 117.663 65.5025 117.548 65.3903 117.392C65.278 117.237 65.2175 117.05 65.2175 116.859C65.2175 116.667 65.278 116.481 65.3903 116.325C65.5025 116.17 65.6609 116.054 65.8427 115.995C66.3104 115.75 66.8302 115.622 67.3578 115.622C67.8854 115.622 68.4052 115.75 68.8728 115.995Z" fill="#D9DAE2"/>
<path d="M64.7219 115.479C65.5795 115.037 66.53 114.807 67.4945 114.807C68.4589 114.807 69.4094 115.037 70.2669 115.479C70.5485 115.614 70.7974 115.809 70.9963 116.05C71.1951 116.291 71.3391 116.572 71.4184 116.874C71.4274 116.491 71.323 116.114 71.1181 115.79C70.9131 115.466 70.6169 115.21 70.2669 115.054C69.4094 114.613 68.4589 114.383 67.4945 114.383C66.53 114.383 65.5795 114.613 64.7219 115.054C64.3668 115.203 64.066 115.457 63.8601 115.783C63.6541 116.108 63.553 116.489 63.5704 116.874C63.6458 116.57 63.7885 116.287 63.9878 116.046C64.187 115.804 64.4379 115.61 64.7219 115.479Z" fill="#FAFAFA"/>
<path d="M96.7188 118.208L89.0222 122.636L81.3258 118.208L89.0222 113.75L96.7188 118.208Z" fill="#D9DAE2"/>
<path d="M89.0222 122.636V127.094L96.7188 122.636V118.208L89.0222 122.636Z" fill="#FAFAFA"/>
<path d="M81.3261 118.208V122.636L89.0225 127.094V122.636L81.3261 118.208Z" fill="#D9DAE2"/>
<g style="mix-blend-mode:multiply">
<path d="M91.8105 116.753C90.9455 116.318 89.9908 116.091 89.0228 116.091C88.0548 116.091 87.1002 116.318 86.2351 116.753C85.9521 116.889 85.7038 117.088 85.5095 117.335C85.3152 117.582 85.1799 117.871 85.114 118.178C85.182 118.481 85.3184 118.764 85.5127 119.006C85.7071 119.248 85.9542 119.442 86.2351 119.573C87.1002 120.008 88.0548 120.234 89.0228 120.234C89.9908 120.234 90.9455 120.008 91.8105 119.573C92.0914 119.442 92.3386 119.248 92.5329 119.006C92.7272 118.764 92.8636 118.481 92.9316 118.178C92.8657 117.871 92.7304 117.582 92.536 117.335C92.3417 117.088 92.0936 116.889 91.8105 116.753Z" fill="#D9DAE2"/>
</g>
<path d="M90.5105 117.299C90.6924 117.358 90.8507 117.474 90.963 117.629C91.0753 117.784 91.1357 117.971 91.1357 118.163C91.1357 118.354 91.0753 118.541 90.963 118.696C90.8507 118.852 90.6924 118.967 90.5105 119.027C90.0445 119.277 89.5241 119.407 88.9955 119.407C88.4669 119.407 87.9465 119.277 87.4804 119.027C87.2986 118.967 87.1401 118.852 87.0279 118.696C86.9156 118.541 86.8552 118.354 86.8552 118.163C86.8552 117.971 86.9156 117.784 87.0279 117.629C87.1401 117.474 87.2986 117.358 87.4804 117.299C87.951 117.064 88.4696 116.941 88.9955 116.941C89.5213 116.941 90.04 117.064 90.5105 117.299Z" fill="#D9DAE2"/>
<path d="M86.2373 116.753C87.1023 116.318 88.0569 116.091 89.0249 116.091C89.9929 116.091 90.9476 116.318 91.8127 116.753C92.0957 116.889 92.3439 117.088 92.5382 117.335C92.7325 117.582 92.8678 117.871 92.9338 118.178C92.958 117.796 92.8632 117.416 92.6624 117.09C92.4616 116.764 92.1647 116.508 91.8127 116.358C90.9476 115.924 89.9929 115.697 89.0249 115.697C88.0569 115.697 87.1023 115.924 86.2373 116.358C85.8852 116.508 85.5883 116.764 85.3875 117.09C85.1866 117.416 85.0919 117.796 85.1161 118.178C85.1821 117.871 85.3173 117.582 85.5116 117.335C85.706 117.088 85.9542 116.889 86.2373 116.753Z" fill="#FAFAFA"/>
<path d="M87.1143 123.758L79.4178 128.185L71.7213 123.758L79.4178 119.3L87.1143 123.758Z" fill="#D9DAE2"/>
<path d="M79.4178 128.185V132.643L87.1143 128.185V123.758L79.4178 128.185Z" fill="#FAFAFA"/>
<path d="M71.7205 123.758V128.185L79.417 132.643V128.185L71.7205 123.758Z" fill="#D9DAE2"/>
<g style="mix-blend-mode:multiply">
<path d="M82.205 122.302C81.3399 121.867 80.3853 121.641 79.4173 121.641C78.4493 121.641 77.4946 121.867 76.6296 122.302C76.3465 122.439 76.0984 122.638 75.904 122.885C75.7097 123.132 75.5744 123.42 75.5084 123.727C75.5765 124.03 75.7129 124.313 75.9073 124.555C76.1016 124.797 76.3487 124.991 76.6296 125.123C77.4946 125.557 78.4493 125.784 79.4173 125.784C80.3853 125.784 81.3399 125.557 82.205 125.123C82.4859 124.991 82.733 124.797 82.9273 124.555C83.1217 124.313 83.2581 124.03 83.3262 123.727C83.2602 123.42 83.1249 123.132 82.9306 122.885C82.7363 122.638 82.488 122.439 82.205 122.302Z" fill="#D9DAE2"/>
</g>
<path d="M80.9021 122.818C81.084 122.878 81.2423 122.993 81.3546 123.149C81.4669 123.304 81.5273 123.49 81.5273 123.682C81.5273 123.874 81.4669 124.06 81.3546 124.216C81.2423 124.371 81.084 124.487 80.9021 124.546C80.4361 124.796 79.9157 124.926 79.3871 124.926C78.8585 124.926 78.3381 124.796 77.872 124.546C77.6902 124.487 77.5318 124.371 77.4196 124.216C77.3073 124.06 77.2468 123.874 77.2468 123.682C77.2468 123.49 77.3073 123.304 77.4196 123.149C77.5318 122.993 77.6902 122.878 77.872 122.818C78.3426 122.583 78.8612 122.461 79.3871 122.461C79.9129 122.461 80.4316 122.583 80.9021 122.818Z" fill="#D9DAE2"/>
<path d="M76.6317 122.302C77.4968 121.867 78.4514 121.641 79.4194 121.641C80.3875 121.641 81.342 121.867 82.2071 122.302C82.4902 122.439 82.7384 122.638 82.9327 122.885C83.127 123.132 83.2624 123.42 83.3283 123.728C83.3526 123.345 83.2577 122.965 83.0569 122.639C82.8561 122.313 82.5591 122.058 82.2071 121.908C81.342 121.473 80.3875 121.247 79.4194 121.247C78.4514 121.247 77.4968 121.473 76.6317 121.908C76.2797 122.058 75.9828 122.313 75.782 122.639C75.5812 122.965 75.4863 123.345 75.5106 123.728C75.5765 123.42 75.7119 123.132 75.9062 122.885C76.1005 122.638 76.3486 122.439 76.6317 122.302Z" fill="#FAFAFA"/>
<g style="mix-blend-mode:multiply">
<path d="M53.6023 122.575L68.8438 144.409H71.5103L80.6006 139.163L53.6023 122.575Z" fill="#EFF0F9"/>
</g>
<path d="M12.3636 93.7964V111.779L68.8447 144.409V126.427L12.3636 93.7964Z" fill="#EFF0F9"/>
<path d="M16.6193 100.893L17.5682 101.441L19.9889 109.794L22.404 104.233L23.358 104.784L20.3543 111.581L19.6134 111.153L16.6193 100.893ZM16.3098 100.714L17.1471 101.198L17.2842 106.48L17.2843 109.808L16.3101 109.246L16.3098 100.714ZM22.8252 104.476L23.6624 104.96L23.6627 113.491L22.6884 112.928L22.6883 109.6L22.8252 104.476Z" fill="#090909"/>
<path d="M28.209 108.341L25.7635 114.704L24.7638 114.127L27.5798 107.222L28.2242 107.594L28.209 108.341ZM30.2593 117.3L27.8081 108.109L27.7929 107.345L28.4373 107.717L31.264 117.88L30.2593 117.3ZM30.1323 114.068L30.1323 114.994L25.9816 112.597L25.9816 111.672L30.1323 114.068Z" fill="#090909"/>
<path d="M36.8353 112.566L36.8353 113.491L33.2731 111.435L33.2734 119.04L32.2991 118.478L32.2989 109.946L36.8353 112.566Z" fill="#090909"/>
<path d="M39.7885 115.027L37.343 121.39L36.3433 120.813L39.1593 113.907L39.8037 114.28L39.7885 115.027ZM41.8388 123.986L39.3876 114.795L39.3724 114.031L40.0168 114.403L42.8435 124.566L41.8388 123.986ZM41.7118 120.754L41.7118 121.68L37.5611 119.283L37.561 118.358L41.7118 120.754Z" fill="#090909"/>
<path d="M46.0959 122.348L45.2181 121.841L45.2181 121.121L46.0604 121.607C46.4325 121.822 46.7336 121.935 46.9636 121.947C47.1936 121.959 47.3611 121.887 47.466 121.733C47.5708 121.579 47.6232 121.361 47.6232 121.08C47.6232 120.81 47.5657 120.531 47.4507 120.242C47.3357 119.949 47.1581 119.667 46.9179 119.395C46.6777 119.12 46.3682 118.873 45.9893 118.654C45.7051 118.49 45.448 118.404 45.218 118.396C44.988 118.384 44.8053 118.449 44.67 118.589C44.5347 118.726 44.467 118.935 44.467 119.216L43.4877 118.651C43.4877 118.287 43.5536 117.999 43.6856 117.787C43.8175 117.57 43.9985 117.426 44.2285 117.356C44.4585 117.282 44.7241 117.277 45.0251 117.341C45.3296 117.408 45.651 117.539 45.9892 117.734C46.385 117.962 46.7436 118.222 47.065 118.513C47.3864 118.8 47.6621 119.112 47.8921 119.448C48.1222 119.784 48.2981 120.137 48.4199 120.508C48.5417 120.879 48.6026 121.264 48.6026 121.663C48.6026 121.956 48.5434 122.197 48.425 122.386C48.3066 122.576 48.1375 122.705 47.9176 122.773C47.6977 122.841 47.4339 122.843 47.126 122.779C46.8182 122.71 46.4748 122.567 46.0959 122.348ZM45.2181 121.343L46.0959 121.85C46.512 122.09 46.8824 122.353 47.2072 122.638C47.532 122.923 47.806 123.224 48.0292 123.541C48.2525 123.857 48.4217 124.187 48.5367 124.531C48.6551 124.873 48.7143 125.221 48.7143 125.577C48.7143 125.975 48.6467 126.29 48.5114 126.52C48.3795 126.752 48.1917 126.906 47.9482 126.98C47.7046 127.054 47.4154 127.049 47.0805 126.965C46.749 126.883 46.3853 126.728 45.9895 126.499C45.6715 126.316 45.3569 126.087 45.0457 125.814C44.7379 125.539 44.4588 125.229 44.2084 124.885C43.9581 124.538 43.7568 124.163 43.6046 123.763C43.4557 123.365 43.3813 122.947 43.3813 122.509L44.3606 123.075C44.3606 123.36 44.4283 123.661 44.5636 123.977C44.7023 124.295 44.8934 124.597 45.137 124.882C45.3806 125.164 45.6647 125.398 45.9895 125.585C46.3616 125.8 46.6762 125.916 46.9333 125.931C47.1938 125.945 47.3917 125.874 47.527 125.717C47.6657 125.559 47.735 125.332 47.735 125.035C47.735 124.773 47.6978 124.525 47.6233 124.291C47.5523 124.054 47.4457 123.833 47.3036 123.625C47.1649 123.42 46.9907 123.228 46.781 123.048C46.5746 122.867 46.3344 122.697 46.0604 122.539L45.2181 122.052L45.2181 121.343Z" fill="#090909"/>
<path d="M51.0231 127.332L54.6612 122.858L55.6405 123.424L55.6408 131.955L54.6615 131.389L54.6612 124.809L51.0232 129.289L50.0489 128.726L50.0487 120.195L51.0229 120.757L51.0231 127.332Z" fill="#090909"/>
<path d="M62.2473 130.906L62.2474 131.826L58.2488 129.517L58.2488 128.598L62.2473 130.906ZM58.4009 125.017L58.4012 133.549L57.4219 132.983L57.4216 124.452L58.4009 125.017ZM63.0997 127.73L63.1 136.262L62.1257 135.699L62.1254 127.168L63.0997 127.73Z" fill="#090909"/>
<path d="M72.5996 124.395V142.378L68.8422 144.409V126.426L72.5996 124.395Z" fill="#D9DAE2"/>
<path d="M72.5996 124.395L16.1183 91.7645L12.361 93.7964L68.8422 126.427L72.5996 124.395Z" fill="#D9DAE2"/>
<g style="mix-blend-mode:multiply">
<path d="M193.685 206.758L188.837 256.644H249.621L274.771 242.118L205.836 203.938H188.958L193.685 206.758Z" fill="#E5F8FF"/>
</g>
<path d="M188.836 210.731V256.644L229.47 233.172V187.229L188.836 210.731Z" fill="#CCCCCC"/>
<path d="M131.84 177.828V223.741L188.836 256.644V210.731L131.84 177.828Z" fill="#FAFAFA"/>
<g style="mix-blend-mode:multiply">
<path d="M131.84 179.981V194.689L188.836 227.592V212.914L131.84 179.981Z" fill="#EFF0F9"/>
</g>
<path d="M185.471 254.066L149.806 233.475V205.091L185.471 225.681V254.066Z" fill="#FAFAFA"/>
<path d="M150.778 208.942V232.899L182.624 251.306V227.319L150.778 208.942ZM148.839 205.606L184.533 226.227V254.612L148.839 233.991V205.606Z" fill="#8EB780"/>
<path d="M149.806 205.091L148.867 205.636L184.531 226.258L185.471 225.681L149.806 205.091Z" fill="#527A45"/>
<path d="M184.531 226.258V254.642L185.471 254.066V225.681L184.531 226.258Z" fill="#090909"/>
<path d="M150.777 208.942V232.899L151.717 232.353V209.488L150.777 208.942Z" fill="#5C5C5C"/>
<path d="M151.717 232.353L150.778 232.899L182.624 251.306V250.215L151.717 232.353Z" fill="#527A45"/>
<path d="M166.747 218.161V242.118L167.687 241.572V218.707L166.747 218.161Z" fill="#090909"/>
<path d="M165.776 217.615V241.572L166.746 242.118V218.161L165.776 217.615Z" fill="#8EB780"/>
<path d="M145.201 230.564L135.535 224.984V199.784L145.201 205.363V230.564Z" fill="#FAFAFA"/>
<path d="M146.991 204.696V233.475L145.203 232.444L135.537 226.864L133.75 225.833V197.054L135.537 198.085L145.203 203.665L146.991 204.696ZM135.537 199.875V213.4L145.203 218.949V205.454L135.537 199.875ZM145.203 230.655V220.738L135.537 215.159V225.075L145.203 230.655Z" fill="#5C5C5C"/>
<path d="M146.991 204.696V233.475L145.203 232.444L135.537 226.864L133.75 225.833V197.054L135.537 198.085L145.203 203.665L146.991 204.696ZM135.537 199.875V213.4L145.203 218.949V205.454L135.537 199.875ZM145.203 230.655V220.738L135.537 215.159V225.075L145.203 230.655Z" fill="#8EB780"/>
<path d="M145.991 203.15L136.325 197.57L134.537 196.539L133.779 196.994L135.537 198.025L145.203 203.574L146.99 204.605L147.778 204.15L145.991 203.15Z" fill="#527A45"/>
<path d="M146.99 204.605V206.395V231.595V233.384L147.778 232.929V231.14V205.94V204.15L146.99 204.605Z" fill="#5C5C5C"/>
<path d="M135.535 199.784V213.309L136.323 212.854V200.238L135.535 199.784Z" fill="#5C5C5C"/>
<path d="M136.323 212.854L135.535 213.309L145.201 218.889V217.979L136.323 212.854Z" fill="#527A45"/>
<path d="M135.535 215.098V224.984L136.323 224.559V215.553L135.535 215.098Z" fill="#5C5C5C"/>
<path d="M136.323 224.559L135.535 224.984L145.201 230.564V229.684L136.323 224.559Z" fill="#527A45"/>
<path d="M128.113 196.599L134.143 186.713L121.174 198.843L121.143 200.815L128.113 196.599Z" fill="#CCCCCC"/>
<path d="M121.143 200.815L121.173 198.843L118.779 197.448L118.718 199.42L121.143 200.815Z" fill="#EFF0F9"/>
<path d="M131.749 185.349L134.143 186.713L121.174 198.843L118.78 197.448L131.749 185.349Z" fill="#FAFAFA"/>
<path d="M139.566 196.054V189.837L126.628 201.967L126.567 203.938L139.566 196.054Z" fill="#CCCCCC"/>
<path d="M126.566 203.938L126.627 201.967L121.173 198.843L121.142 200.815L126.566 203.938Z" fill="#527A45"/>
<path d="M134.142 186.713L139.566 189.837L126.628 201.967L121.174 198.843L134.142 186.713Z" fill="#8EB780"/>
<path d="M141.99 197.448V191.232L129.021 203.362L128.961 205.303L141.99 197.448Z" fill="#CCCCCC"/>
<path d="M128.96 205.303L129.021 203.362L126.627 201.967L126.566 203.938L128.96 205.303Z" fill="#EFF0F9"/>
<path d="M139.566 189.837L141.99 191.232L129.021 203.362L126.628 201.967L139.566 189.837Z" fill="#FAFAFA"/>
<path d="M147.414 200.572V194.355L134.445 206.485L140.415 204.787L147.414 200.572Z" fill="#CCCCCC"/>
<path d="M134.414 208.457L134.444 206.486L129.02 203.362L128.96 205.303L134.414 208.457Z" fill="#527A45"/>
<path d="M141.99 191.232L147.414 194.355L134.445 206.485L129.021 203.362L141.99 191.232Z" fill="#8EB780"/>
<path d="M149.809 201.937V195.75L136.87 207.88L136.809 209.821L149.809 201.937Z" fill="#CCCCCC"/>
<path d="M136.808 209.821L136.868 207.88L134.444 206.485L134.414 208.457L136.808 209.821Z" fill="#EFF0F9"/>
<path d="M147.415 194.355L149.809 195.75L136.87 207.88L134.446 206.485L147.415 194.355Z" fill="#FAFAFA"/>
<path d="M155.232 205.091V198.874L142.294 211.004L142.233 212.975L155.232 205.091Z" fill="#CCCCCC"/>
<path d="M142.231 212.975L142.292 211.004L136.868 207.88L136.808 209.821L142.231 212.975Z" fill="#527A45"/>
<path d="M149.809 195.75L155.232 198.874L142.294 211.004L136.87 207.88L149.809 195.75Z" fill="#8EB780"/>
<path d="M157.655 206.455V200.269L144.686 212.369L144.626 214.34L157.655 206.455Z" fill="#CCCCCC"/>
<path d="M144.625 214.34L144.686 212.369L142.292 211.004L142.231 212.975L144.625 214.34Z" fill="#EFF0F9"/>
<path d="M155.231 198.874L157.655 200.269L144.686 212.369L142.293 211.004L155.231 198.874Z" fill="#FAFAFA"/>
<path d="M163.08 209.609V203.392L150.111 215.522L150.081 217.494L163.08 209.609Z" fill="#CCCCCC"/>
<path d="M150.08 217.494L150.11 215.522L144.687 212.369L144.626 214.34L150.08 217.494Z" fill="#527A45"/>
<path d="M157.656 200.269L163.08 203.392L150.111 215.522L144.687 212.369L157.656 200.269Z" fill="#8EB780"/>
<path d="M165.474 210.974V204.757L152.505 216.887L152.474 218.858L165.474 210.974Z" fill="#CCCCCC"/>
<path d="M152.474 218.858L152.504 216.887L150.11 215.522L150.08 217.494L152.474 218.858Z" fill="#EFF0F9"/>
<path d="M163.08 203.392L165.474 204.757L152.505 216.887L150.111 215.522L163.08 203.392Z" fill="#FAFAFA"/>
<path d="M170.897 214.127V207.911L157.959 220.041L157.898 221.982L170.897 214.127Z" fill="#CCCCCC"/>
<path d="M157.897 221.982L157.958 220.041L152.504 216.887L152.474 218.858L157.897 221.982Z" fill="#527A45"/>
<path d="M165.474 204.757L170.897 207.911L157.959 220.041L152.505 216.887L165.474 204.757Z" fill="#8EB780"/>
<path d="M173.292 215.492V209.275L160.353 221.406L160.293 223.377L173.292 215.492Z" fill="#CCCCCC"/>
<path d="M160.291 223.377L160.352 221.406L157.958 220.041L157.897 221.982L160.291 223.377Z" fill="#EFF0F9"/>
<path d="M170.898 207.911L173.292 209.275L160.353 221.406L157.96 220.041L170.898 207.911Z" fill="#FAFAFA"/>
<path d="M178.745 218.616V212.429L165.776 224.559L165.716 226.5L178.745 218.616Z" fill="#CCCCCC"/>
<path d="M165.715 226.5L165.775 224.559L160.351 221.406L160.291 223.377L165.715 226.5Z" fill="#527A45"/>
<path d="M173.291 209.275L178.745 212.429L165.776 224.559L160.352 221.406L173.291 209.275Z" fill="#8EB780"/>
<path d="M181.139 220.011V213.794L168.17 225.924L168.139 227.895L181.139 220.011Z" fill="#CCCCCC"/>
<path d="M168.139 227.895L168.169 225.924L165.775 224.559L165.714 226.5L168.139 227.895Z" fill="#EFF0F9"/>
<path d="M178.745 212.429L181.139 213.794L168.17 225.924L165.776 224.559L178.745 212.429Z" fill="#FAFAFA"/>
<path d="M186.563 223.134V216.948L173.625 229.078L173.564 231.019L186.563 223.134Z" fill="#CCCCCC"/>
<path d="M173.565 231.019L173.626 229.078L168.172 225.924L168.141 227.895L173.565 231.019Z" fill="#527A45"/>
<path d="M181.14 213.794L186.563 216.948L173.625 229.078L168.171 225.924L181.14 213.794Z" fill="#8EB780"/>
<path d="M188.957 224.529V218.312L176.019 230.443L175.958 232.414L188.957 224.529Z" fill="#CCCCCC"/>
<path d="M175.959 232.414L176.02 230.442L173.626 229.078L173.565 231.019L175.959 232.414Z" fill="#EFF0F9"/>
<path d="M186.563 216.948L188.957 218.312L176.019 230.443L173.625 229.078L186.563 216.948Z" fill="#FAFAFA"/>
<path d="M128.72 176.008L172.505 150.717L232.592 185.44L188.837 210.731L128.72 176.008Z" fill="#CCCCCC"/>
<path d="M172.504 155.236V159.906L220.743 187.775L224.773 185.44L172.504 155.236Z" fill="#FAFAFA"/>
<path d="M136.538 176.008L140.598 178.344L172.505 159.906V155.236L136.538 176.008Z" fill="#CCCCCC"/>
<path d="M220.743 187.775L172.504 159.906L140.597 178.344L188.836 206.213L220.743 187.775Z" fill="#CCCCCC"/>
<g style="mix-blend-mode:multiply">
<path d="M143.84 180.284L140.598 178.344L172.505 159.906V155.236L175.777 161.786L143.84 180.284Z" fill="#EFF0F9"/>
</g>
<path d="M188.837 210.731V213.855L232.592 188.563V185.44L188.837 210.731Z" fill="#5C5C5C"/>
<path d="M128.719 176.008V179.132L188.836 213.855V210.731L128.719 176.008Z" fill="#CCCCCC"/>
<g style="mix-blend-mode:multiply">
<path d="M220.743 187.775L198.139 174.704L182.534 183.711L188.351 187.077L186.109 191.323H195.684L199.351 193.446L198.139 198.146H201.714L201.926 198.298L220.743 187.775Z" fill="#EFF0F9"/>
</g>
<path d="M203.409 176.858L195.713 181.315L188.016 176.858L195.713 172.43L203.409 176.858Z" fill="#D9DAE2"/>
<path d="M195.713 181.315V185.773L203.409 181.315V176.858L195.713 181.315Z" fill="#FAFAFA"/>
<path d="M188.019 176.858V181.315L195.716 185.773V181.315L188.019 176.858Z" fill="#D9DAE2"/>
<g style="mix-blend-mode:multiply">
<path d="M198.47 175.432C197.612 174.991 196.662 174.76 195.697 174.76C194.733 174.76 193.782 174.991 192.925 175.432C192.643 175.567 192.394 175.762 192.195 176.003C191.997 176.244 191.852 176.525 191.773 176.827C191.846 177.136 191.988 177.424 192.187 177.671C192.386 177.917 192.638 178.116 192.925 178.253C193.782 178.694 194.733 178.925 195.697 178.925C196.662 178.925 197.612 178.694 198.47 178.253C198.756 178.116 199.008 177.917 199.207 177.671C199.406 177.424 199.548 177.136 199.621 176.827C199.542 176.525 199.398 176.244 199.199 176.003C199 175.762 198.751 175.567 198.47 175.432Z" fill="#D9DAE2"/>
</g>
<path d="M197.2 175.978C197.382 176.038 197.54 176.154 197.652 176.309C197.765 176.464 197.825 176.651 197.825 176.842C197.825 177.034 197.765 177.221 197.652 177.376C197.54 177.531 197.382 177.647 197.2 177.707C196.732 177.951 196.213 178.079 195.685 178.079C195.157 178.079 194.638 177.951 194.17 177.707C193.988 177.647 193.83 177.531 193.717 177.376C193.605 177.221 193.545 177.034 193.545 176.842C193.545 176.651 193.605 176.464 193.717 176.309C193.83 176.154 193.988 176.038 194.17 175.978C194.638 175.734 195.157 175.606 195.685 175.606C196.213 175.606 196.732 175.734 197.2 175.978Z" fill="#D9DAE2"/>
<path d="M192.925 175.432C193.783 174.991 194.733 174.76 195.698 174.76C196.662 174.76 197.613 174.991 198.47 175.432C198.752 175.567 199.001 175.762 199.199 176.003C199.398 176.244 199.542 176.525 199.622 176.827C199.642 176.446 199.541 176.068 199.334 175.747C199.128 175.425 198.825 175.178 198.47 175.038C197.613 174.597 196.662 174.366 195.698 174.366C194.733 174.366 193.783 174.597 192.925 175.038C192.575 175.185 192.278 175.435 192.072 175.754C191.867 176.073 191.762 176.448 191.774 176.827C191.853 176.525 191.997 176.244 192.196 176.003C192.395 175.762 192.643 175.567 192.925 175.432Z" fill="#FAFAFA"/>
<path d="M193.804 182.438L186.107 186.865L178.411 182.438L186.107 177.98L193.804 182.438Z" fill="#D9DAE2"/>
<path d="M186.107 186.865V191.323L193.804 186.865V182.438L186.107 186.865Z" fill="#FAFAFA"/>
<path d="M178.411 182.438V186.865L186.107 191.323V186.865L178.411 182.438Z" fill="#D9DAE2"/>
<g style="mix-blend-mode:multiply">
<path d="M188.957 180.982C188.099 180.54 187.149 180.31 186.184 180.31C185.22 180.31 184.269 180.54 183.412 180.982C183.13 181.117 182.881 181.312 182.683 181.552C182.484 181.793 182.34 182.075 182.26 182.377C182.334 182.685 182.475 182.974 182.675 183.22C182.874 183.467 183.126 183.666 183.412 183.802C184.269 184.244 185.22 184.474 186.184 184.474C187.149 184.474 188.099 184.244 188.957 183.802C189.243 183.666 189.495 183.467 189.694 183.22C189.894 182.974 190.035 182.685 190.108 182.377C190.029 182.075 189.885 181.793 189.686 181.552C189.487 181.312 189.239 181.117 188.957 180.982Z" fill="#D9DAE2"/>
</g>
<path d="M187.594 181.497C188.413 181.983 188.413 182.771 187.594 183.226C187.127 183.47 186.607 183.598 186.079 183.598C185.552 183.598 185.032 183.47 184.564 183.226C183.746 182.771 183.746 181.983 184.564 181.497C185.037 181.269 185.555 181.151 186.079 181.151C186.604 181.151 187.122 181.269 187.594 181.497Z" fill="#D9DAE2"/>
<path d="M183.321 180.982C184.178 180.54 185.129 180.31 186.093 180.31C187.057 180.31 188.008 180.54 188.866 180.982C189.147 181.117 189.396 181.311 189.595 181.552C189.794 181.793 189.938 182.075 190.017 182.377C190.037 181.995 189.937 181.617 189.73 181.296C189.523 180.975 189.221 180.727 188.866 180.588C188.008 180.146 187.057 179.916 186.093 179.916C185.129 179.916 184.178 180.146 183.321 180.588C182.97 180.734 182.673 180.984 182.467 181.304C182.262 181.623 182.158 181.997 182.169 182.377C182.248 182.075 182.392 181.793 182.591 181.552C182.79 181.311 183.039 181.117 183.321 180.982Z" fill="#FAFAFA"/>
<path d="M215.44 183.711L207.744 188.169L200.048 183.711L207.744 179.284L215.44 183.711Z" fill="#D9DAE2"/>
<path d="M207.744 188.169V192.596L215.44 188.169V183.711L207.744 188.169Z" fill="#FAFAFA"/>
<path d="M200.048 183.711V188.169L207.744 192.596V188.169L200.048 183.711Z" fill="#D9DAE2"/>
<g style="mix-blend-mode:multiply">
<path d="M210.53 182.286C209.665 181.851 208.711 181.625 207.743 181.625C206.774 181.625 205.82 181.851 204.955 182.286C204.635 182.353 204.348 182.528 204.141 182.782C203.935 183.036 203.823 183.354 203.823 183.681C203.823 184.008 203.935 184.325 204.141 184.579C204.348 184.833 204.635 185.009 204.955 185.076C205.816 185.522 206.772 185.756 207.743 185.756C208.713 185.756 209.669 185.522 210.53 185.076C210.85 185.009 211.137 184.833 211.343 184.579C211.55 184.325 211.662 184.008 211.662 183.681C211.662 183.354 211.55 183.036 211.343 182.782C211.137 182.528 210.85 182.353 210.53 182.286Z" fill="#D9DAE2"/>
</g>
<path d="M209.228 182.832C209.414 182.882 209.579 182.993 209.697 183.146C209.814 183.3 209.878 183.487 209.878 183.681C209.878 183.874 209.814 184.062 209.697 184.216C209.579 184.369 209.414 184.48 209.228 184.53C208.762 184.779 208.241 184.91 207.713 184.91C207.184 184.91 206.664 184.779 206.198 184.53C206.011 184.48 205.847 184.369 205.729 184.216C205.612 184.062 205.548 183.874 205.548 183.681C205.548 183.487 205.612 183.3 205.729 183.146C205.847 182.993 206.011 182.882 206.198 182.832C206.664 182.582 207.184 182.452 207.713 182.452C208.241 182.452 208.762 182.582 209.228 182.832Z" fill="#D9DAE2"/>
<path d="M204.957 182.286C205.822 181.851 206.777 181.625 207.745 181.625C208.713 181.625 209.667 181.851 210.532 182.286C210.813 182.417 211.06 182.611 211.255 182.853C211.449 183.095 211.585 183.378 211.653 183.681C211.653 183.044 211.381 182.377 210.532 181.861C209.667 181.427 208.713 181.2 207.745 181.2C206.777 181.2 205.822 181.427 204.957 181.861C204.61 182.018 204.318 182.275 204.118 182.599C203.918 182.924 203.82 183.3 203.836 183.681C203.91 183.381 204.048 183.1 204.242 182.859C204.436 182.618 204.68 182.423 204.957 182.286Z" fill="#FAFAFA"/>
<path d="M205.836 189.261L198.139 193.719L190.443 189.261L198.139 184.833L205.836 189.261Z" fill="#D9DAE2"/>
<path d="M198.139 193.719V198.146L205.836 193.719V189.261L198.139 193.719Z" fill="#FAFAFA"/>
<path d="M190.442 189.261V193.719L198.139 198.146V193.719L190.442 189.261Z" fill="#D9DAE2"/>
<g style="mix-blend-mode:multiply">
<path d="M200.925 187.835C200.06 187.401 199.105 187.174 198.137 187.174C197.169 187.174 196.214 187.401 195.349 187.835C195.029 187.903 194.742 188.078 194.536 188.332C194.33 188.586 194.217 188.903 194.217 189.23C194.217 189.558 194.33 189.875 194.536 190.129C194.742 190.383 195.029 190.558 195.349 190.625C196.211 191.072 197.167 191.305 198.137 191.305C199.107 191.305 200.063 191.072 200.925 190.625C201.245 190.558 201.532 190.383 201.738 190.129C201.944 189.875 202.057 189.558 202.057 189.23C202.057 188.903 201.944 188.586 201.738 188.332C201.532 188.078 201.245 187.903 200.925 187.835Z" fill="#D9DAE2"/>
</g>
<path d="M199.624 188.381C200.442 188.836 200.442 189.625 199.624 190.11C199.153 190.345 198.635 190.467 198.109 190.467C197.583 190.467 197.064 190.345 196.594 190.11C195.775 189.625 195.775 188.836 196.594 188.381C197.06 188.132 197.58 188.001 198.109 188.001C198.637 188.001 199.158 188.132 199.624 188.381Z" fill="#D9DAE2"/>
<path d="M195.351 187.835C196.216 187.401 197.171 187.174 198.139 187.174C199.107 187.174 200.062 187.401 200.927 187.835C201.208 187.967 201.455 188.161 201.649 188.403C201.843 188.644 201.98 188.928 202.048 189.23C202.048 188.593 201.775 187.926 200.927 187.411C200.062 186.976 199.107 186.75 198.139 186.75C197.171 186.75 196.216 186.976 195.351 187.411C195.004 187.568 194.712 187.825 194.513 188.149C194.313 188.473 194.214 188.85 194.23 189.23C194.304 188.93 194.443 188.65 194.637 188.409C194.83 188.168 195.074 187.972 195.351 187.835Z" fill="#FAFAFA"/>
<g style="mix-blend-mode:multiply">
<path d="M172.321 188.108L187.563 209.912H190.229L199.319 204.666L172.321 188.108Z" fill="#EFF0F9"/>
</g>
<path d="M131.082 159.299V177.282L187.563 209.912V191.929L131.082 159.299Z" fill="#EFF0F9"/>
<path d="M135.338 166.866L136.287 167.414L138.708 175.766L141.123 170.206L142.077 170.757L139.073 177.554L138.332 177.126L135.338 166.866ZM135.029 166.687L135.866 167.171L136.003 172.453L136.003 175.781L135.029 175.218L135.029 166.687ZM141.544 170.449L142.381 170.933L142.381 179.464L141.407 178.901L141.407 175.573L141.544 170.449Z" fill="#090909"/>
<path d="M146.928 174.314L144.482 180.677L143.483 180.1L146.299 173.194L146.943 173.566L146.928 174.314ZM148.978 183.273L146.527 174.082L146.512 173.317L147.156 173.69L149.983 183.853L148.978 183.273ZM148.851 180.041L148.851 180.967L144.7 178.57L144.7 177.645L148.851 180.041Z" fill="#090909"/>
<path d="M155.554 178.538L155.554 179.464L151.992 177.407L151.992 185.013L151.018 184.45L151.018 175.919L155.554 178.538Z" fill="#090909"/>
<path d="M158.507 180.999L156.062 187.363L155.062 186.785L157.878 179.88L158.522 180.252L158.507 180.999ZM160.558 189.958L158.106 180.768L158.091 180.003L158.736 180.375L161.562 190.539L160.558 189.958ZM160.431 186.727L160.431 187.653L156.28 185.256L156.28 184.33L160.431 186.727Z" fill="#090909"/>
<path d="M164.815 188.321L163.937 187.814L163.937 187.093L164.779 187.58C165.151 187.795 165.452 187.908 165.682 187.92C165.912 187.931 166.08 187.86 166.185 187.706C166.29 187.551 166.342 187.334 166.342 187.052C166.342 186.783 166.284 186.504 166.169 186.215C166.054 185.922 165.877 185.639 165.637 185.368C165.396 185.092 165.087 184.845 164.708 184.627C164.424 184.463 164.167 184.377 163.937 184.369C163.707 184.357 163.524 184.421 163.389 184.562C163.253 184.699 163.186 184.908 163.186 185.189L162.206 184.624C162.206 184.26 162.272 183.972 162.404 183.759C162.536 183.543 162.717 183.399 162.947 183.329C163.177 183.254 163.443 183.25 163.744 183.314C164.048 183.38 164.37 183.511 164.708 183.707C165.104 183.935 165.462 184.195 165.784 184.486C166.105 184.773 166.381 185.085 166.611 185.421C166.841 185.757 167.017 186.11 167.139 186.481C167.26 186.852 167.321 187.237 167.321 187.635C167.321 187.928 167.262 188.17 167.144 188.359C167.025 188.549 166.856 188.677 166.636 188.746C166.416 188.814 166.153 188.816 165.845 188.752C165.537 188.683 165.194 188.54 164.815 188.321ZM163.937 187.316L164.815 187.823C165.231 188.063 165.601 188.326 165.926 188.611C166.251 188.896 166.525 189.197 166.748 189.513C166.971 189.83 167.14 190.16 167.255 190.504C167.374 190.845 167.433 191.194 167.433 191.55C167.433 191.948 167.365 192.262 167.23 192.493C167.098 192.725 166.91 192.879 166.667 192.953C166.423 193.027 166.134 193.022 165.799 192.938C165.468 192.856 165.104 192.701 164.708 192.472C164.39 192.289 164.076 192.06 163.764 191.787C163.457 191.511 163.178 191.202 162.927 190.858C162.677 190.51 162.476 190.136 162.323 189.736C162.174 189.337 162.1 188.919 162.1 188.482L163.079 189.047C163.079 189.333 163.147 189.633 163.282 189.95C163.421 190.268 163.612 190.57 163.856 190.855C164.099 191.136 164.383 191.371 164.708 191.558C165.08 191.773 165.395 191.888 165.652 191.904C165.913 191.918 166.11 191.846 166.246 191.69C166.384 191.532 166.454 191.304 166.454 191.007C166.454 190.746 166.417 190.498 166.342 190.263C166.271 190.027 166.164 189.805 166.022 189.598C165.884 189.393 165.709 189.201 165.5 189.021C165.293 188.839 165.053 188.67 164.779 188.511L163.937 188.025L163.937 187.316Z" fill="#090909"/>
<path d="M169.742 193.304L173.38 188.831L174.359 189.396L174.36 197.928L173.38 197.362L173.38 190.782L169.742 195.262L168.768 194.699L168.767 186.168L169.742 186.73L169.742 193.304Z" fill="#090909"/>
<path d="M180.966 196.879L180.966 197.799L176.968 195.49L176.968 194.57L180.966 196.879ZM177.12 190.99L177.12 199.522L176.141 198.956L176.14 190.425L177.12 190.99ZM181.818 193.703L181.819 202.235L180.844 201.672L180.844 193.141L181.818 193.703Z" fill="#090909"/>
<path d="M191.351 189.928V207.911L187.563 209.912V191.929L191.351 189.928Z" fill="#D9DAE2"/>
<path d="M191.351 189.928L134.839 157.298L131.082 159.299L187.563 191.929L191.351 189.928Z" fill="#D9DAE2"/>
<g style="mix-blend-mode:multiply">
<path d="M316.736 279.115L311.887 329H372.641L397.821 314.474L328.886 276.294H312.009L316.736 279.115Z" fill="#E5F8FF"/>
</g>
<path d="M311.89 283.087V329L352.523 305.498V259.585L311.89 283.087Z" fill="#CCCCCC"/>
<path d="M254.893 250.154V296.067L311.89 329V283.087L254.893 250.154Z" fill="#FAFAFA"/>
<g style="mix-blend-mode:multiply">
<path d="M254.893 252.337V267.015L311.89 299.948V285.241L254.893 252.337Z" fill="#EFF0F9"/>
</g>
<path d="M308.524 326.422L272.86 305.801V277.417L308.524 298.038V326.422Z" fill="#FAFAFA"/>
<path d="M273.801 281.268V305.225L305.648 323.632V299.675L273.801 281.268ZM271.892 277.962L307.587 298.705V327.089L271.892 306.468V278.084V277.962Z" fill="#8EB780"/>
<path d="M272.86 277.417L271.89 277.962L307.585 298.584L308.524 298.038L272.86 277.417Z" fill="#527A45"/>
<path d="M307.585 298.584V326.968L308.524 326.422V298.038L307.585 298.584Z" fill="#090909"/>
<path d="M273.801 281.298V305.255L274.771 304.709V281.844L273.801 281.298Z" fill="#5C5C5C"/>
<path d="M274.768 304.709L273.798 305.255L305.675 323.663V322.541L274.768 304.709Z" fill="#527A45"/>
<path d="M289.769 290.517V314.474L290.738 313.928V291.063L289.769 290.517Z" fill="#090909"/>
<path d="M288.828 289.971V313.928L289.768 314.474V290.517L288.828 289.971Z" fill="#8EB780"/>
<path d="M268.255 302.92L258.589 297.34V272.14L268.255 277.72V302.92Z" fill="#FAFAFA"/>
<path d="M270.013 276.962V305.71L268.255 304.679L258.589 299.099L256.801 298.068V269.32L258.589 270.351L268.255 275.931L270.013 276.962ZM258.589 272.14V285.635L268.255 291.215V277.69L258.589 272.14ZM268.255 302.89V293.004L258.589 287.424V297.34L268.255 302.89Z" fill="#5C5C5C"/>
<path d="M270.013 276.962V305.71L268.255 304.679L258.589 299.099L256.801 298.068V269.32L258.589 270.351L268.255 275.931L270.013 276.962ZM258.589 272.14V285.635L268.255 291.215V277.69L258.589 272.14ZM268.255 302.89V293.004L258.589 287.424V297.34L268.255 302.89Z" fill="#8EB780"/>
<path d="M269.042 275.476L259.376 269.896L257.588 268.865L256.801 269.32L258.588 270.351L268.255 275.931L270.042 276.962L270.8 276.507L269.042 275.476Z" fill="#527A45"/>
<path d="M270.042 276.962V278.751V303.951V305.74L270.8 305.286V303.496V278.296V276.507L270.042 276.962Z" fill="#5C5C5C"/>
<path d="M258.589 272.14V285.665L259.377 285.21V272.595L258.589 272.14Z" fill="#5C5C5C"/>
<path d="M259.377 285.21L258.589 285.665L268.255 291.215V290.335L259.377 285.21Z" fill="#527A45"/>
<path d="M258.589 287.424V297.34L259.377 296.885V287.879L258.589 287.424Z" fill="#5C5C5C"/>
<path d="M259.377 296.885L258.589 297.34L268.255 302.92V302.01L259.377 296.885Z" fill="#527A45"/>
<path d="M251.163 268.925L257.193 259.07L244.224 271.169L244.194 273.141L251.163 268.925Z" fill="#CCCCCC"/>
<path d="M244.196 273.141L244.227 271.169L241.833 269.805L241.772 271.776L244.196 273.141Z" fill="#EFF0F9"/>
<path d="M254.8 257.675L257.193 259.07L244.224 271.169L241.831 269.805L254.8 257.675Z" fill="#FAFAFA"/>
<path d="M262.617 268.41V262.193L249.648 274.323L249.618 276.294L262.617 268.41Z" fill="#CCCCCC"/>
<path d="M249.62 276.294L249.65 274.323L244.226 271.169L244.196 273.141L249.62 276.294Z" fill="#527A45"/>
<path d="M257.193 259.07L262.617 262.193L249.648 274.323L244.224 271.169L257.193 259.07Z" fill="#8EB780"/>
<path d="M265.012 269.775V263.558L252.073 275.688L252.013 277.659L265.012 269.775Z" fill="#CCCCCC"/>
<path d="M252.014 277.659L252.074 275.688L249.65 274.323L249.62 276.294L252.014 277.659Z" fill="#EFF0F9"/>
<path d="M262.618 262.193L265.012 263.558L252.073 275.688L249.649 274.323L262.618 262.193Z" fill="#FAFAFA"/>
<path d="M270.436 272.898V266.712L257.497 278.842L263.466 277.113L270.436 272.898Z" fill="#CCCCCC"/>
<path d="M257.437 280.813L257.498 278.842L252.074 275.688L252.014 277.659L257.437 280.813Z" fill="#527A45"/>
<path d="M265.012 263.558L270.436 266.712L257.497 278.842L252.073 275.688L265.012 263.558Z" fill="#8EB780"/>
<path d="M272.862 274.293V268.076L259.893 280.206L259.863 282.178L272.862 274.293Z" fill="#CCCCCC"/>
<path d="M259.862 282.178L259.893 280.206L257.499 278.842L257.438 280.813L259.862 282.178Z" fill="#EFF0F9"/>
<path d="M270.438 266.712L272.862 268.076L259.893 280.206L257.5 278.842L270.438 266.712Z" fill="#FAFAFA"/>
<path d="M278.286 277.417V271.23L265.317 283.36L265.287 285.301L278.286 277.417Z" fill="#CCCCCC"/>
<path d="M265.286 285.301L265.316 283.36L259.892 280.206L259.862 282.178L265.286 285.301Z" fill="#527A45"/>
<path d="M272.862 268.076L278.286 271.23L265.317 283.36L259.893 280.206L272.862 268.076Z" fill="#8EB780"/>
<path d="M280.677 278.812V272.595L267.738 284.725L267.678 286.696L280.677 278.812Z" fill="#CCCCCC"/>
<path d="M267.68 286.696L267.74 284.725L265.316 283.36L265.286 285.301L267.68 286.696Z" fill="#EFF0F9"/>
<path d="M278.283 271.23L280.677 272.595L267.738 284.725L265.314 283.36L278.283 271.23Z" fill="#FAFAFA"/>
<path d="M286.101 281.935V275.749L273.162 287.848L273.101 289.82L286.101 281.935Z" fill="#CCCCCC"/>
<path d="M273.103 289.82L273.164 287.848L267.74 284.725L267.68 286.696L273.103 289.82Z" fill="#527A45"/>
<path d="M280.677 272.595L286.101 275.749L273.162 287.848L267.738 284.725L280.677 272.595Z" fill="#8EB780"/>
<path d="M288.527 283.33V277.113L275.558 289.243L275.528 291.215L288.527 283.33Z" fill="#CCCCCC"/>
<path d="M275.527 291.215L275.558 289.243L273.164 287.848L273.103 289.82L275.527 291.215Z" fill="#EFF0F9"/>
<path d="M286.103 275.749L288.527 277.113L275.558 289.243L273.165 287.848L286.103 275.749Z" fill="#FAFAFA"/>
<path d="M293.951 286.454V280.237L280.982 292.367L280.952 294.338L293.951 286.454Z" fill="#CCCCCC"/>
<path d="M280.951 294.338L280.981 292.367L275.558 289.243L275.527 291.215L280.951 294.338Z" fill="#527A45"/>
<path d="M288.527 277.113L293.951 280.237L280.982 292.367L275.558 289.243L288.527 277.113Z" fill="#8EB780"/>
<path d="M296.346 287.848V281.632L283.407 293.762L283.347 295.703L296.346 287.848Z" fill="#CCCCCC"/>
<path d="M283.345 295.703L283.405 293.762L280.981 292.367L280.951 294.338L283.345 295.703Z" fill="#EFF0F9"/>
<path d="M293.952 280.237L296.346 281.632L283.407 293.762L280.983 292.367L293.952 280.237Z" fill="#FAFAFA"/>
<path d="M301.799 290.972V284.755L288.83 296.885L288.769 298.857L301.799 290.972Z" fill="#CCCCCC"/>
<path d="M288.769 298.857L288.829 296.885L283.405 293.762L283.345 295.703L288.769 298.857Z" fill="#527A45"/>
<path d="M296.345 281.632L301.799 284.755L288.83 296.885L283.406 293.762L296.345 281.632Z" fill="#8EB780"/>
<path d="M304.192 292.337V286.15L291.224 298.28L291.193 300.221L304.192 292.337Z" fill="#CCCCCC"/>
<path d="M291.192 300.221L291.223 298.28L288.829 296.885L288.768 298.857L291.192 300.221Z" fill="#EFF0F9"/>
<path d="M301.799 284.755L304.192 286.15L291.224 298.28L288.83 296.885L301.799 284.755Z" fill="#FAFAFA"/>
<path d="M309.617 295.491V289.274L296.648 301.404L296.618 303.375L309.617 295.491Z" fill="#CCCCCC"/>
<path d="M296.617 303.375L296.647 301.404L291.224 298.28L291.193 300.221L296.617 303.375Z" fill="#527A45"/>
<path d="M304.193 286.15L309.617 289.274L296.648 301.404L291.224 298.28L304.193 286.15Z" fill="#8EB780"/>
<path d="M312.011 296.855V290.669L299.072 302.769L299.012 304.74L312.011 296.855Z" fill="#CCCCCC"/>
<path d="M299.01 304.74L299.07 302.769L296.646 301.404L296.616 303.375L299.01 304.74Z" fill="#EFF0F9"/>
<path d="M309.617 289.274L312.011 290.669L299.072 302.769L296.648 301.404L309.617 289.274Z" fill="#FAFAFA"/>
<path d="M251.771 248.334L295.556 223.043L355.643 257.766L311.888 283.087L251.771 248.334Z" fill="#CCCCCC"/>
<path d="M295.555 227.562V232.262L343.764 260.131L347.824 257.766L295.555 227.562Z" fill="#FAFAFA"/>
<path d="M259.588 248.334L263.649 250.7L295.556 232.262V227.562L259.588 248.334Z" fill="#CCCCCC"/>
<path d="M343.765 260.131L295.556 232.262L263.649 250.7L311.888 278.569L343.765 260.131Z" fill="#CCCCCC"/>
<g style="mix-blend-mode:multiply">
<path d="M266.891 252.641L263.649 250.7L295.556 232.262V227.562L298.828 234.142L266.891 252.641Z" fill="#EFF0F9"/>
</g>
<path d="M311.888 283.087V286.211L355.643 260.919V257.766L311.888 283.087Z" fill="#5C5C5C"/>
<path d="M251.772 248.334V251.488L311.89 286.211V283.087L251.772 248.334Z" fill="#CCCCCC"/>
<g style="mix-blend-mode:multiply">
<path d="M343.765 260.131L321.19 247.031L305.585 256.068L311.403 259.434L309.131 263.649H318.736L322.402 265.772L321.19 270.502H324.736L324.978 270.624L343.765 260.131Z" fill="#EFF0F9"/>
</g>
<path d="M326.434 249.214L318.737 253.672L311.071 249.214L318.737 244.756L326.434 249.214Z" fill="#D9DAE2"/>
<path d="M318.737 253.672V258.099L326.434 253.672V249.214L318.737 253.672Z" fill="#FAFAFA"/>
<path d="M311.07 249.214V253.672L318.736 258.099V253.672L311.07 249.214Z" fill="#D9DAE2"/>
<g style="mix-blend-mode:multiply">
<path d="M321.525 247.789C320.668 247.347 319.717 247.117 318.753 247.117C317.788 247.117 316.838 247.347 315.98 247.789C315.66 247.856 315.373 248.031 315.167 248.285C314.961 248.539 314.848 248.856 314.848 249.184C314.848 249.511 314.961 249.828 315.167 250.082C315.373 250.336 315.66 250.511 315.98 250.579C316.838 251.02 317.788 251.251 318.753 251.251C319.717 251.251 320.668 251.02 321.525 250.579C321.845 250.511 322.132 250.336 322.339 250.082C322.545 249.828 322.657 249.511 322.657 249.184C322.657 248.856 322.545 248.539 322.339 248.285C322.132 248.031 321.845 247.856 321.525 247.789Z" fill="#D9DAE2"/>
</g>
<path d="M318.737 250.397C317.566 250.397 316.616 249.854 316.616 249.184C316.616 248.514 317.566 247.971 318.737 247.971C319.909 247.971 320.858 248.514 320.858 249.184C320.858 249.854 319.909 250.397 318.737 250.397Z" fill="#D9DAE2"/>
<path d="M315.979 247.789C316.837 247.347 317.787 247.117 318.752 247.117C319.716 247.117 320.667 247.347 321.524 247.789C321.805 247.92 322.052 248.114 322.247 248.356C322.441 248.598 322.577 248.881 322.646 249.184C322.646 248.547 322.373 247.88 321.524 247.364C320.667 246.923 319.716 246.692 318.752 246.692C317.787 246.692 316.837 246.923 315.979 247.364C315.624 247.513 315.323 247.767 315.117 248.093C314.912 248.418 314.81 248.799 314.828 249.184C314.903 248.88 315.046 248.597 315.245 248.355C315.444 248.114 315.695 247.92 315.979 247.789Z" fill="#FAFAFA"/>
<path d="M316.828 254.763L309.132 259.221L301.435 254.763L309.132 250.306L316.828 254.763Z" fill="#D9DAE2"/>
<path d="M309.132 259.221V263.649L316.828 259.221V254.763L309.132 259.221Z" fill="#FAFAFA"/>
<path d="M301.435 254.763V259.221L309.132 263.649V259.221L301.435 254.763Z" fill="#D9DAE2"/>
<g style="mix-blend-mode:multiply">
<path d="M311.918 253.217C311.06 252.775 310.11 252.545 309.145 252.545C308.181 252.545 307.23 252.775 306.373 253.217C306.053 253.284 305.766 253.459 305.56 253.713C305.353 253.967 305.241 254.285 305.241 254.612C305.241 254.939 305.353 255.256 305.56 255.51C305.766 255.764 306.053 255.94 306.373 256.007C307.23 256.448 308.181 256.679 309.145 256.679C310.11 256.679 311.06 256.448 311.918 256.007C312.238 255.94 312.525 255.764 312.731 255.51C312.937 255.256 313.05 254.939 313.05 254.612C313.05 254.285 312.937 253.967 312.731 253.713C312.525 253.459 312.238 253.284 311.918 253.217Z" fill="#D9DAE2"/>
</g>
<path d="M310.617 253.854C311.465 254.339 311.465 255.097 310.617 255.582C310.146 255.817 309.627 255.94 309.102 255.94C308.576 255.94 308.057 255.817 307.586 255.582C307.405 255.522 307.246 255.407 307.134 255.252C307.022 255.096 306.961 254.91 306.961 254.718C306.961 254.526 307.022 254.34 307.134 254.185C307.246 254.029 307.405 253.914 307.586 253.854C308.053 253.604 308.573 253.474 309.102 253.474C309.63 253.474 310.151 253.604 310.617 253.854Z" fill="#D9DAE2"/>
<path d="M306.374 253.217C307.231 252.775 308.182 252.545 309.146 252.545C310.111 252.545 311.061 252.775 311.919 253.217C312.2 253.348 312.447 253.542 312.641 253.784C312.836 254.026 312.972 254.309 313.04 254.612C313.04 253.975 312.767 253.308 311.919 252.792C311.061 252.351 310.111 252.12 309.146 252.12C308.182 252.12 307.231 252.351 306.374 252.792C306.019 252.941 305.718 253.195 305.512 253.521C305.306 253.846 305.205 254.227 305.222 254.612C305.298 254.308 305.44 254.025 305.64 253.783C305.839 253.542 306.09 253.348 306.374 253.217Z" fill="#FAFAFA"/>
<path d="M338.491 256.068L330.795 260.495L323.098 256.068L330.795 251.61L338.491 256.068Z" fill="#D9DAE2"/>
<path d="M330.795 260.495V264.953L338.491 260.495V256.068L330.795 260.495Z" fill="#FAFAFA"/>
<path d="M323.098 256.068V260.495L330.795 264.953V260.495L323.098 256.068Z" fill="#D9DAE2"/>
<g style="mix-blend-mode:multiply">
<path d="M333.583 254.612C332.718 254.177 331.763 253.951 330.795 253.951C329.827 253.951 328.873 254.177 328.008 254.612C327.725 254.748 327.476 254.947 327.282 255.194C327.088 255.442 326.952 255.73 326.886 256.037C326.954 256.34 327.091 256.623 327.285 256.865C327.48 257.107 327.727 257.301 328.008 257.432C328.873 257.867 329.827 258.093 330.795 258.093C331.763 258.093 332.718 257.867 333.583 257.432C333.86 257.295 334.104 257.1 334.298 256.859C334.491 256.618 334.63 256.337 334.704 256.037C334.632 255.732 334.494 255.447 334.301 255.201C334.107 254.954 333.862 254.753 333.583 254.612Z" fill="#D9DAE2"/>
</g>
<path d="M332.28 255.158C332.462 255.218 332.62 255.333 332.733 255.489C332.845 255.644 332.905 255.83 332.905 256.022C332.905 256.214 332.845 256.4 332.733 256.556C332.62 256.711 332.462 256.826 332.28 256.886C331.814 257.136 331.294 257.266 330.765 257.266C330.236 257.266 329.716 257.136 329.25 256.886C329.068 256.826 328.91 256.711 328.798 256.556C328.685 256.4 328.625 256.214 328.625 256.022C328.625 255.83 328.685 255.644 328.798 255.489C328.91 255.333 329.068 255.218 329.25 255.158C329.721 254.923 330.239 254.8 330.765 254.8C331.291 254.8 331.81 254.923 332.28 255.158Z" fill="#D9DAE2"/>
<path d="M328.01 254.612C328.875 254.177 329.829 253.951 330.797 253.951C331.765 253.951 332.72 254.177 333.585 254.612C333.864 254.753 334.109 254.954 334.303 255.201C334.497 255.447 334.634 255.732 334.706 256.037C334.73 255.655 334.636 255.275 334.435 254.949C334.234 254.623 333.937 254.367 333.585 254.218C332.72 253.783 331.765 253.556 330.797 253.556C329.829 253.556 328.875 253.783 328.01 254.218C327.655 254.364 327.355 254.618 327.154 254.945C326.953 255.272 326.86 255.654 326.889 256.037C326.954 255.73 327.09 255.442 327.284 255.195C327.478 254.947 327.727 254.748 328.01 254.612Z" fill="#FAFAFA"/>
<path d="M328.887 261.617L321.19 266.044L313.494 261.617L321.19 257.159L328.887 261.617Z" fill="#D9DAE2"/>
<path d="M321.19 266.044V270.502L328.887 266.044V261.617L321.19 266.044Z" fill="#FAFAFA"/>
<path d="M313.493 261.617V266.044L321.189 270.502V266.044L313.493 261.617Z" fill="#D9DAE2"/>
<g style="mix-blend-mode:multiply">
<path d="M323.978 260.161C323.112 259.727 322.158 259.5 321.19 259.5C320.222 259.5 319.267 259.727 318.402 260.161C318.119 260.298 317.871 260.497 317.677 260.744C317.482 260.991 317.347 261.279 317.281 261.587C317.349 261.89 317.485 262.173 317.68 262.414C317.874 262.656 318.121 262.85 318.402 262.982C319.267 263.416 320.222 263.643 321.19 263.643C322.158 263.643 323.112 263.416 323.978 262.982C324.255 262.845 324.499 262.649 324.692 262.408C324.886 262.167 325.025 261.887 325.099 261.587C325.027 261.282 324.889 260.996 324.695 260.75C324.502 260.504 324.257 260.303 323.978 260.161Z" fill="#D9DAE2"/>
</g>
<path d="M322.675 260.707C322.856 260.767 323.015 260.883 323.127 261.038C323.239 261.193 323.3 261.38 323.3 261.572C323.3 261.763 323.239 261.95 323.127 262.105C323.015 262.26 322.856 262.376 322.675 262.436C322.209 262.685 321.688 262.816 321.16 262.816C320.631 262.816 320.111 262.685 319.644 262.436C319.463 262.376 319.304 262.26 319.192 262.105C319.08 261.95 319.019 261.763 319.019 261.572C319.019 261.38 319.08 261.193 319.192 261.038C319.304 260.883 319.463 260.767 319.644 260.707C320.115 260.472 320.634 260.35 321.16 260.35C321.685 260.35 322.204 260.472 322.675 260.707Z" fill="#D9DAE2"/>
<path d="M318.404 260.161C319.269 259.727 320.224 259.5 321.192 259.5C322.16 259.5 323.115 259.727 323.98 260.161C324.259 260.303 324.504 260.504 324.698 260.75C324.891 260.996 325.029 261.282 325.101 261.587C325.125 261.205 325.03 260.824 324.829 260.498C324.629 260.173 324.332 259.917 323.98 259.767C323.115 259.332 322.16 259.106 321.192 259.106C320.224 259.106 319.269 259.332 318.404 259.767C318.049 259.913 317.75 260.168 317.549 260.495C317.347 260.822 317.254 261.204 317.283 261.587C317.349 261.279 317.484 260.991 317.679 260.744C317.873 260.497 318.121 260.298 318.404 260.161Z" fill="#FAFAFA"/>
<g style="mix-blend-mode:multiply">
<path d="M295.373 260.434L310.614 282.269H313.281L322.341 277.022L295.373 260.434Z" fill="#EFF0F9"/>
</g>
<path d="M254.136 231.656V249.638L310.617 282.269V264.286L254.136 231.656Z" fill="#EFF0F9"/>
<path d="M257.845 238.752L258.794 239.3L261.214 247.653L263.63 242.092L264.584 242.643L261.58 249.44L260.839 249.012L257.845 238.752ZM257.535 238.574L258.373 239.057L258.51 244.339L258.51 247.667L257.536 247.105L257.535 238.574ZM264.051 242.336L264.888 242.819L264.888 251.35L263.914 250.788L263.914 247.46L264.051 242.336Z" fill="#090909"/>
<path d="M269.435 246.2L266.989 252.563L265.989 251.986L268.805 245.081L269.45 245.453L269.435 246.2ZM271.485 255.159L269.034 245.968L269.018 245.204L269.663 245.576L272.49 255.739L271.485 255.159ZM271.358 251.928L271.358 252.853L267.207 250.457L267.207 249.531L271.358 251.928Z" fill="#090909"/>
<path d="M278.061 250.425L278.061 251.351L274.499 249.294L274.499 256.899L273.525 256.337L273.524 247.806L278.061 250.425Z" fill="#090909"/>
<path d="M281.014 252.886L278.569 259.249L277.569 258.672L280.385 251.767L281.029 252.139L281.014 252.886ZM283.064 261.845L280.613 252.654L280.598 251.89L281.242 252.262L284.069 262.425L283.064 261.845ZM282.937 258.613L282.937 259.539L278.787 257.143L278.787 256.217L282.937 258.613Z" fill="#090909"/>
<path d="M287.322 260.207L286.444 259.7L286.444 258.98L287.286 259.466C287.658 259.681 287.959 259.794 288.189 259.806C288.419 259.818 288.587 259.746 288.692 259.592C288.796 259.438 288.849 259.22 288.849 258.939C288.849 258.669 288.791 258.39 288.676 258.101C288.561 257.808 288.384 257.526 288.143 257.254C287.903 256.979 287.594 256.732 287.215 256.513C286.931 256.349 286.674 256.263 286.444 256.255C286.214 256.243 286.031 256.308 285.896 256.449C285.76 256.585 285.693 256.794 285.693 257.075L284.713 256.51C284.713 256.147 284.779 255.859 284.911 255.646C285.043 255.429 285.224 255.285 285.454 255.215C285.684 255.141 285.95 255.136 286.251 255.2C286.555 255.267 286.877 255.398 287.215 255.593C287.611 255.822 287.969 256.081 288.291 256.372C288.612 256.66 288.888 256.971 289.118 257.307C289.348 257.643 289.524 257.996 289.645 258.368C289.767 258.739 289.828 259.123 289.828 259.522C289.828 259.815 289.769 260.056 289.651 260.245C289.532 260.435 289.363 260.564 289.143 260.632C288.923 260.701 288.659 260.702 288.352 260.638C288.044 260.57 287.7 260.426 287.322 260.207ZM286.444 259.202L287.322 259.709C287.738 259.95 288.108 260.212 288.433 260.497C288.758 260.783 289.032 261.083 289.255 261.4C289.478 261.716 289.647 262.046 289.762 262.39C289.881 262.732 289.94 263.08 289.94 263.436C289.94 263.834 289.872 264.149 289.737 264.379C289.605 264.612 289.417 264.765 289.174 264.839C288.93 264.913 288.641 264.909 288.306 264.825C287.975 264.743 287.611 264.587 287.215 264.359C286.897 264.175 286.583 263.947 286.271 263.673C285.963 263.398 285.684 263.088 285.434 262.744C285.184 262.397 284.982 262.023 284.83 261.622C284.681 261.224 284.607 260.806 284.607 260.368L285.586 260.934C285.586 261.219 285.654 261.52 285.789 261.836C285.928 262.155 286.119 262.456 286.363 262.741C286.606 263.023 286.89 263.257 287.215 263.445C287.587 263.659 287.902 263.775 288.159 263.79C288.419 263.804 288.617 263.733 288.753 263.577C288.891 263.418 288.961 263.191 288.961 262.894C288.961 262.632 288.923 262.384 288.849 262.15C288.778 261.913 288.671 261.692 288.529 261.485C288.391 261.28 288.216 261.087 288.007 260.908C287.8 260.726 287.56 260.556 287.286 260.398L286.444 259.911L286.444 259.202Z" fill="#090909"/>
<path d="M292.249 265.191L295.887 260.717L296.866 261.283L296.866 269.814L295.887 269.249L295.887 262.669L292.249 267.148L291.275 266.585L291.274 258.054L292.249 258.617L292.249 265.191Z" fill="#090909"/>
<path d="M303.473 268.765L303.473 269.685L299.474 267.377L299.474 266.457L303.473 268.765ZM299.627 262.877L299.627 271.408L298.647 270.842L298.647 262.311L299.627 262.877ZM304.325 265.59L304.326 274.121L303.351 273.558L303.351 265.027L304.325 265.59Z" fill="#090909"/>
<path d="M314.372 262.254V280.237L310.615 282.269V264.286L314.372 262.254Z" fill="#D9DAE2"/>
<path d="M314.372 262.254L257.891 229.624L254.134 231.656L310.615 264.286L314.372 262.254Z" fill="#D9DAE2"/>
</svg>
