<svg width="576" height="520" viewBox="0 0 576 520" fill="none" xmlns="http://www.w3.org/2000/svg">
<g style="mix-blend-mode:multiply">
<path d="M290.053 165.957L272.916 361.81H487.021L575.659 304.776L332.84 154.879H273.427L290.053 165.957Z" fill="#E5F8FF"/>
</g>
<path d="M0.000488281 91.4413L272.914 248.397V359.283L0.000488281 202.328V91.4413Z" fill="#CCCCCC"/>
<path d="M262.409 242.647L263.938 243.544V354.43L262.409 353.533V242.647Z" fill="#FAFAFA"/>
<path d="M251.872 235.966L253.435 236.863V347.749L251.872 346.852V235.966Z" fill="#FAFAFA"/>
<path d="M241.632 230.149L243.194 231.046V341.932L241.632 341.035V230.149Z" fill="#FAFAFA"/>
<path d="M231.126 223.468L232.688 224.365V335.251L231.126 334.354V223.468Z" fill="#FAFAFA"/>
<path d="M221.584 220.708L223.146 221.606V332.492L221.584 331.595V220.708Z" fill="#FAFAFA"/>
<path d="M211.078 214.027L212.641 214.925V325.811L211.078 324.914V214.027Z" fill="#FAFAFA"/>
<path d="M200.839 208.21L202.368 209.108V319.994L200.839 319.097V208.21Z" fill="#FAFAFA"/>
<path d="M190.333 201.529L191.862 202.427V313.313L190.333 312.416V201.529Z" fill="#FAFAFA"/>
<path d="M180.326 195.414L181.855 196.311V307.198L180.326 306.3V195.414Z" fill="#FAFAFA"/>
<path d="M169.821 188.699L171.35 189.597V300.483L169.821 299.619V188.699Z" fill="#FAFAFA"/>
<path d="M159.547 182.916L161.109 183.813V294.7L159.547 293.802V182.916Z" fill="#FAFAFA"/>
<path d="M149.041 176.235L150.604 177.132V288.018L149.041 287.121V176.235Z" fill="#FAFAFA"/>
<path d="M139.499 173.476L141.062 174.373V281.836L139.499 280.938V173.476Z" fill="#FAFAFA"/>
<path d="M128.996 166.761L130.559 167.659V276.052L128.996 275.154V166.761Z" fill="#FAFAFA"/>
<path d="M118.757 160.978L120.319 161.875V270.368L118.757 269.471V160.978Z" fill="#FAFAFA"/>
<path d="M108.251 154.296L109.78 155.194V264.119L108.251 263.222V154.296Z" fill="#FAFAFA"/>
<path d="M97.6116 147.582L99.1738 148.48V259.366L97.6116 258.468V147.582Z" fill="#FAFAFA"/>
<path d="M87.1047 140.901L88.667 141.798V252.685L87.1047 251.787V140.901Z" fill="#FAFAFA"/>
<path d="M76.8655 135.117L78.4277 135.982V246.868L76.8655 245.97V135.117Z" fill="#FAFAFA"/>
<path d="M66.3586 128.403L67.9209 129.3V240.187L66.3586 239.289V128.403Z" fill="#FAFAFA"/>
<path d="M56.8206 125.645L58.3828 126.542V237.428L56.8206 236.531V125.645Z" fill="#FAFAFA"/>
<path d="M46.3117 226.36V118.964L47.8408 119.861V227.39L46.3117 226.36Z" fill="#FAFAFA"/>
<path d="M36.0422 221.507V113.18L37.6045 114.077V222.072L36.0422 221.507Z" fill="#FAFAFA"/>
<path d="M25.5687 106.466L27.0977 107.363V218.249L25.5687 217.352V106.466Z" fill="#FAFAFA"/>
<path d="M16.2278 102.277L17.79 103.175V214.061L16.2278 213.164V102.277Z" fill="#FAFAFA"/>
<path d="M5.72193 95.5962L7.28418 96.4937V207.38L5.72193 206.482V95.5962Z" fill="#FAFAFA"/>
<path d="M430.767 157.189V268.075L272.916 359.283V248.397L430.767 157.189Z" fill="#FAFAFA"/>
<path d="M284.752 239.09L283.223 239.987V350.874L284.752 349.976V239.09Z" fill="#CCCCCC"/>
<path d="M295.258 232.409L293.729 233.306V344.192L295.258 343.295V232.409Z" fill="#CCCCCC"/>
<path d="M305.53 226.592L303.968 227.489V338.376L305.53 337.478V226.592Z" fill="#CCCCCC"/>
<path d="M316.036 219.911L314.474 220.808V331.694L316.036 330.797V219.911Z" fill="#CCCCCC"/>
<path d="M325.575 217.152L324.013 218.05V328.936L325.575 328.039V217.152Z" fill="#CCCCCC"/>
<path d="M336.081 210.471L334.519 211.369V322.255L336.081 321.358V210.471Z" fill="#CCCCCC"/>
<path d="M346.321 204.654L344.759 205.552V316.438L346.321 315.541V204.654Z" fill="#CCCCCC"/>
<path d="M357.626 197.973L356.064 198.871V309.757L357.626 308.86V197.973Z" fill="#CCCCCC"/>
<path d="M368.697 191.624L367.135 192.488V303.375L368.697 302.51V191.624Z" fill="#CCCCCC"/>
<path d="M379.203 184.91L377.641 185.807V296.693L379.203 295.796V184.91Z" fill="#CCCCCC"/>
<path d="M389.439 179.126L387.877 180.024V290.91L389.439 290.012V179.126Z" fill="#CCCCCC"/>
<path d="M399.946 172.413L398.384 173.31V284.196L399.946 283.299V172.413Z" fill="#CCCCCC"/>
<path d="M409.488 169.687L407.926 170.551V281.437L409.488 280.573V169.687Z" fill="#CCCCCC"/>
<path d="M419.994 162.972L418.465 163.87V274.756L419.994 273.859V162.972Z" fill="#CCCCCC"/>
<path d="M430.234 157.189L428.705 158.086V268.972L430.234 268.075V157.189Z" fill="#CCCCCC"/>
<path d="M0.000488281 197.342V204.488L28.1596 220.643L29.6224 219.812L47.6747 230.216V231.944L91.5591 257.272L92.9886 256.043L121.513 272.529V274.524L127.498 277.881L128.927 276.584L157.452 293.071V295.165L272.914 361.81V354.697L0.000488281 197.342Z" fill="#A8A8A8"/>
<path d="M430.767 157.189V166.13L272.916 257.339V248.397L430.767 157.189Z" fill="#CCCCCC"/>
<path d="M0.000488281 91.4413V100.383L272.914 257.339V248.397L0.000488281 91.4413Z" fill="#A8A8A8"/>
<path d="M0.00265503 91.4413L158.219 0L430.767 157.189L272.55 248.63L0.00265503 91.4413Z" fill="#E2E2E2"/>
<path d="M18.2882 95.4303L11.373 91.4416L158.219 6.18286L419.796 157.189L412.848 161.211L158.219 14.2268L18.2882 95.4303Z" fill="#B5B5B5"/>
<path d="M18.2853 95.4301L158.216 14.2265L412.845 161.211L272.914 242.414L18.2853 95.4301Z" fill="#CCCCCC"/>
<path d="M158.217 6.18286V14.2268L18.2859 95.4303L11.3707 91.4416L158.217 6.18286Z" fill="#A8A8A8"/>
<path d="M272.916 289.68L354.601 242.647V291.143L272.916 338.409V289.68Z" fill="white"/>
<path d="M272.917 292.572L352.341 246.669V289.647L272.917 335.55V292.572Z" fill="#1C66C8"/>
<path d="M340.738 251.654L342.5 250.657V297.192L340.738 298.189V251.654Z" fill="white"/>
<path d="M328.768 258.668L330.529 257.671V304.106L328.768 305.103V258.668Z" fill="white"/>
<path d="M316.535 265.615L318.264 264.618V311.02L316.535 312.017V265.615Z" fill="white"/>
<path d="M304.564 272.263L306.293 271.233V317.934L304.564 318.931V272.263Z" fill="white"/>
<path d="M293.86 278.445L295.589 277.448V324.548L293.86 325.579V278.445Z" fill="white"/>
<path d="M281.894 285.791L283.622 284.794V331.495L281.894 332.492V285.791Z" fill="white"/>
<path d="M272.917 322.621L354.003 275.687V273.526L272.917 320.46V322.621Z" fill="white"/>
<path d="M272.917 307.23L354.003 260.297V258.169L272.917 305.103V307.23Z" fill="white"/>
<path d="M272.914 289.68L191.229 242.647V291.143L272.914 338.409V289.68Z" fill="white"/>
<path d="M272.914 292.572L193.49 246.669V289.647L272.914 335.55V292.572Z" fill="#006199"/>
<path d="M205.096 251.654L203.334 250.657V297.192L205.096 298.189V251.654Z" fill="white"/>
<path d="M217.062 258.668L215.301 257.671V304.106L217.062 305.103V258.668Z" fill="white"/>
<path d="M229.296 265.615L227.567 264.618V311.02L229.296 312.017V265.615Z" fill="white"/>
<path d="M241.267 272.263L239.538 271.233V317.934L241.267 318.931V272.263Z" fill="white"/>
<path d="M251.971 278.445L250.242 277.448V324.548L251.971 325.579V278.445Z" fill="white"/>
<path d="M263.938 285.791L262.209 284.794V331.495L263.938 332.492V285.791Z" fill="white"/>
<path d="M272.914 322.621L191.828 275.687V273.526L272.914 320.46V322.621Z" fill="white"/>
<path d="M272.914 307.23L191.828 260.297V258.169L272.914 305.103V307.23Z" fill="white"/>
<path d="M47.6748 182.75V230.215L29.3232 219.612V172.18L47.6748 182.75Z" fill="#527A45"/>
<path d="M28.1615 171.482V220.643L29.624 219.812V172.313L28.1615 171.482Z" fill="#7C7C7C"/>
<path d="M30.6863 202.693L31.75 203.325V197.009L30.6863 196.378V202.693Z" fill="white"/>
<path d="M40.5293 163.604L33.8469 159.748V156.258L40.5293 160.114V163.604Z" fill="white"/>
<path d="M40.5291 163.604L42.4902 162.54V159.05L40.5291 160.114V163.604Z" fill="#C1C1C1"/>
<path d="M33.8463 156.258L40.5288 160.113L42.4902 159.05L35.6748 155.194L33.8463 156.258Z" fill="#D3D3D3"/>
<path d="M110.611 203.889L103.929 200V196.543L110.611 200.399V203.889Z" fill="white"/>
<path d="M110.611 203.89L112.572 202.826V199.336L110.611 200.4V203.89Z" fill="#C1C1C1"/>
<path d="M103.928 196.544L110.611 200.4L112.572 199.336L105.79 195.48L103.928 196.544Z" fill="#D3D3D3"/>
<path d="M147.081 224.132L140.399 220.277V216.786L147.081 220.642V224.132Z" fill="white"/>
<path d="M147.081 224.133L149.042 223.069V219.579L147.081 220.643V224.133Z" fill="#C1C1C1"/>
<path d="M140.398 216.786L147.081 220.642L149.042 219.578L142.26 215.723L140.398 216.786Z" fill="#D3D3D3"/>
<path d="M397.387 210.87L404.069 206.981V203.524L397.387 207.38V210.87Z" fill="white"/>
<path d="M397.388 210.87L395.427 209.807V206.316L397.388 207.38V210.87Z" fill="#C1C1C1"/>
<path d="M404.069 203.524L397.387 207.38L395.425 206.316L402.207 202.46L404.069 203.524Z" fill="#D3D3D3"/>
<path d="M307.091 262.358L313.773 258.502V255.012L307.091 258.867V262.358Z" fill="white"/>
<path d="M307.092 262.358L305.131 261.294V257.804L307.092 258.868V262.358Z" fill="#C1C1C1"/>
<path d="M313.773 255.011L307.091 258.867L305.13 257.803L311.912 253.948L313.773 255.011Z" fill="#D3D3D3"/>
<path d="M157.454 237.262V293.07L128.929 276.584V220.775L157.454 237.262Z" fill="#D3D3D3"/>
<path d="M127.498 219.944V277.88L129.293 276.816V220.974L127.498 219.944Z" fill="#7C7C7C"/>
<path d="M157.454 253.549V255.211L129.295 238.957V237.295L157.454 253.549Z" fill="#AAAAAA"/>
<path d="M157.454 259.001V260.663L129.295 244.409V242.747L157.454 259.001Z" fill="#AAAAAA"/>
<path d="M157.454 264.451V266.113L129.295 249.859V248.197L157.454 264.451Z" fill="#AAAAAA"/>
<path d="M157.454 242.647V244.342L129.295 228.055V226.393L157.454 242.647Z" fill="#AAAAAA"/>
<path d="M157.454 248.098V249.76L129.295 233.506V231.844L157.454 248.098Z" fill="#AAAAAA"/>
<path d="M157.454 269.87V271.565L129.295 255.278V253.616L157.454 269.87Z" fill="#AAAAAA"/>
<path d="M157.454 275.321V276.983L129.295 260.729V259.067L157.454 275.321Z" fill="#AAAAAA"/>
<path d="M157.454 280.772V282.434L129.295 266.18V264.518L157.454 280.772Z" fill="#AAAAAA"/>
<path d="M157.454 286.223V287.885L129.295 271.631V269.969L157.454 286.223Z" fill="#AAAAAA"/>
<path d="M121.514 216.72V272.529L92.9889 256.042V200.233L121.514 216.72Z" fill="#D3D3D3"/>
<path d="M91.5606 199.369V257.338L93.3555 256.275V200.433L91.5606 199.369Z" fill="#7C7C7C"/>
<path d="M121.514 233.007V234.669L93.3546 218.415V216.753L121.514 233.007Z" fill="#AAAAAA"/>
<path d="M121.514 238.459V240.121L93.3546 223.867V222.205L121.514 238.459Z" fill="#AAAAAA"/>
<path d="M121.514 243.91V245.572L93.3546 229.318V227.622L121.514 243.91Z" fill="#AAAAAA"/>
<path d="M121.514 222.105V223.8L93.3546 207.513V205.851L121.514 222.105Z" fill="#AAAAAA"/>
<path d="M121.514 227.556V229.252L93.3546 212.964V211.302L121.514 227.556Z" fill="#AAAAAA"/>
<path d="M121.514 249.328V251.023L93.3546 234.736V233.074L121.514 249.328Z" fill="#AAAAAA"/>
<path d="M121.514 254.779V256.441L93.3546 240.187V238.525L121.514 254.779Z" fill="#AAAAAA"/>
<path d="M121.514 260.23V261.892L93.3546 245.638V243.976L121.514 260.23Z" fill="#AAAAAA"/>
<path d="M121.514 265.682V267.344L93.3546 251.09V249.428L121.514 265.682Z" fill="#AAAAAA"/>
<path d="M366.967 157.92L346.188 169.919L333.289 162.474L354.067 150.474L366.967 157.92Z" fill="#E4E4E4"/>
<path d="M346.188 178.495L333.289 170.983V162.374L346.188 169.92V178.495Z" fill="#A8A8A8"/>
<path d="M346.188 178.495L366.967 166.496V157.92L346.188 169.919V178.495Z" fill="#969696"/>
<path d="M338.841 141.799L318.096 153.798L305.196 146.352L325.975 134.353L338.841 141.799Z" fill="#E4E4E4"/>
<path d="M318.095 162.374L305.195 154.862V146.253L318.095 153.798V162.374Z" fill="#A8A8A8"/>
<path d="M318.096 162.374L338.841 150.407V141.798L318.096 153.798V162.374Z" fill="#969696"/>
<path d="M229.994 88.649L232.321 87.253L158.815 44.7399L133.582 59.6976L135.909 61.0604L158.815 47.4988L229.994 88.649Z" fill="#A8A8A8"/>
<path d="M226.204 90.8763L229.994 88.6493L158.815 47.4991L135.909 61.0607L143.755 65.5813L162.805 54.2134L226.204 90.8763Z" fill="#006199"/>
<path d="M226.205 90.8764L162.806 54.2134L143.756 65.5813L207.089 102.211L226.205 90.8764Z" fill="#1C66C8"/>
<path d="M187.142 53.1163L143.756 78.1788V81.2035L187.142 56.1411V53.1163Z" fill="#CCCCCC"/>
<path d="M213.108 68.3069L168.559 94.0009V97.0256L213.108 71.3317V68.3069Z" fill="#CCCCCC"/>
<path d="M182.853 61.3593L159.647 74.788L157.253 73.3919L182.853 58.6005V61.3593Z" fill="#A8A8A8"/>
<path d="M208.952 76.4833L185.78 89.8788L183.353 88.4827L208.952 73.7245V76.4833Z" fill="#A8A8A8"/>
<path d="M189.735 111.917L192.096 110.52L118.59 68.0074L93.3229 82.9651L95.6833 84.3279L118.59 70.7663L189.735 111.917Z" fill="#A8A8A8"/>
<path d="M185.979 114.144L189.735 111.917L118.59 70.7665L95.6834 84.3282L103.529 88.8487L122.579 77.5141L185.979 114.144Z" fill="#006199"/>
<path d="M185.979 114.144L122.58 77.5142L103.53 88.8488L166.83 125.479L185.979 114.144Z" fill="#1C66C8"/>
<path d="M146.88 76.3838L103.528 101.446V104.471L146.88 79.4418V76.3838Z" fill="#CCCCCC"/>
<path d="M172.847 91.5743L128.331 117.268V120.293L172.847 94.5991V91.5743Z" fill="#CCCCCC"/>
<path d="M142.591 84.66L119.419 98.0555L116.992 96.6594L142.591 81.8679V84.66Z" fill="#A8A8A8"/>
<path d="M168.69 99.7841L145.518 113.146L143.125 111.75L168.69 96.992V99.7841Z" fill="#A8A8A8"/>
<path d="M2.03002 367.593L61.7725 402.096L59.9107 403.259L0.00207901 368.69L2.03002 367.593Z" fill="#FAFAFA"/>
<path d="M0.003479 368.69L59.9121 403.259V411.768L0.003479 377.199V368.69Z" fill="#5C5C5C"/>
<path d="M61.7725 410.704V402.095L59.9111 403.259V411.768L61.7725 410.704Z" fill="#CCCCCC"/>
<path d="M68.7194 328.936L128.429 363.438L126.567 364.602L66.6582 329.999L68.7194 328.936Z" fill="#FAFAFA"/>
<path d="M66.6596 330L126.568 364.602V373.111L66.6596 338.542V330Z" fill="#5C5C5C"/>
<path d="M128.429 372.048V363.439L126.567 364.602V373.111L128.429 372.048Z" fill="#CCCCCC"/>
<path d="M36.3377 347.317L96.0469 381.82L94.1851 382.983L34.3098 348.381L36.3377 347.317Z" fill="#FAFAFA"/>
<path d="M34.3112 348.381L94.1865 382.983V391.492L34.3112 356.924V348.381Z" fill="#5C5C5C"/>
<path d="M96.0469 390.429V381.82L94.1855 382.983V391.493L96.0469 390.429Z" fill="#CCCCCC"/>
<path d="M59.9094 400.633L128.429 361.078V363.837L59.9094 403.391V400.633Z" fill="#CCCCCC"/>
<path d="M52.7283 396.644L59.9094 400.633L128.429 361.078L121.281 357.056L52.7283 396.644Z" fill="#FAFAFA"/>
<path d="M52.731 396.645L59.9121 400.633V405.785L52.731 401.597V396.645Z" fill="#5C5C5C"/>
<path d="M46.5117 392.788L115.264 353.034V355.793L46.5117 395.547V392.788Z" fill="#CCCCCC"/>
<path d="M39.3306 388.767L46.5117 392.789L115.264 353.034L108.116 349.012L39.3306 388.767Z" fill="#FAFAFA"/>
<path d="M39.3316 388.766L46.5127 392.788V397.907L39.3316 393.719V388.766Z" fill="#5C5C5C"/>
<path d="M32.8504 385.011L101.735 345.224V347.949L32.8504 387.77V385.011Z" fill="#CCCCCC"/>
<path d="M25.6693 381.022L32.8503 385.01L101.735 345.223L94.5875 341.201L25.6693 381.022Z" fill="#FAFAFA"/>
<path d="M25.6666 381.021L32.8477 385.01V390.162L25.6666 385.974V381.021Z" fill="#5C5C5C"/>
<path d="M19.4843 377.133L88.2031 337.578V340.337L19.4843 379.892V377.133Z" fill="#CCCCCC"/>
<path d="M12.3032 373.144L19.4843 377.133L88.2031 337.578L81.0553 333.556L12.3032 373.144Z" fill="#FAFAFA"/>
<path d="M12.3033 373.144L19.4844 377.133V382.285L12.3033 378.097V373.144Z" fill="#5C5C5C"/>
<path d="M7.18239 370.252L76.0674 330.498V333.257L7.18239 373.011V370.252Z" fill="#CCCCCC"/>
<path d="M0.00131226 366.23L7.18238 370.252L76.0674 330.498L68.9195 326.476L0.00131226 366.23Z" fill="#FAFAFA"/>
<path d="M0.00154448 366.23L7.18262 370.252V375.371L0.00154448 371.183V366.23Z" fill="#5C5C5C"/>
<path d="M90.4643 377.864V356.524L121.416 338.641V359.948L90.4643 377.864Z" fill="#CCCCCC"/>
<path d="M90.4629 377.864V356.525L45.9137 330.797V352.071L90.4629 377.864Z" fill="#FAFAFA"/>
<path d="M45.9152 330.797L90.4643 356.524L121.416 338.641L76.8669 312.914L45.9152 330.797Z" fill="#CCCCCC"/>
<path d="M109.913 356.558L103.031 360.58V349.279L109.913 345.257V356.558Z" fill="#4D4D4D"/>
<path d="M109.913 345.256L65.3971 319.529L58.4488 323.518L103.031 349.278L109.913 345.256Z" fill="#6D6D6D"/>
<path d="M92.7904 374.341V372.346L103.196 366.33V368.358L92.7904 374.341Z" fill="#4D4D4D"/>
<path d="M92.7904 370.784V368.789L103.196 362.773V364.801L92.7904 370.784Z" fill="#4D4D4D"/>
<path d="M52.165 346.021V353.234L47.1791 350.342V343.162L52.165 346.021Z" fill="#4D4D4D"/>
<path d="M58.9473 349.943V357.156L53.9614 354.297V347.084L58.9473 349.943Z" fill="#4D4D4D"/>
<path d="M65.8271 353.899V361.112L60.8413 358.22V351.04L65.8271 353.899Z" fill="#4D4D4D"/>
<path d="M89.1348 357.422V367.759L78.895 361.876V351.505L89.1348 357.422Z" fill="white"/>
<path d="M87.8691 359.549V357.854L79.8237 353.234V354.863L87.8691 359.549Z" fill="#4D4D4D"/>
<path d="M56.4848 397.807V376.468L87.4365 358.585V379.858L56.4848 397.807Z" fill="#CCCCCC"/>
<path d="M56.4863 397.808V376.468L11.9039 350.741V372.014L56.4863 397.808Z" fill="#FAFAFA"/>
<path d="M11.9024 350.741L56.4848 376.468L87.4365 358.585L42.8541 332.858L11.9024 350.741Z" fill="#CCCCCC"/>
<path d="M75.9336 376.502L69.0185 380.49V369.189L75.9336 365.2V376.502Z" fill="#4D4D4D"/>
<path d="M75.9336 365.2L31.3844 339.472L24.4693 343.461L69.0185 369.222L75.9336 365.2Z" fill="#6D6D6D"/>
<path d="M58.7816 394.284V392.29L69.1875 386.274V388.268L58.7816 394.284Z" fill="#4D4D4D"/>
<path d="M58.7816 390.727V388.733L69.1875 382.683V384.711L58.7816 390.727Z" fill="#4D4D4D"/>
<path d="M18.1533 365.964V373.144L13.2007 370.285V363.073L18.1533 365.964Z" fill="#4D4D4D"/>
<path d="M24.9355 369.886V377.099L19.9829 374.208V367.028L24.9355 369.886Z" fill="#4D4D4D"/>
<path d="M31.8184 373.843V381.055L26.8656 378.164V370.984L31.8184 373.843Z" fill="#4D4D4D"/>
<path d="M55.123 377.366V387.703L44.9167 381.786V371.449L55.123 377.366Z" fill="white"/>
<path d="M53.8926 379.46V377.798L45.8472 373.144V374.806L53.8926 379.46Z" fill="#4D4D4D"/>
<path d="M90.4643 354.331V332.991L121.416 315.109V336.382L90.4643 354.331Z" fill="#CCCCCC"/>
<path d="M90.4629 354.331V332.991L45.9137 307.264V328.537L90.4629 354.331Z" fill="#FAFAFA"/>
<path d="M45.9152 307.264L90.4643 332.991L121.416 315.109L76.8669 289.381L45.9152 307.264Z" fill="#EFF0F9"/>
<path d="M109.913 333.024L103.031 337.013V325.712L109.913 321.723V333.024Z" fill="#4D4D4D"/>
<path d="M109.913 321.723L65.3971 295.996L58.4488 299.985L103.031 325.745L109.913 321.723Z" fill="#6D6D6D"/>
<path d="M92.7904 350.807V348.813L103.196 342.796V344.791L92.7904 350.807Z" fill="#4D4D4D"/>
<path d="M92.7904 347.251V345.257L103.196 339.207V341.235L92.7904 347.251Z" fill="#4D4D4D"/>
<path d="M52.165 322.487V329.667L47.1791 326.808V319.595L52.165 322.487Z" fill="#4D4D4D"/>
<path d="M58.9473 326.41V333.623L53.9614 330.731V323.551L58.9473 326.41Z" fill="#4D4D4D"/>
<path d="M65.8271 330.365V337.578L60.8413 334.686V327.507L65.8271 330.365Z" fill="#4D4D4D"/>
<path d="M89.1348 333.888V344.226L78.895 338.309V327.972L89.1348 333.888Z" fill="white"/>
<path d="M87.8691 335.982V334.32L79.8237 329.667V331.329L87.8691 335.982Z" fill="#4D4D4D"/>
<path d="M56.4848 374.274V352.935L87.4365 335.052V356.325L56.4848 374.274Z" fill="#CCCCCC"/>
<path d="M56.4863 374.274V352.934L11.9039 327.174V348.48L56.4863 374.274Z" fill="#FAFAFA"/>
<path d="M11.9024 327.174L56.4848 352.935L87.4365 335.019L42.8541 309.292L11.9024 327.174Z" fill="#EFF0F9"/>
<path d="M75.9336 352.968L69.0185 356.957V345.655L75.9336 341.633V352.968Z" fill="#4D4D4D"/>
<path d="M75.9336 341.633L31.3844 315.94L24.4693 319.928L69.0185 345.655L75.9336 341.633Z" fill="#6D6D6D"/>
<path d="M58.7816 370.751V368.757L69.1875 362.707V364.735L58.7816 370.751Z" fill="#4D4D4D"/>
<path d="M58.7816 367.161V365.167L69.1875 359.151V361.178L58.7816 367.161Z" fill="#4D4D4D"/>
<path d="M18.1533 342.431V349.61L13.2007 346.752V339.539L18.1533 342.431Z" fill="#4D4D4D"/>
<path d="M24.9355 346.354V353.533L19.9829 350.675V343.462L24.9355 346.354Z" fill="#4D4D4D"/>
<path d="M31.8184 350.309V357.489L26.8656 354.63V347.417L31.8184 350.309Z" fill="#4D4D4D"/>
<path d="M55.123 353.799V364.169L44.9167 358.253V347.915L55.123 353.799Z" fill="white"/>
<path d="M53.8926 355.926V354.264L45.8472 349.611V351.272L53.8926 355.926Z" fill="#4D4D4D"/>
<path d="M249.477 462.322C249.477 462.322 251.505 464.549 254.198 467.175C256.891 469.8 257.523 470.299 259.783 472.593C261.147 473.889 260.016 475.119 257.456 475.019C253.949 474.663 250.492 473.916 247.15 472.792C244.471 471.67 241.891 470.325 239.437 468.77C238.348 468.124 237.541 467.091 237.176 465.878V461.823L249.477 462.322Z" fill="#5C5C5C"/>
<path d="M212.542 458.732C213.721 460.365 215.057 461.879 216.531 463.253C218.544 465.181 220.37 467.296 221.983 469.568C222.482 470.233 222.781 472.128 220.188 472.028C217.24 471.701 214.346 470.998 211.578 469.934C208.682 468.394 206 466.483 203.599 464.25C202.311 463.258 201.35 461.904 200.839 460.361L202.169 456.372L212.542 458.732Z" fill="#5C5C5C"/>
<path d="M213.539 392.719C213.117 388.63 213.543 384.497 214.79 380.58C216.037 376.662 218.079 373.044 220.787 369.95C220.155 364.931 243.493 371.978 243.493 371.978C243.493 371.978 248.48 399.001 250.575 413.261C252.968 429.415 251.539 462.389 251.539 462.389C251.539 462.389 251.24 465.912 245.189 465.879C242.089 465.632 239.211 464.175 237.177 461.824L236.678 424.296L231.325 397.705C231.325 397.705 226.172 419.31 224.676 427.088C223.18 434.866 216.265 459.763 216.265 459.763C215.099 461.113 213.534 462.06 211.796 462.466C210.057 462.872 208.235 462.717 206.591 462.023C201.205 459.364 202.269 456.372 202.269 456.372C203.191 445.079 205.871 433.998 210.214 423.532C210.647 411.765 213.971 399.6 213.539 392.719Z" fill="#8EB780"/>
<path d="M240.269 332.788C240.269 332.788 243.593 332.622 246.918 339.104C250.242 345.585 253.567 352.4 253.567 352.4C249.608 353.283 245.978 355.265 243.095 358.117C235.814 351.436 234.65 335.946 240.269 332.788Z" fill="#006199"/>
<path d="M240.269 332.788C241.827 336.055 243.042 339.475 243.892 342.993C245.621 349.641 244.989 380.287 244.989 380.287C239.261 383.671 232.581 385.084 225.973 384.309C221.907 384.07 218.082 382.3 215.268 379.357C215.268 379.357 211.046 349.441 211.611 344.987C212.176 340.533 221.186 330.561 221.186 330.561C227.627 330.227 234.078 330.98 240.269 332.788Z" fill="#1C66C8"/>
<path d="M232.123 328.6L233.52 336.644C233.52 336.644 229.397 341.265 225.374 337.808C223.522 336.461 221.962 334.754 220.786 332.789L222.781 321.786L232.123 328.6Z" fill="#FFDDDD"/>
<path d="M226.471 309.687C227.683 308.784 229.096 308.189 230.589 307.955C232.082 307.72 233.609 307.852 235.04 308.339C236.47 308.827 237.76 309.656 238.798 310.753C239.837 311.851 240.592 313.185 241 314.64C244.092 323.448 236.146 334.583 231.89 332.589C227.896 330.644 224.759 327.295 223.08 323.182C222.412 320.833 222.374 318.35 222.969 315.981C223.565 313.612 224.772 311.442 226.471 309.687Z" fill="#FFDDDD"/>
<path d="M241.698 317.432C240.737 318.483 239.511 319.257 238.148 319.672C236.785 320.087 235.336 320.129 233.952 319.792C231.837 319.424 229.808 318.669 227.968 317.565C227.968 317.565 225.308 319.36 224.277 319.925C223.247 320.49 223.08 323.249 223.08 323.249C222.329 322.047 221.843 320.699 221.654 319.295C221.465 317.891 221.577 316.462 221.983 315.105C222.715 311.781 225.94 304.867 232.123 305.432C234.52 305.519 236.829 306.359 238.721 307.833C240.613 309.307 241.992 311.34 242.662 313.642C242.811 314.305 242.801 314.994 242.633 315.652C242.466 316.311 242.145 316.92 241.698 317.432Z" fill="#5C5C5C"/>
<path d="M231.791 351.037C229.264 347.198 226.092 343.824 222.416 341.065C220.126 339.807 217.661 338.9 215.102 338.373C215.102 338.373 216.93 335.348 217.961 335.049C220.507 335.491 222.952 336.392 225.175 337.708C229.031 340.084 232.267 343.343 234.617 347.214C237.908 352.832 234.185 354.361 231.791 351.037Z" fill="#8EB780"/>
<path d="M240.734 332.822C242.232 336.268 243.347 339.868 244.058 343.558C244.457 347.48 243.693 348.677 242.097 348.81C240.501 348.943 240.434 346.151 239.969 343.06C239.504 339.968 237.077 331.791 237.077 331.791L240.734 332.822Z" fill="#8EB780"/>
<path d="M214.57 374.338C217.204 376.265 220.325 377.416 223.579 377.662C226.904 377.296 231.658 374.039 231.392 363.568C231.387 358.426 230.987 353.292 230.195 348.212L242.862 342.661C245.536 350.256 246.929 358.242 246.984 366.294C247.682 381.916 247.981 387.301 247.981 387.301C240.796 387.751 233.59 387.751 226.405 387.301C222.135 386.99 217.94 386.014 213.971 384.409L214.57 374.338Z" fill="#8EB780"/>
<path d="M242.296 346.583C241.856 346.583 241.499 346.062 241.499 345.42C241.499 344.777 241.856 344.256 242.296 344.256C242.737 344.256 243.094 344.777 243.094 345.42C243.094 346.062 242.737 346.583 242.296 346.583Z" fill="white"/>
<path d="M233.885 348.976C234.063 349.172 234.161 349.426 234.161 349.691C234.161 349.955 234.063 350.209 233.885 350.405C233.553 350.671 232.955 350.405 232.556 349.907C232.387 349.713 232.295 349.465 232.295 349.209C232.295 348.952 232.387 348.704 232.556 348.511C232.888 348.245 233.486 348.444 233.885 348.976Z" fill="white"/>
<path d="M243.959 350.505C244.491 353.131 244.225 361.407 239.537 362.637C234.849 363.867 234.184 358.748 233.22 354.892C236.985 353.934 240.599 352.457 243.959 350.505Z" fill="#527A45"/>
<path d="M227.17 360.576C228.372 363.624 229.841 366.561 231.558 369.351C235.409 372.795 239.473 375.992 243.726 378.924C242.112 380.132 240.822 381.719 239.969 383.545C235.447 381.663 231.107 379.371 227.004 376.697C223.674 373.466 220.698 369.889 218.127 366.028C218.127 366.028 220.787 359.247 227.17 360.576Z" fill="#FFDDDD"/>
<path d="M213.14 341.298C215.667 339.27 221.086 346.184 223.945 350.472C226.047 353.874 227.796 357.483 229.165 361.241C229.165 361.241 225.84 363.768 222.515 365.729C220.792 366.791 219.004 367.746 217.163 368.587C217.163 368.587 204.463 348.278 213.14 341.298Z" fill="#006199"/>
<path d="M225.374 310.219C220.387 312.18 219.29 316.135 222.947 319.027C225.246 320.508 227.862 321.428 230.582 321.711C233.303 321.994 236.051 321.632 238.606 320.656C243.593 318.695 244.69 314.739 241.033 311.847C238.734 310.366 236.119 309.447 233.398 309.164C230.678 308.881 227.929 309.242 225.374 310.219Z" fill="#8EB780"/>
<path d="M243.161 316.136C243.161 316.136 245.255 303.339 234.151 301.677C221.219 299.782 220.853 314.973 220.853 314.973L243.161 316.136Z" fill="#8EB780"/>
<path d="M243.294 314.241C243.294 314.241 248.713 319.293 242.164 322.119C231.06 326.905 221.983 318.13 221.983 318.13C221.983 318.13 233.786 320.922 239.77 318.296C243.826 316.535 243.294 314.241 243.294 314.241Z" fill="#8EB780"/>
<path d="M232.489 302.441C234.108 303.511 235.288 305.127 235.813 306.995C236.304 308.095 236.345 309.343 235.929 310.472C235.513 311.602 234.672 312.525 233.586 313.045C232.019 314.045 230.655 315.33 229.563 316.834C229.489 316.014 229.607 315.187 229.907 314.42C230.207 313.653 230.681 312.966 231.292 312.413C233.353 310.685 235.282 309.787 234.085 306.995C232.717 304.663 230.482 302.966 227.868 302.275C227.868 302.275 229.597 300.779 232.489 302.441Z" fill="#527A45"/>
<path d="M234.151 301.676C235.899 302.381 237.433 303.526 238.606 305C239.238 305.964 239.171 309.288 239.77 310.086C240.856 311.284 242.035 312.395 243.294 313.41C243.294 313.41 244.191 312.579 243.094 311.083C241.997 309.587 240.634 309.454 240.501 307.194C240.401 305.499 241.199 302.142 234.151 301.676Z" fill="#527A45"/>
<path d="M252.736 399.134H254.963V456.904H252.736V399.134Z" fill="#5C5C5C"/>
<path d="M254.93 399.134H258.753V456.904H254.93V399.134Z" fill="#5C5C5C"/>
<path d="M254.597 400.63H255.129C256.577 400.091 257.766 399.021 258.454 397.638L264.604 385.074C265.105 384.177 265.328 383.152 265.245 382.128C265.162 381.104 264.777 380.128 264.139 379.324C263.491 378.611 262.615 378.149 261.661 378.015C260.708 377.881 259.738 378.086 258.919 378.592L245.422 385.838C244.596 386.286 243.885 386.918 243.343 387.684C242.801 388.451 242.443 389.332 242.296 390.259C242.122 391.103 242.185 391.978 242.478 392.788C242.772 393.598 243.284 394.31 243.959 394.846L251.306 400.165C251.794 400.463 252.338 400.658 252.904 400.738C253.47 400.818 254.046 400.781 254.597 400.63ZM255.96 396.342C255.682 396.912 255.193 397.353 254.597 397.572C254.336 397.673 254.053 397.708 253.774 397.673C253.496 397.639 253.23 397.535 253.002 397.372L245.688 392.054C245.41 391.839 245.198 391.551 245.075 391.222C244.951 390.894 244.922 390.537 244.989 390.193C245.048 389.808 245.195 389.442 245.421 389.125C245.646 388.807 245.942 388.547 246.286 388.365L259.784 381.185C260.11 380.964 260.506 380.87 260.897 380.918C261.289 380.967 261.649 381.157 261.911 381.451C262.193 381.771 262.364 382.173 262.399 382.598C262.435 383.023 262.334 383.448 262.111 383.811L255.96 396.342Z" fill="#5C5C5C"/>
<path d="M253.833 401.461L251.406 400.098V399.466L254.498 400.962L253.833 401.461Z" fill="#5C5C5C"/>
<path d="M264.837 379.324L262.942 378.26L262.543 378.725L264.172 380.354L264.837 379.324Z" fill="#5C5C5C"/>
<path d="M256.492 401.694H257.024C257.749 401.441 258.417 401.046 258.987 400.532C259.558 400.019 260.021 399.397 260.349 398.702L266.499 386.138C267.002 385.247 267.226 384.227 267.143 383.208C267.06 382.189 266.674 381.218 266.034 380.421C265.39 379.703 264.513 379.236 263.558 379.102C262.603 378.968 261.631 379.176 260.814 379.689L247.317 386.935C246.488 387.379 245.774 388.01 245.232 388.777C244.689 389.544 244.333 390.427 244.191 391.356C244.016 392.195 244.078 393.066 244.372 393.871C244.666 394.676 245.179 395.382 245.854 395.91L253.201 401.228C253.685 401.536 254.229 401.737 254.796 401.817C255.364 401.897 255.942 401.855 256.492 401.694ZM257.889 397.439C257.6 398.002 257.115 398.439 256.526 398.669C256.264 398.77 255.981 398.805 255.703 398.77C255.424 398.736 255.159 398.632 254.93 398.47L247.616 393.151C247.329 392.936 247.111 392.643 246.987 392.307C246.864 391.971 246.839 391.606 246.918 391.257C246.98 390.882 247.125 390.526 247.344 390.215C247.563 389.904 247.849 389.647 248.181 389.462L261.712 382.216C262.043 381.999 262.441 381.91 262.832 381.965C263.224 382.02 263.582 382.215 263.84 382.515C264.116 382.837 264.284 383.239 264.32 383.663C264.356 384.086 264.257 384.51 264.039 384.875L257.889 397.439Z" fill="#5C5C5C"/>
<path d="M239.803 481.135L304.001 518.363C305.768 519.345 307.74 519.902 309.76 519.988C311.78 520.075 313.792 519.689 315.637 518.862C318.595 517.166 318.23 514.142 314.805 512.214L250.575 474.986L239.803 481.135Z" fill="#090909"/>
<path d="M239.803 478.344V481.136L244.524 482.033L245.488 477.513L239.803 478.344Z" fill="#5C5C5C"/>
<path d="M317.665 513.112V515.97L316.601 517.2L316.069 513.81L317.665 513.112Z" fill="#5C5C5C"/>
<path d="M239.803 478.343L304.001 515.571C305.77 516.546 307.741 517.098 309.76 517.185C311.779 517.271 313.79 516.89 315.637 516.07C318.595 514.375 318.23 511.35 314.805 509.422L250.575 472.194L239.803 478.343Z" fill="#5C5C5C"/>
<path d="M305.363 510.818C305.197 511.915 306.593 513.045 308.488 513.344C310.383 513.644 312.046 513.012 312.212 511.915C312.378 510.818 311.015 509.688 309.12 509.356C307.225 509.023 305.629 509.821 305.363 510.818Z" fill="#D9DAE2"/>
<path d="M305.862 510.42C305.862 511.383 306.959 512.414 308.655 512.68C310.35 512.946 311.979 512.381 311.979 511.384C311.979 510.386 310.916 509.389 309.22 509.123C307.525 508.857 306.029 509.422 305.862 510.42Z" fill="#EFF0F9"/>
<path d="M266.732 465.613L330.929 502.841C332.699 503.815 334.67 504.367 336.689 504.454C338.707 504.54 340.719 504.159 342.565 503.339C345.524 501.611 345.158 498.619 341.734 496.691L277.504 459.463L266.732 465.613Z" fill="#5C5C5C"/>
<path d="M266.732 462.787V465.613L271.453 466.51L272.384 461.989L266.732 462.787Z" fill="#5C5C5C"/>
<path d="M344.56 497.589V500.414L343.496 501.677L342.998 498.287L344.56 497.589Z" fill="#5C5C5C"/>
<path d="M266.732 462.821L330.929 500.016C332.694 501.003 334.664 501.565 336.684 501.658C338.704 501.75 340.718 501.37 342.565 500.548C345.524 498.819 345.158 495.794 341.734 493.9L277.504 456.672L266.732 462.821Z" fill="#5C5C5C"/>
<path d="M332.226 495.362C332.226 496.458 333.423 497.622 335.318 497.921C337.213 498.22 338.875 497.589 339.075 496.492C339.274 495.395 337.845 494.231 335.983 493.932C334.121 493.633 332.459 494.198 332.226 495.362Z" fill="#D9DAE2"/>
<path d="M332.791 494.863C332.625 495.86 333.888 496.857 335.584 497.157C337.279 497.456 338.742 496.824 338.908 495.86C339.075 494.896 337.844 493.866 336.149 493.6C334.453 493.334 332.957 493.899 332.791 494.863Z" fill="#EFF0F9"/>
<path d="M281.626 458.965L273.58 437.791L245.887 453.812L243.959 480.736L281.626 458.965Z" fill="#CCCCCC"/>
<path d="M243.959 480.737L239.803 478.343L241.798 451.453L245.887 453.813L243.959 480.737Z" fill="#FAFAFA"/>
<path d="M273.581 437.791L245.887 453.813L241.798 451.453L269.491 435.465L273.581 437.791Z" fill="#5C5C5C"/>
<path d="M242.064 377.861L243.427 378.791C245.257 379.969 247.369 380.635 249.544 380.719C250.143 380.617 250.757 380.661 251.336 380.846C251.915 381.031 252.44 381.352 252.868 381.783C252.403 382.049 251.472 382.481 251.472 382.481C251.472 382.481 254.797 383.777 254.564 386.436C254.564 387.766 254.232 387.766 253.267 387.799C252.968 388.331 252.769 389.096 251.539 388.83C251.14 389.062 249.677 390.226 248.912 390.059C246.049 389.01 243.531 387.193 241.631 384.808C240.385 383.769 239.062 382.825 237.675 381.982C238.712 380.216 240.235 378.785 242.064 377.861Z" fill="#FFDDDD"/>
<path d="M252.935 352.766C256.821 358.396 260.161 364.384 262.909 370.648C264.318 373.465 265.186 376.52 265.469 379.656C265.419 380.6 265.157 381.521 264.703 382.35C264.248 383.178 263.612 383.894 262.842 384.443C262.724 384.536 262.584 384.598 262.435 384.623C262.286 384.648 262.133 384.635 261.991 384.585C261.848 384.536 261.721 384.451 261.62 384.339C261.519 384.227 261.447 384.091 261.413 383.944C260.818 384.24 260.194 384.474 259.551 384.642C258.919 384.642 258.554 383.944 258.554 383.944C258.554 383.944 260.316 381.152 259.551 380.221C259.154 379.672 258.629 379.227 258.022 378.925L255.661 380.188C255.661 380.188 257.357 377.496 257.756 376.864C258.058 376.404 258.251 375.881 258.321 375.335C258.487 373.873 251.107 363.701 250.275 362.704C248.638 360.656 247.243 358.425 246.12 356.056C246.964 355.444 247.841 354.878 248.746 354.361C250.019 353.548 251.444 353.005 252.935 352.766Z" fill="#FFDDDD"/>
<path d="M289.904 504.07L289.938 466.709L260.083 449.491V486.753L289.904 504.07Z" fill="#CCCCCC"/>
<path d="M289.904 504.07L289.937 466.709L319.759 449.491V486.753L289.904 504.07Z" fill="#FAFAFA"/>
<path d="M315.902 484.293V455.607L316.767 455.109V484.924L292.929 498.719V497.588L315.902 484.293Z" fill="#5C5C5C"/>
<path d="M292.93 497.589V468.903L315.902 455.608V484.293L292.93 497.589Z" fill="#CCCCCC"/>
<path d="M301.606 490.342L295.19 494.065V484.426L301.606 480.736V490.342Z" fill="white"/>
<path d="M263.973 484.293V455.607L263.075 455.109V484.924L286.945 498.719V497.588L263.973 484.293Z" fill="#527A45"/>
<path d="M286.945 497.589L286.912 468.903L263.973 455.608V484.293L286.945 497.589Z" fill="#EFF0F9"/>
<path d="M319.759 449.492L289.937 466.71L260.083 449.492L289.904 432.24L319.759 449.492Z" fill="#D9DAE2"/>
<path d="M266.266 449.824L265.302 449.259L289.904 435.033L314.539 449.259L313.542 449.824L289.904 436.163L266.266 449.824Z" fill="#CCCCCC"/>
<path d="M266.267 449.824L289.904 436.162L313.542 449.824L289.904 463.485L266.267 449.824Z" fill="#FAFAFA"/>
<path d="M270.156 462.189V471.828L265.237 468.97V459.363L270.156 462.189Z" fill="#5C5C5C"/>
<path d="M277.47 466.344V475.983L272.551 473.124V463.485L277.47 466.344Z" fill="#5C5C5C"/>
<path d="M289.904 464.815L289.938 427.487L260.083 410.236V447.53L289.904 464.815Z" fill="#CCCCCC"/>
<path d="M289.904 464.815L289.937 427.487L319.759 410.236V447.53L289.904 464.815Z" fill="#FAFAFA"/>
<path d="M315.902 445.038V416.386L316.767 415.854V445.669L292.929 459.497V458.334L315.902 445.038Z" fill="#5C5C5C"/>
<path d="M292.93 458.333V429.648L315.902 416.385V445.037L292.93 458.333Z" fill="#CCCCCC"/>
<path d="M301.606 451.087L295.19 454.81V445.171L301.606 441.481V451.087Z" fill="white"/>
<path d="M263.973 445.038V416.386L263.075 415.854V445.669L286.945 459.497V458.334L263.973 445.038Z" fill="#527A45"/>
<path d="M286.945 458.333L286.912 429.648L263.973 416.385V445.037L286.945 458.333Z" fill="#EFF0F9"/>
<path d="M319.759 410.236L289.937 427.487L260.083 410.236L289.904 392.985L319.759 410.236Z" fill="#D9DAE2"/>
<path d="M266.266 410.569L265.302 410.003L289.904 395.777L314.539 410.003L313.542 410.569L289.904 396.907L266.266 410.569Z" fill="#CCCCCC"/>
<path d="M266.267 410.568L289.904 396.907L313.542 410.568L289.904 424.229L266.267 410.568Z" fill="#FAFAFA"/>
<path d="M270.156 422.934V432.573L265.237 429.715V420.108L270.156 422.934Z" fill="#5C5C5C"/>
<path d="M277.47 427.089V436.728L272.551 433.869V424.23L277.47 427.089Z" fill="#5C5C5C"/>
<path d="M289.904 425.327L289.938 387.999L260.083 370.748V408.042L289.904 425.327Z" fill="#CCCCCC"/>
<path d="M289.904 425.327L289.937 387.999L319.759 370.748V408.042L289.904 425.327Z" fill="#FAFAFA"/>
<path d="M315.902 405.582V376.897L316.767 376.398V406.214L292.929 420.008V418.878L315.902 405.582Z" fill="#5C5C5C"/>
<path d="M292.93 418.879V390.193L315.902 376.897V405.583L292.93 418.879Z" fill="#CCCCCC"/>
<path d="M301.606 411.632L295.19 415.355V405.715L301.606 401.992V411.632Z" fill="white"/>
<path d="M263.973 405.582V376.897L263.075 376.398V406.214L286.945 420.008V418.878L263.973 405.582Z" fill="#527A45"/>
<path d="M286.945 418.879L286.912 390.193L263.973 376.897V405.583L286.945 418.879Z" fill="#EFF0F9"/>
<path d="M319.759 370.748L289.937 387.999L260.083 370.748L289.904 353.53L319.759 370.748Z" fill="#D9DAE2"/>
<path d="M266.266 371.113L265.302 370.548L289.904 356.322L314.539 370.548L313.542 371.113L289.904 357.452L266.266 371.113Z" fill="#CCCCCC"/>
<path d="M266.267 371.113L289.904 357.452L313.542 371.113L289.904 384.775L266.267 371.113Z" fill="#FAFAFA"/>
<path d="M270.156 383.478V393.118L265.237 390.259V380.62L270.156 383.478Z" fill="#5C5C5C"/>
<path d="M277.47 387.6V397.239L272.551 394.414V384.775L277.47 387.6Z" fill="#5C5C5C"/>
<path d="M445.727 420.81C445.411 422.146 445.517 423.547 446.031 424.821C446.544 426.094 447.439 427.178 448.592 427.922C449.746 428.667 451.102 429.036 452.474 428.979C453.846 428.922 455.167 428.442 456.255 427.604C457.343 426.766 458.145 425.613 458.55 424.301C458.956 422.989 458.946 421.584 458.521 420.279C458.096 418.973 457.277 417.831 456.176 417.01C455.076 416.189 453.748 415.728 452.376 415.691C450.817 415.502 449.247 415.933 448.003 416.89C446.759 417.848 445.942 419.255 445.727 420.81Z" fill="#3A3A3A"/>
<path d="M490.209 394.884C489.892 396.227 490 397.635 490.519 398.914C491.039 400.193 491.943 401.278 493.108 402.02C494.272 402.761 495.638 403.122 497.016 403.052C498.395 402.982 499.718 402.485 500.801 401.63C501.884 400.775 502.674 399.603 503.062 398.279C503.449 396.954 503.415 395.542 502.963 394.238C502.512 392.934 501.665 391.802 500.541 391.001C499.418 390.199 498.072 389.768 496.692 389.765C495.157 389.605 493.62 390.05 492.409 391.006C491.198 391.963 490.409 393.354 490.209 394.884Z" fill="#3A3A3A"/>
<path d="M411.551 295.564H413.911V373.178H411.551V295.564Z" fill="#4D4D4D"/>
<path d="M413.91 286.358H422.388V369.489H413.91V286.358Z" fill="#3A3A3A"/>
<path d="M384.953 383.981L445.46 418.882V425.995L384.953 391.028V383.981Z" fill="#4D4D4D"/>
<path d="M445.461 418.882L506.001 383.981V391.028L445.461 425.995V418.882Z" fill="#3A3A3A"/>
<path d="M506.001 383.981L445.461 418.982L384.954 383.981L445.461 349.013L506.001 383.981Z" fill="#6D6D6D"/>
<path d="M402.141 287.155V304.274L433.924 285.892V268.774L402.141 287.155Z" fill="#3A3A3A"/>
<path d="M410.22 285.46V296.694L431.564 284.396V273.128L410.22 285.46Z" fill="white"/>
<path d="M398.718 285.227L402.142 287.155V304.273L398.718 302.312V285.227Z" fill="#4D4D4D"/>
<path d="M407.926 295.664V298.057L403.638 300.517V298.124L407.926 295.664Z" fill="white"/>
<path d="M407.926 291.244V293.637L403.638 296.097V293.737L407.926 291.244Z" fill="white"/>
<path d="M407.926 286.823V289.216L403.638 291.642V289.282L407.926 286.823Z" fill="white"/>
<path d="M433.924 268.774L430.533 266.846L398.717 285.227L402.141 287.155L433.924 268.774Z" fill="#707070"/>
<path d="M429.968 275.555V278.148L412.381 288.319V285.726L429.968 275.555Z" fill="#3A3A3A"/>
<path d="M445.46 406.65V359.916L408.126 338.344V385.012L445.46 406.65Z" fill="#CCCCCC"/>
<path d="M445.46 406.65V359.916L482.829 338.344V385.012L445.46 406.65Z" fill="#FAFAFA"/>
<path d="M482.829 338.344L445.46 359.916L408.126 338.344L445.46 316.771L482.829 338.344Z" fill="#EFF0F9"/>
<path d="M422.023 359.949L430.334 364.802V351.14L422.023 346.321V359.949Z" fill="#4D4D4D"/>
<path d="M422.022 346.321L459.324 324.748L467.635 329.568L430.334 351.174L422.022 346.321Z" fill="#6D6D6D"/>
<path d="M440.54 399.97V397.576L427.973 390.297V392.757L440.54 399.97Z" fill="#4D4D4D"/>
<path d="M440.54 395.682V393.288L427.973 386.009V388.435L440.54 395.682Z" fill="#4D4D4D"/>
<path d="M416.736 378.197V386.507L410.719 383.05V374.707L416.736 378.197Z" fill="#4D4D4D"/>
<path d="M474.617 377.3V386.008L480.601 382.518V373.843L474.617 377.3Z" fill="#4D4D4D"/>
<path d="M466.405 382.054V390.729L472.423 387.272V378.597L466.405 382.054Z" fill="#4D4D4D"/>
<path d="M468.267 351.905V364.403L480.601 357.29V344.792L468.267 351.905Z" fill="white"/>
<path d="M469.796 354.465V352.437L479.471 346.853V348.847L469.796 354.465Z" fill="#4D4D4D"/>
<path d="M77.6462 145.108V178.951L183.882 240.329V206.486L77.6462 145.108Z" fill="#D9DAE2"/>
<path d="M95.6345 174.41L98.2019 175.892C98.0682 177.236 97.7161 178.304 97.1457 179.096C96.5752 179.889 95.7684 180.313 94.7255 180.37C93.6825 180.416 92.381 179.989 90.821 179.088C89.68 178.429 88.6415 177.583 87.7054 176.548C86.7783 175.519 85.9805 174.358 85.3119 173.066C84.6433 171.764 84.1262 170.369 83.7607 168.882C83.404 167.389 83.2257 165.856 83.2257 164.281L83.2256 162.042C83.2255 160.467 83.4038 159.144 83.7603 158.074C84.1258 156.998 84.6472 156.198 85.3247 155.673C86.0111 155.153 86.8356 154.924 87.7983 154.986C88.7611 155.048 89.8442 155.426 91.0476 156.121C92.5185 156.97 93.762 158.007 94.7783 159.232C95.7946 160.457 96.5835 161.798 97.1451 163.254C97.7157 164.706 98.0679 166.211 98.2016 167.771L95.6343 166.288C95.5095 165.166 95.2777 164.132 94.9389 163.185C94.6001 162.227 94.1187 161.363 93.4947 160.591C92.8707 159.819 92.055 159.142 91.0477 158.56C90.183 158.061 89.4208 157.811 88.7612 157.811C88.1104 157.816 87.5622 158.04 87.1165 158.483C86.6797 158.931 86.3499 159.579 86.1271 160.428C85.9043 161.278 85.7929 162.299 85.7929 163.493L85.793 165.763C85.793 166.864 85.8911 167.956 86.0873 169.036C86.2923 170.122 86.5999 171.149 87.01 172.117C87.4201 173.084 87.9416 173.962 88.5745 174.749C89.2074 175.527 89.9563 176.165 90.8209 176.664C91.9174 177.297 92.791 177.601 93.4418 177.575C94.0925 177.549 94.5828 177.256 94.9126 176.695C95.2513 176.139 95.4919 175.378 95.6345 174.41Z" fill="#090909"/>
<path d="M104.419 164.15L104.42 186.631L101.839 185.141L101.838 162.66L104.419 164.15ZM116.413 171.076L107.963 178.564L103.39 175.923L102.989 173.221L106.425 175.206L113.218 169.23L116.413 171.076ZM113.82 192.059L106.506 177.336L107.95 175.561L116.976 193.881L113.82 192.059Z" fill="#090909"/>
<path d="M131.831 179.977L131.831 182.417L122.925 177.275L122.925 174.835L131.831 179.977ZM134.051 181.259L134.051 203.74L131.471 202.25L131.47 179.769L134.051 181.259ZM122.043 174.326L124.61 175.808L124.169 186.563C124.107 188.112 124 189.465 123.849 190.623C123.706 191.776 123.501 192.734 123.234 193.495C122.966 194.247 122.618 194.797 122.191 195.147C121.763 195.487 121.237 195.621 120.613 195.549C119.998 195.482 119.258 195.199 118.393 194.699L117.698 194.298L117.698 191.874L118.233 192.136C118.732 192.383 119.16 192.502 119.516 192.491C119.882 192.476 120.189 192.314 120.439 192.005C120.697 191.701 120.907 191.236 121.067 190.608C121.228 189.98 121.352 189.172 121.442 188.184C121.54 187.19 121.615 186.009 121.669 184.64L122.043 174.326Z" fill="#090909"/>
<path d="M146.152 190.238L139.707 207.006L137.073 205.485L144.494 187.289L146.192 188.269L146.152 190.238ZM151.555 213.847L145.095 189.628L145.055 187.613L146.753 188.594L154.202 215.375L151.555 213.847ZM151.22 205.331L151.22 207.771L140.282 201.455L140.282 199.016L151.22 205.331Z" fill="#090909"/>
<path d="M172.387 223.451L172.387 225.875L157.652 217.367L157.652 214.943L172.387 223.451ZM158.066 215.182L158.067 223.134L155.513 221.66L155.499 213.7L158.066 215.182ZM174.634 224.748L174.607 232.669L172.053 231.195L172.053 223.258L174.634 224.748ZM169.86 201.935L169.86 204.374L161.329 199.449L161.328 197.009L169.86 201.935ZM172.079 203.217L172.08 225.698L169.513 224.215L169.512 201.734L172.079 203.217ZM160.446 196.5L163.027 197.99L162.626 206.806C162.572 208.134 162.461 209.325 162.292 210.381C162.122 211.425 161.913 212.349 161.663 213.152C161.414 213.955 161.128 214.64 160.808 215.206C160.487 215.761 160.143 216.207 159.778 216.541C159.413 216.865 159.029 217.087 158.628 217.205C158.236 217.318 157.839 217.331 157.438 217.244L156.261 216.564L156.261 214.14L157.09 214.619C157.322 214.464 157.585 214.199 157.879 213.824C158.182 213.453 158.481 212.92 158.775 212.226C159.078 211.526 159.341 210.612 159.564 209.485C159.796 208.363 159.952 206.971 160.032 205.308L160.446 196.5Z" fill="#090909"/>
</svg>
